lots.ufo
<glyph name="exclam" format="2">
  <advance width="649"/>
  <unicode hex="0021"/>
  <outline>
    <contour>
      <point x="420" y="86" type="qcurve" smooth="yes"/>
      <point x="420" y="46"/>
      <point x="362" y="-12"/>
      <point x="321" y="-12" type="qcurve" smooth="yes"/>
      <point x="280" y="-12"/>
      <point x="222" y="46"/>
      <point x="222" y="87" type="qcurve" smooth="yes"/>
      <point x="222" y="128"/>
      <point x="280" y="186"/>
      <point x="321" y="186" type="qcurve" smooth="yes"/>
      <point x="363" y="186"/>
      <point x="420" y="128"/>
    </contour>
    <contour>
      <point x="345" y="278" type="qcurve"/>
      <point x="295" y="278" type="line"/>
      <point x="295" y="365"/>
      <point x="283" y="475" type="qcurve" smooth="yes"/>
      <point x="277" y="523" type="line"/>
      <point x="272" y="568" type="line" smooth="yes"/>
      <point x="271" y="578"/>
      <point x="265" y="620" type="qcurve" smooth="yes"/>
      <point x="258" y="664" type="line" smooth="yes"/>
      <point x="254" y="692"/>
      <point x="243" y="755" type="qcurve" smooth="yes"/>
      <point x="229" y="837" type="line" smooth="yes"/>
      <point x="207" y="968"/>
      <point x="207" y="1041" type="qcurve" smooth="yes"/>
      <point x="207" y="1265"/>
      <point x="320" y="1265" type="qcurve" smooth="yes"/>
      <point x="433" y="1265"/>
      <point x="433" y="1041" type="qcurve" smooth="yes"/>
      <point x="433" y="968"/>
      <point x="411" y="837" type="qcurve" smooth="yes"/>
      <point x="397" y="755" type="line" smooth="yes"/>
      <point x="386" y="692"/>
      <point x="382" y="664" type="qcurve" smooth="yes"/>
      <point x="376" y="620" type="line" smooth="yes"/>
      <point x="369" y="578"/>
      <point x="368" y="568" type="qcurve" smooth="yes"/>
      <point x="363" y="523" type="line"/>
      <point x="358" y="475" type="line" smooth="yes"/>
      <point x="345" y="365"/>
    </contour>
  </outline>
</glyph>
<glyph name="hejri" format="2">
  <advance width="860"/>
  <unicode hex="0023"/>
  <outline>
    <contour>
      <point x="571" y="460" type="qcurve"/>
      <point x="562" y="455"/>
      <point x="560" y="443" type="qcurve"/>
      <point x="558" y="425" type="line" smooth="yes"/>
      <point x="549" y="360"/>
      <point x="518" y="313" type="qcurve"/>
      <point x="671" y="251"/>
      <point x="730" y="251" type="qcurve" smooth="yes"/>
      <point x="749" y="251"/>
      <point x="749" y="265" type="qcurve" smooth="yes"/>
      <point x="749" y="293"/>
      <point x="598" y="458"/>
    </contour>
    <contour>
      <point x="388" y="328" type="qcurve" smooth="yes"/>
      <point x="422" y="328"/>
      <point x="484" y="371"/>
      <point x="484" y="394" type="qcurve" smooth="yes"/>
      <point x="484" y="429"/>
      <point x="434" y="505"/>
      <point x="411" y="505" type="qcurve" smooth="yes"/>
      <point x="374" y="505"/>
      <point x="270" y="423"/>
      <point x="270" y="394" type="qcurve" smooth="yes"/>
      <point x="270" y="373"/>
      <point x="351" y="328"/>
    </contour>
    <contour>
      <point x="225" y="250" type="qcurve"/>
      <point x="194" y="294"/>
      <point x="194" y="335" type="qcurve" smooth="yes"/>
      <point x="194" y="428"/>
      <point x="314" y="558" type="qcurve" smooth="yes"/>
      <point x="330" y="576" type="line"/>
      <point x="283" y="594" type="line"/>
      <point x="292" y="679"/>
      <point x="344" y="778"/>
      <point x="379" y="778" type="qcurve" smooth="yes"/>
      <point x="422" y="778"/>
      <point x="581" y="673"/>
      <point x="656" y="597" type="qcurve" smooth="yes"/>
      <point x="824" y="423"/>
      <point x="824" y="283" type="qcurve" smooth="yes"/>
      <point x="824" y="77"/>
      <point x="718" y="77" type="qcurve" smooth="yes"/>
      <point x="685" y="77"/>
      <point x="565" y="124" type="qcurve" smooth="yes"/>
      <point x="462" y="164"/>
      <point x="409" y="164" type="qcurve" smooth="yes"/>
      <point x="339" y="164"/>
      <point x="261" y="86" type="qcurve" smooth="yes"/>
      <point x="174" y="0"/>
      <point x="0" y="0" type="qcurve" smooth="yes"/>
      <point x="-62" y="0"/>
      <point x="-62" y="31" type="qcurve" smooth="yes"/>
      <point x="-62" y="189" type="line" smooth="yes"/>
      <point x="-62" y="221"/>
      <point x="-9" y="221" type="qcurve" smooth="yes"/>
      <point x="26" y="221" type="line" smooth="yes"/>
      <point x="172" y="221"/>
    </contour>
  </outline>
</glyph>
<glyph name="dollar" format="2">
  <advance width="1024"/>
  <unicode hex="0024"/>
  <outline>
    <contour>
      <point x="467" y="-87" type="line"/>
      <point x="467" y="-14" type="line"/>
      <point x="455" y="-15" type="line"/>
      <point x="328" y="-15"/>
      <point x="207" y="79" type="qcurve"/>
      <point x="191" y="304" type="line"/>
      <point x="338" y="191"/>
      <point x="467" y="169" type="qcurve"/>
      <point x="467" y="508" type="line"/>
      <point x="334" y="588"/>
      <point x="218" y="748"/>
      <point x="218" y="849" type="qcurve" smooth="yes"/>
      <point x="218" y="968"/>
      <point x="353" y="1140"/>
      <point x="467" y="1167" type="qcurve"/>
      <point x="467" y="1256" type="line"/>
      <point x="580" y="1256" type="line"/>
      <point x="580" y="1165" type="line"/>
      <point x="686" y="1154"/>
      <point x="774" y="1098" type="qcurve"/>
      <point x="792" y="856" type="line"/>
      <point x="689" y="948"/>
      <point x="580" y="984" type="qcurve"/>
      <point x="580" y="695" type="line"/>
      <point x="724" y="595"/>
      <point x="819" y="455"/>
      <point x="819" y="341" type="qcurve" smooth="yes"/>
      <point x="819" y="108"/>
      <point x="580" y="1" type="qcurve"/>
      <point x="580" y="-87" type="line"/>
    </contour>
    <contour>
      <point x="580" y="449" type="qcurve"/>
      <point x="580" y="178" type="line"/>
      <point x="632" y="186"/>
      <point x="708" y="255"/>
      <point x="708" y="294" type="qcurve" smooth="yes"/>
      <point x="708" y="322"/>
      <point x="636" y="409"/>
    </contour>
    <contour>
      <point x="467" y="745" type="qcurve"/>
      <point x="467" y="991" type="line"/>
      <point x="461" y="991" type="line" smooth="yes"/>
      <point x="411" y="991"/>
      <point x="329" y="929"/>
      <point x="329" y="892" type="qcurve" smooth="yes"/>
      <point x="329" y="820"/>
    </contour>
  </outline>
</glyph>
<glyph name="closeparen" format="2">
  <advance width="682"/>
  <unicode hex="0028"/>
  <outline>
    <contour>
      <point x="510" y="-157" type="line"/>
      <point x="317" y="-17"/>
      <point x="93" y="360"/>
      <point x="93" y="546" type="qcurve" smooth="yes"/>
      <point x="93" y="768"/>
      <point x="298" y="1123"/>
      <point x="523" y="1292" type="qcurve"/>
      <point x="571" y="1251" type="line"/>
      <point x="250" y="911"/>
      <point x="250" y="562" type="qcurve" smooth="yes"/>
      <point x="250" y="415"/>
      <point x="375" y="99"/>
      <point x="482" y="-27" type="qcurve" smooth="yes"/>
      <point x="534" y="-88" type="line" smooth="yes"/>
      <point x="540" y="-95"/>
      <point x="558" y="-117" type="qcurve"/>
    </contour>
  </outline>
</glyph>
<glyph name="openparen" format="2">
  <advance width="682"/>
  <unicode hex="0029"/>
  <outline>
    <contour>
      <point x="173" y="-157" type="qcurve"/>
      <point x="125" y="-117" type="line"/>
      <point x="143" y="-95"/>
      <point x="149" y="-88" type="qcurve" smooth="yes"/>
      <point x="201" y="-27" type="line" smooth="yes"/>
      <point x="308" y="99"/>
      <point x="432" y="415"/>
      <point x="432" y="562" type="qcurve" smooth="yes"/>
      <point x="432" y="911"/>
      <point x="111" y="1251" type="qcurve"/>
      <point x="159" y="1292" type="line"/>
      <point x="385" y="1123"/>
      <point x="589" y="768"/>
      <point x="589" y="546" type="qcurve" smooth="yes"/>
      <point x="589" y="360"/>
      <point x="366" y="-17"/>
    </contour>
  </outline>
</glyph>
<glyph name="asterisk" format="2">
  <advance width="1146"/>
  <unicode hex="002A"/>
  <outline>
    <contour>
      <point x="489" y="465" type="line"/>
      <point x="449" y="333"/>
      <point x="337" y="183"/>
      <point x="278" y="183" type="qcurve" smooth="yes"/>
      <point x="247" y="183"/>
      <point x="195" y="236"/>
      <point x="195" y="266" type="qcurve" smooth="yes"/>
      <point x="195" y="325"/>
      <point x="345" y="438"/>
      <point x="477" y="477" type="qcurve"/>
    </contour>
    <contour>
      <point x="706" y="571" type="line"/>
      <point x="859" y="653"/>
      <point x="956" y="653" type="qcurve" smooth="yes"/>
      <point x="1077" y="653"/>
      <point x="1077" y="562" type="qcurve" smooth="yes"/>
      <point x="1077" y="472"/>
      <point x="956" y="472" type="qcurve" smooth="yes"/>
      <point x="859" y="472"/>
      <point x="706" y="554" type="qcurve"/>
    </contour>
    <contour>
      <point x="662" y="661" type="line"/>
      <point x="702" y="792"/>
      <point x="814" y="943"/>
      <point x="873" y="943" type="qcurve" smooth="yes"/>
      <point x="904" y="943"/>
      <point x="957" y="890"/>
      <point x="957" y="860" type="qcurve" smooth="yes"/>
      <point x="957" y="801"/>
      <point x="806" y="688"/>
      <point x="674" y="649" type="qcurve"/>
    </contour>
    <contour>
      <point x="478" y="650" type="line"/>
      <point x="346" y="689"/>
      <point x="196" y="802"/>
      <point x="196" y="861" type="qcurve" smooth="yes"/>
      <point x="196" y="891"/>
      <point x="248" y="944"/>
      <point x="279" y="944" type="qcurve" smooth="yes"/>
      <point x="338" y="944"/>
      <point x="450" y="793"/>
      <point x="490" y="662" type="qcurve"/>
    </contour>
    <contour>
      <point x="568" y="693" type="line"/>
      <point x="486" y="846"/>
      <point x="486" y="943" type="qcurve" smooth="yes"/>
      <point x="486" y="1064"/>
      <point x="576" y="1064" type="qcurve" smooth="yes"/>
      <point x="667" y="1064"/>
      <point x="667" y="943" type="qcurve" smooth="yes"/>
      <point x="667" y="846"/>
      <point x="585" y="693" type="qcurve"/>
    </contour>
    <contour>
      <point x="583" y="432" type="line"/>
      <point x="665" y="280"/>
      <point x="665" y="183" type="qcurve" smooth="yes"/>
      <point x="665" y="62"/>
      <point x="575" y="62" type="qcurve" smooth="yes"/>
      <point x="484" y="62"/>
      <point x="484" y="183" type="qcurve" smooth="yes"/>
      <point x="484" y="280"/>
      <point x="566" y="432" type="qcurve"/>
    </contour>
    <contour>
      <point x="673" y="476" type="line"/>
      <point x="805" y="437"/>
      <point x="956" y="324"/>
      <point x="956" y="265" type="qcurve" smooth="yes"/>
      <point x="956" y="235"/>
      <point x="903" y="182"/>
      <point x="872" y="182" type="qcurve" smooth="yes"/>
      <point x="813" y="182"/>
      <point x="701" y="332"/>
      <point x="661" y="464" type="qcurve"/>
    </contour>
    <contour>
      <point x="440" y="555" type="line"/>
      <point x="287" y="473"/>
      <point x="190" y="473" type="qcurve" smooth="yes"/>
      <point x="70" y="473"/>
      <point x="70" y="564" type="qcurve" smooth="yes"/>
      <point x="70" y="654"/>
      <point x="190" y="654" type="qcurve" smooth="yes"/>
      <point x="287" y="654"/>
      <point x="440" y="572" type="qcurve"/>
    </contour>
    <contour>
      <point x="573" y="471" type="qcurve" smooth="yes"/>
      <point x="537" y="471"/>
      <point x="484" y="524"/>
      <point x="484" y="561" type="qcurve" smooth="yes"/>
      <point x="484" y="599"/>
      <point x="537" y="652"/>
      <point x="574" y="652" type="qcurve" smooth="yes"/>
      <point x="612" y="652"/>
      <point x="665" y="598"/>
      <point x="665" y="561" type="qcurve" smooth="yes"/>
      <point x="665" y="524"/>
      <point x="612" y="471"/>
    </contour>
  </outline>
</glyph>
<glyph name="plus" format="2">
  <advance width="1024"/>
  <unicode hex="002B"/>
  <outline>
    <contour>
      <point x="559" y="525" type="line"/>
      <point x="909" y="525" type="line"/>
      <point x="909" y="429" type="line"/>
      <point x="559" y="429" type="line"/>
      <point x="559" y="80" type="line"/>
      <point x="464" y="80" type="line"/>
      <point x="464" y="429" type="line"/>
      <point x="115" y="429" type="line"/>
      <point x="115" y="525" type="line"/>
      <point x="464" y="525" type="line"/>
      <point x="464" y="874" type="line"/>
      <point x="559" y="874" type="line"/>
    </contour>
  </outline>
</glyph>
<glyph name="separator" format="2">
  <unicode hex="002C"/>
  <outline>
    <contour>
      <point x="0" y="0" type="line"/>
      <point x="0" y="1543" type="line"/>
      <point x="-87" y="1456" type="line"/>
      <point x="-119" y="1488" type="line"/>
      <point x="-9" y="1598" type="line"/>
      <point x="-117" y="1705" type="line"/>
      <point x="-86" y="1736" type="line"/>
      <point x="22" y="1628" type="line"/>
      <point x="130" y="1736" type="line"/>
      <point x="163" y="1704" type="line"/>
      <point x="55" y="1595" type="line"/>
      <point x="162" y="1488" type="line"/>
      <point x="130" y="1456" type="line"/>
      <point x="44" y="1543" type="line"/>
      <point x="44" y="0" type="line"/>
    </contour>
  </outline>
</glyph>
<glyph name="minus" format="2">
  <advance width="1024"/>
  <unicode hex="002D"/>
  <outline>
    <contour>
      <point x="909" y="429" type="line"/>
      <point x="115" y="429" type="line"/>
      <point x="115" y="525" type="line"/>
      <point x="909" y="525" type="line"/>
    </contour>
  </outline>
</glyph>
<glyph name="fullpoint" format="2">
  <advance width="594"/>
  <unicode hex="002E"/>
  <outline>
    <contour>
      <point x="291" y="-14" type="qcurve" smooth="yes"/>
      <point x="251" y="-14"/>
      <point x="191" y="45"/>
      <point x="191" y="86" type="qcurve" smooth="yes"/>
      <point x="191" y="127"/>
      <point x="251" y="187"/>
      <point x="292" y="187" type="qcurve" smooth="yes"/>
      <point x="334" y="187"/>
      <point x="393" y="127"/>
      <point x="393" y="86" type="qcurve" smooth="yes"/>
      <point x="393" y="44"/>
      <point x="334" y="-14"/>
    </contour>
  </outline>
</glyph>
<glyph name="solidus" format="2">
  <advance width="1023"/>
  <unicode hex="002F"/>
  <outline>
    <contour>
      <point x="906" y="1377" type="line"/>
      <point x="993" y="1348" type="line"/>
      <point x="486" y="-281" type="line"/>
      <point x="397" y="-255" type="line"/>
    </contour>
  </outline>
</glyph>
<glyph name="zero" format="2">
  <advance width="1024"/>
  <unicode hex="0030"/>
  <outline>
    <contour>
      <point x="560" y="1053" type="qcurve" smooth="yes"/>
      <point x="691" y="1053"/>
      <point x="842" y="817"/>
      <point x="842" y="612" type="qcurve" smooth="yes"/>
      <point x="842" y="365"/>
      <point x="622" y="-15"/>
      <point x="480" y="-15" type="qcurve" smooth="yes"/>
      <point x="348" y="-15"/>
      <point x="195" y="229"/>
      <point x="195" y="438" type="qcurve" smooth="yes"/>
      <point x="195" y="694"/>
      <point x="408" y="1053"/>
    </contour>
    <contour>
      <point x="523" y="909" type="qcurve" smooth="yes"/>
      <point x="327" y="909"/>
      <point x="327" y="563" type="qcurve" smooth="yes"/>
      <point x="327" y="131"/>
      <point x="512" y="131" type="qcurve" smooth="yes"/>
      <point x="615" y="131"/>
      <point x="708" y="321"/>
      <point x="708" y="530" type="qcurve" smooth="yes"/>
      <point x="708" y="736"/>
      <point x="623" y="909"/>
    </contour>
  </outline>
</glyph>
<glyph name="one" format="2">
  <advance width="1023"/>
  <unicode hex="0031"/>
  <outline>
    <contour>
      <point x="273" y="794" type="qcurve"/>
      <point x="330" y="962" type="line"/>
      <point x="503" y="962"/>
      <point x="699" y="1063" type="qcurve"/>
      <point x="697" y="1035"/>
      <point x="696" y="1028" type="qcurve"/>
      <point x="691" y="928" type="line"/>
      <point x="683" y="803" type="line" smooth="yes"/>
      <point x="667" y="519"/>
      <point x="667" y="220" type="qcurve" smooth="yes"/>
      <point x="667" y="131"/>
      <point x="670" y="62" type="qcurve"/>
      <point x="537" y="-60" type="line"/>
      <point x="537" y="-45" type="line"/>
      <point x="536" y="115" type="line"/>
      <point x="539" y="302" type="line"/>
      <point x="543" y="509" type="line" smooth="yes"/>
      <point x="543" y="624"/>
      <point x="558" y="791" type="qcurve" smooth="yes"/>
      <point x="563" y="853" type="line"/>
      <point x="564" y="857"/>
      <point x="565" y="879" type="qcurve"/>
      <point x="425" y="794"/>
    </contour>
  </outline>
</glyph>
<glyph name="two" format="2">
  <advance width="1023"/>
  <unicode hex="0032"/>
  <outline>
    <contour>
      <point x="249" y="752" type="qcurve"/>
      <point x="278" y="940" type="line"/>
      <point x="394" y="1053"/>
      <point x="535" y="1053" type="qcurve" smooth="yes"/>
      <point x="655" y="1053"/>
      <point x="804" y="891"/>
      <point x="804" y="761" type="qcurve" smooth="yes"/>
      <point x="804" y="530"/>
      <point x="466" y="230" type="qcurve" smooth="yes"/>
      <point x="430" y="198"/>
      <point x="410" y="178" type="qcurve"/>
      <point x="734" y="178" type="line"/>
      <point x="760" y="178" type="line" smooth="yes"/>
      <point x="808" y="178"/>
      <point x="862" y="187" type="qcurve"/>
      <point x="791" y="0" type="line"/>
      <point x="199" y="0" type="line"/>
      <point x="234" y="159" type="line"/>
      <point x="244" y="167" type="line" smooth="yes"/>
      <point x="688" y="515"/>
      <point x="688" y="717" type="qcurve" smooth="yes"/>
      <point x="688" y="794"/>
      <point x="602" y="896"/>
      <point x="536" y="896" type="qcurve" smooth="yes"/>
      <point x="416" y="896"/>
    </contour>
  </outline>
</glyph>
<glyph name="three" format="2">
  <advance width="1023"/>
  <unicode hex="0033"/>
  <outline>
    <contour>
      <point x="288" y="814" type="qcurve"/>
      <point x="358" y="1010" type="line"/>
      <point x="453" y="1053"/>
      <point x="557" y="1053" type="qcurve" smooth="yes"/>
      <point x="665" y="1053"/>
      <point x="795" y="934"/>
      <point x="795" y="835" type="qcurve" smooth="yes"/>
      <point x="795" y="675"/>
      <point x="648" y="585" type="qcurve"/>
      <point x="802" y="539"/>
      <point x="802" y="372" type="qcurve" smooth="yes"/>
      <point x="802" y="-15"/>
      <point x="215" y="-15" type="qcurve"/>
      <point x="269" y="160" type="line"/>
      <point x="323" y="152"/>
      <point x="397" y="152" type="qcurve" smooth="yes"/>
      <point x="531" y="152"/>
      <point x="713" y="264"/>
      <point x="713" y="346" type="qcurve" smooth="yes"/>
      <point x="713" y="473"/>
      <point x="501" y="473" type="qcurve" smooth="yes"/>
      <point x="494" y="473"/>
      <point x="461" y="471" type="qcurve" smooth="yes"/>
      <point x="432" y="470"/>
      <point x="421" y="470" type="qcurve" smooth="yes"/>
      <point x="404" y="470"/>
      <point x="367" y="467" type="qcurve"/>
      <point x="416" y="627" type="line"/>
      <point x="450" y="618"/>
      <point x="477" y="618" type="qcurve" smooth="yes"/>
      <point x="559" y="618"/>
      <point x="691" y="731"/>
      <point x="691" y="801" type="qcurve" smooth="yes"/>
      <point x="691" y="909"/>
      <point x="565" y="909" type="qcurve" smooth="yes"/>
      <point x="437" y="909"/>
    </contour>
  </outline>
</glyph>
<glyph name="four" format="2">
  <advance width="1024"/>
  <unicode hex="0034"/>
  <outline>
    <contour>
      <point x="714" y="1063" type="line"/>
      <point x="701" y="494" type="line"/>
      <point x="792" y="494" type="line" smooth="yes"/>
      <point x="841" y="494"/>
      <point x="886" y="506" type="qcurve"/>
      <point x="828" y="357" type="line"/>
      <point x="701" y="357" type="line"/>
      <point x="701" y="57" type="line"/>
      <point x="560" y="-59" type="line"/>
      <point x="575" y="357" type="line"/>
      <point x="156" y="357" type="line"/>
      <point x="197" y="520" type="line"/>
      <point x="588" y="1063" type="line"/>
    </contour>
    <contour>
      <point x="574" y="501" type="line"/>
      <point x="593" y="925" type="line"/>
      <point x="590" y="930" type="line"/>
      <point x="291" y="501" type="line"/>
    </contour>
  </outline>
</glyph>
<glyph name="five" format="2">
  <advance width="1023"/>
  <unicode hex="0035"/>
  <outline>
    <contour>
      <point x="215" y="-14" type="line"/>
      <point x="258" y="176" type="line"/>
      <point x="328" y="165"/>
      <point x="389" y="165" type="qcurve" smooth="yes"/>
      <point x="533" y="165"/>
      <point x="707" y="282"/>
      <point x="707" y="379" type="qcurve" smooth="yes"/>
      <point x="707" y="437"/>
      <point x="605" y="508"/>
      <point x="522" y="508" type="qcurve" smooth="yes"/>
      <point x="423" y="508"/>
      <point x="288" y="454" type="qcurve"/>
      <point x="365" y="1045" type="line"/>
      <point x="384" y="1044" type="line" smooth="yes"/>
      <point x="467" y="1039"/>
      <point x="521" y="1039" type="qcurve" smooth="yes"/>
      <point x="644" y="1039"/>
      <point x="808" y="1053" type="qcurve"/>
      <point x="749" y="885" type="line"/>
      <point x="719" y="881"/>
      <point x="639" y="877" type="qcurve" smooth="yes"/>
      <point x="563" y="874" type="line" smooth="yes"/>
      <point x="538" y="872"/>
      <point x="488" y="872" type="qcurve" smooth="yes"/>
      <point x="421" y="872" type="line"/>
      <point x="392" y="638" type="line"/>
      <point x="498" y="674"/>
      <point x="570" y="674" type="qcurve" smooth="yes"/>
      <point x="675" y="674"/>
      <point x="796" y="535"/>
      <point x="796" y="414" type="qcurve" smooth="yes"/>
      <point x="796" y="232"/>
      <point x="535" y="-14"/>
      <point x="342" y="-14" type="qcurve" smooth="yes"/>
    </contour>
  </outline>
</glyph>
<glyph name="six" format="2">
  <advance width="1024"/>
  <unicode hex="0036"/>
  <outline>
    <contour>
      <point x="752" y="1054" type="qcurve"/>
      <point x="713" y="875" type="line"/>
      <point x="687" y="873" type="line" smooth="yes"/>
      <point x="341" y="854"/>
      <point x="314" y="531" type="qcurve"/>
      <point x="318" y="526" type="line"/>
      <point x="436" y="668"/>
      <point x="571" y="668" type="qcurve" smooth="yes"/>
      <point x="680" y="668"/>
      <point x="804" y="508"/>
      <point x="804" y="368" type="qcurve" smooth="yes"/>
      <point x="804" y="203"/>
      <point x="632" y="-15"/>
      <point x="502" y="-15" type="qcurve" smooth="yes"/>
      <point x="370" y="-15"/>
      <point x="217" y="196"/>
      <point x="217" y="380" type="qcurve" smooth="yes"/>
      <point x="217" y="1011"/>
    </contour>
    <contour>
      <point x="305" y="426" type="qcurve"/>
      <point x="304" y="402"/>
      <point x="304" y="390" type="qcurve" smooth="yes"/>
      <point x="304" y="290"/>
      <point x="430" y="143"/>
      <point x="515" y="143" type="qcurve" smooth="yes"/>
      <point x="598" y="143"/>
      <point x="716" y="273"/>
      <point x="716" y="366" type="qcurve" smooth="yes"/>
      <point x="716" y="432"/>
      <point x="611" y="523"/>
      <point x="534" y="523" type="qcurve" smooth="yes"/>
      <point x="427" y="523"/>
    </contour>
  </outline>
</glyph>
<glyph name="seven" format="2">
  <advance width="1023"/>
  <unicode hex="0037"/>
  <outline>
    <contour>
      <point x="230" y="-57" type="qcurve"/>
      <point x="251" y="149" type="line"/>
      <point x="414" y="288"/>
      <point x="672" y="702"/>
      <point x="706" y="879" type="qcurve"/>
      <point x="689" y="880"/>
      <point x="685" y="880" type="qcurve"/>
      <point x="617" y="885" type="line" smooth="yes"/>
      <point x="581" y="887"/>
      <point x="538" y="887" type="qcurve" smooth="yes"/>
      <point x="400" y="887"/>
      <point x="272" y="868" type="qcurve"/>
      <point x="311" y="1054" type="line"/>
      <point x="851" y="1054" type="line"/>
      <point x="772" y="663"/>
      <point x="574" y="333" type="qcurve" smooth="yes"/>
      <point x="511" y="228"/>
      <point x="305" y="-5"/>
    </contour>
  </outline>
</glyph>
<glyph name="eight" format="2">
  <advance width="1023"/>
  <unicode hex="0038"/>
  <outline>
    <contour>
      <point x="616" y="565" type="qcurve"/>
      <point x="795" y="454"/>
      <point x="795" y="301" type="qcurve" smooth="yes"/>
      <point x="795" y="178"/>
      <point x="602" y="-14"/>
      <point x="479" y="-14" type="qcurve" smooth="yes"/>
      <point x="367" y="-14"/>
      <point x="236" y="110"/>
      <point x="236" y="216" type="qcurve" smooth="yes"/>
      <point x="236" y="390"/>
      <point x="425" y="506" type="qcurve"/>
      <point x="254" y="607"/>
      <point x="254" y="747" type="qcurve" smooth="yes"/>
      <point x="254" y="872"/>
      <point x="439" y="1054"/>
      <point x="566" y="1054" type="qcurve" smooth="yes"/>
      <point x="669" y="1054"/>
      <point x="795" y="931"/>
      <point x="795" y="831" type="qcurve" smooth="yes"/>
      <point x="795" y="683"/>
    </contour>
    <contour>
      <point x="550" y="603" type="qcurve"/>
      <point x="695" y="688"/>
      <point x="695" y="798" type="qcurve" smooth="yes"/>
      <point x="695" y="846"/>
      <point x="604" y="909"/>
      <point x="535" y="909" type="qcurve" smooth="yes"/>
      <point x="453" y="909"/>
      <point x="342" y="836"/>
      <point x="342" y="782" type="qcurve" smooth="yes"/>
      <point x="342" y="697"/>
    </contour>
    <contour>
      <point x="495" y="462" type="qcurve"/>
      <point x="335" y="348"/>
      <point x="335" y="256" type="qcurve" smooth="yes"/>
      <point x="335" y="200"/>
      <point x="431" y="129"/>
      <point x="507" y="129" type="qcurve" smooth="yes"/>
      <point x="593" y="129"/>
      <point x="707" y="205"/>
      <point x="707" y="262" type="qcurve" smooth="yes"/>
      <point x="707" y="347"/>
    </contour>
  </outline>
</glyph>
<glyph name="nine" format="2">
  <advance width="1024"/>
  <unicode hex="0039"/>
  <outline>
    <contour>
      <point x="251" y="-14" type="qcurve"/>
      <point x="293" y="164" type="line"/>
      <point x="313" y="165" type="line" smooth="yes"/>
      <point x="432" y="172"/>
      <point x="568" y="231"/>
      <point x="617" y="297" type="qcurve" smooth="yes"/>
      <point x="674" y="375"/>
      <point x="691" y="502" type="qcurve" smooth="yes"/>
      <point x="692" y="509" type="line"/>
      <point x="687" y="514" type="line"/>
      <point x="570" y="371"/>
      <point x="429" y="371" type="qcurve" smooth="yes"/>
      <point x="323" y="371"/>
      <point x="201" y="528"/>
      <point x="201" y="665" type="qcurve" smooth="yes"/>
      <point x="201" y="834"/>
      <point x="371" y="1053"/>
      <point x="502" y="1053" type="qcurve" smooth="yes"/>
      <point x="635" y="1053"/>
      <point x="789" y="837"/>
      <point x="789" y="651" type="qcurve" smooth="yes"/>
      <point x="789" y="348"/>
      <point x="496" y="-14"/>
    </contour>
    <contour>
      <point x="699" y="614" type="qcurve"/>
      <point x="700" y="628"/>
      <point x="700" y="632" type="qcurve" smooth="yes"/>
      <point x="700" y="745"/>
      <point x="579" y="896"/>
      <point x="488" y="896" type="qcurve" smooth="yes"/>
      <point x="407" y="896"/>
      <point x="288" y="766"/>
      <point x="288" y="679" type="qcurve" smooth="yes"/>
      <point x="288" y="611"/>
      <point x="394" y="515"/>
      <point x="470" y="515" type="qcurve" smooth="yes"/>
      <point x="585" y="515"/>
    </contour>
  </outline>
</glyph>
<glyph name="colon" format="2">
  <advance width="594"/>
  <unicode hex="003A"/>
  <outline>
    <contour>
      <point x="291" y="-14" type="qcurve" smooth="yes"/>
      <point x="250" y="-14"/>
      <point x="191" y="45"/>
      <point x="191" y="86" type="qcurve" smooth="yes"/>
      <point x="191" y="127"/>
      <point x="250" y="187"/>
      <point x="292" y="187" type="qcurve" smooth="yes"/>
      <point x="333" y="187"/>
      <point x="393" y="127"/>
      <point x="393" y="86" type="qcurve" smooth="yes"/>
      <point x="393" y="44"/>
      <point x="333" y="-14"/>
    </contour>
    <contour>
      <point x="291" y="682" type="qcurve" smooth="yes"/>
      <point x="250" y="682"/>
      <point x="191" y="742"/>
      <point x="191" y="782" type="qcurve" smooth="yes"/>
      <point x="191" y="823"/>
      <point x="250" y="883"/>
      <point x="292" y="883" type="qcurve" smooth="yes"/>
      <point x="333" y="883"/>
      <point x="393" y="823"/>
      <point x="393" y="782" type="qcurve" smooth="yes"/>
      <point x="393" y="741"/>
      <point x="333" y="682"/>
    </contour>
  </outline>
</glyph>
<glyph name="equal" format="2">
  <advance width="1024"/>
  <unicode hex="003D"/>
  <outline>
    <contour>
      <point x="910" y="561" type="line"/>
      <point x="115" y="561" type="line"/>
      <point x="115" y="656" type="line"/>
      <point x="910" y="656" type="line"/>
    </contour>
    <contour>
      <point x="910" y="289" type="line"/>
      <point x="115" y="289" type="line"/>
      <point x="115" y="385" type="line"/>
      <point x="910" y="385" type="line"/>
    </contour>
  </outline>
</glyph>
<glyph name="closebracket" format="2">
  <advance width="682"/>
  <unicode hex="005B"/>
  <outline>
    <contour>
      <point x="106" y="-145" type="line"/>
      <point x="106" y="1282" type="line"/>
      <point x="551" y="1282" type="line"/>
      <point x="551" y="1188" type="line"/>
      <point x="250" y="1188" type="line"/>
      <point x="250" y="-51" type="line"/>
      <point x="551" y="-51" type="line"/>
      <point x="551" y="-145" type="line"/>
    </contour>
  </outline>
</glyph>
<glyph name="openbracket" format="2">
  <advance width="682"/>
  <unicode hex="005D"/>
  <outline>
    <contour>
      <point x="575" y="-145" type="line"/>
      <point x="131" y="-145" type="line"/>
      <point x="131" y="-51" type="line"/>
      <point x="431" y="-51" type="line"/>
      <point x="431" y="1188" type="line"/>
      <point x="131" y="1188" type="line"/>
      <point x="131" y="1282" type="line"/>
      <point x="575" y="1282" type="line"/>
    </contour>
  </outline>
</glyph>
<glyph name="sallalahoalaih" format="2">
  <advance width="2057"/>
  <unicode hex="005E"/>
  <outline>
    <contour>
      <point x="197" y="-182" type="qcurve"/>
      <point x="177" y="-149"/>
      <point x="177" y="-108" type="qcurve" smooth="yes"/>
      <point x="177" y="-63"/>
      <point x="246" y="24"/>
      <point x="282" y="24" type="qcurve" smooth="yes"/>
      <point x="290" y="24"/>
      <point x="304" y="16" type="qcurve" smooth="yes"/>
      <point x="335" y="-1"/>
      <point x="356" y="-1" type="qcurve" smooth="yes"/>
      <point x="387" y="-1"/>
      <point x="412" y="30" type="qcurve" smooth="yes"/>
      <point x="420" y="40" type="line"/>
      <point x="428" y="51" type="line" smooth="yes"/>
      <point x="435" y="61"/>
      <point x="453" y="95" type="qcurve" smooth="yes"/>
      <point x="465" y="118" type="line"/>
      <point x="466" y="121"/>
      <point x="473" y="132" type="qcurve"/>
      <point x="463" y="136"/>
      <point x="460" y="137" type="qcurve" smooth="yes"/>
      <point x="427" y="147" type="line" smooth="yes"/>
      <point x="322" y="182"/>
      <point x="295" y="299" type="qcurve" smooth="yes"/>
      <point x="289" y="328" type="line"/>
      <point x="285" y="348" type="line"/>
      <point x="284" y="350"/>
      <point x="282" y="359" type="qcurve"/>
      <point x="279" y="361" type="line"/>
      <point x="273" y="352" type="line" smooth="yes"/>
      <point x="205" y="259"/>
      <point x="126" y="259" type="qcurve" smooth="yes"/>
      <point x="83" y="259"/>
      <point x="5" y="287"/>
      <point x="5" y="303" type="qcurve" smooth="yes"/>
      <point x="5" y="341"/>
      <point x="142" y="460"/>
      <point x="221" y="491" type="qcurve" smooth="yes"/>
      <point x="249" y="502" type="line"/>
      <point x="258" y="505" type="line"/>
      <point x="260" y="506"/>
      <point x="265" y="507" type="qcurve"/>
      <point x="264" y="517"/>
      <point x="264" y="519" type="qcurve" smooth="yes"/>
      <point x="264" y="534" type="line" smooth="yes"/>
      <point x="264" y="536"/>
      <point x="262" y="543" type="qcurve"/>
      <point x="301" y="607" type="line"/>
      <point x="302" y="594"/>
      <point x="303" y="591" type="qcurve"/>
      <point x="305" y="566" type="line" smooth="yes"/>
      <point x="318" y="387"/>
      <point x="381" y="250"/>
      <point x="459" y="232" type="qcurve"/>
      <point x="456" y="253"/>
      <point x="456" y="256" type="qcurve"/>
      <point x="449" y="337" type="line" smooth="yes"/>
      <point x="446" y="362"/>
      <point x="440" y="419" type="qcurve" smooth="yes"/>
      <point x="435" y="465"/>
      <point x="433" y="498" type="qcurve"/>
      <point x="471" y="585" type="line"/>
      <point x="471" y="577"/>
      <point x="472" y="566" type="qcurve" smooth="yes"/>
      <point x="480" y="487" type="line"/>
      <point x="486" y="421" type="line"/>
      <point x="490" y="375" type="line"/>
      <point x="495" y="317" type="line"/>
      <point x="499" y="271" type="line" smooth="yes"/>
      <point x="502" y="243"/>
      <point x="505" y="222" type="qcurve"/>
      <point x="522" y="219"/>
      <point x="529" y="218" type="qcurve"/>
      <point x="585" y="214" type="line"/>
      <point x="672" y="208" type="line"/>
      <point x="718" y="209" type="line" smooth="yes"/>
      <point x="923" y="209"/>
      <point x="1058" y="291" type="qcurve"/>
      <point x="1063" y="299" type="line"/>
      <point x="1073" y="329" type="line" smooth="yes"/>
      <point x="1086" y="367"/>
      <point x="1098" y="367" type="qcurve" smooth="yes"/>
      <point x="1105" y="367"/>
      <point x="1105" y="352" type="qcurve" smooth="yes"/>
      <point x="1105" y="345"/>
      <point x="1103" y="337" type="qcurve"/>
      <point x="1101" y="322" type="line" smooth="yes"/>
      <point x="1099" y="307"/>
      <point x="1099" y="297" type="qcurve"/>
      <point x="1115" y="273"/>
      <point x="1192" y="228"/>
      <point x="1215" y="228" type="qcurve" smooth="yes"/>
      <point x="1268" y="228"/>
      <point x="1301" y="315" type="qcurve"/>
      <point x="1301" y="325"/>
      <point x="1301" y="327" type="qcurve"/>
      <point x="1297" y="365" type="line"/>
      <point x="1293" y="408" type="line"/>
      <point x="1288" y="460" type="line" smooth="yes"/>
      <point x="1287" y="471"/>
      <point x="1284" y="518" type="qcurve" smooth="yes"/>
      <point x="1279" y="576" type="line" smooth="yes"/>
      <point x="1277" y="612"/>
      <point x="1275" y="641" type="qcurve"/>
      <point x="1265" y="640"/>
      <point x="1260" y="640" type="qcurve" smooth="yes"/>
      <point x="1199" y="640"/>
      <point x="1107" y="725"/>
      <point x="1097" y="790" type="qcurve"/>
      <point x="1092" y="790" type="line"/>
      <point x="1090" y="782"/>
      <point x="1089" y="778" type="qcurve" smooth="yes"/>
      <point x="1059" y="663"/>
      <point x="1010" y="646" type="qcurve"/>
      <point x="1011" y="642" type="line"/>
      <point x="1022" y="642" type="line"/>
      <point x="1040" y="642" type="line"/>
      <point x="1063" y="642" type="line" smooth="yes"/>
      <point x="1101" y="642"/>
      <point x="1155" y="596"/>
      <point x="1155" y="564" type="qcurve" smooth="yes"/>
      <point x="1155" y="496"/>
      <point x="1082" y="454" type="qcurve" smooth="yes"/>
      <point x="1041" y="430" type="line" smooth="yes"/>
      <point x="900" y="348"/>
      <point x="782" y="348" type="qcurve" smooth="yes"/>
      <point x="686" y="348"/>
      <point x="572" y="447"/>
      <point x="572" y="528" type="qcurve" smooth="yes"/>
      <point x="572" y="587"/>
      <point x="604" y="665" type="qcurve"/>
      <point x="542" y="685"/>
      <point x="528" y="752" type="qcurve"/>
      <point x="524" y="751" type="line"/>
      <point x="518" y="740" type="line" smooth="yes"/>
      <point x="473" y="649"/>
      <point x="415" y="649" type="qcurve" smooth="yes"/>
      <point x="316" y="649"/>
      <point x="316" y="803" type="qcurve"/>
      <point x="307" y="797"/>
      <point x="306" y="795" type="qcurve"/>
      <point x="287" y="779" type="line" smooth="yes"/>
      <point x="274" y="767"/>
      <point x="271" y="764" type="qcurve" smooth="yes"/>
      <point x="251" y="742"/>
      <point x="195" y="742" type="qcurve" smooth="yes"/>
      <point x="84" y="742"/>
      <point x="84" y="779" type="qcurve" smooth="yes"/>
      <point x="84" y="809"/>
      <point x="131" y="871" type="qcurve" smooth="yes"/>
      <point x="148" y="893"/>
      <point x="211" y="923" type="qcurve" smooth="yes"/>
      <point x="243" y="938" type="line" smooth="yes"/>
      <point x="268" y="950"/>
      <point x="272" y="951" type="qcurve"/>
      <point x="299" y="962"/>
      <point x="313" y="973" type="qcurve"/>
      <point x="313" y="978"/>
      <point x="314" y="995" type="qcurve"/>
      <point x="349" y="1065" type="line"/>
      <point x="350" y="1052"/>
      <point x="350" y="1051" type="qcurve" smooth="yes"/>
      <point x="351" y="1013" type="line"/>
      <point x="352" y="979" type="line"/>
      <point x="354" y="936" type="line"/>
      <point x="355" y="888" type="line" smooth="yes"/>
      <point x="355" y="851"/>
      <point x="356" y="840" type="qcurve" smooth="yes"/>
      <point x="358" y="823" type="line"/>
      <point x="360" y="797" type="line" smooth="yes"/>
      <point x="366" y="736"/>
      <point x="419" y="736" type="qcurve" smooth="yes"/>
      <point x="477" y="736"/>
      <point x="506" y="783" type="qcurve" smooth="yes"/>
      <point x="512" y="793" type="line" smooth="yes"/>
      <point x="515" y="798"/>
      <point x="515" y="800" type="qcurve" smooth="yes"/>
      <point x="515" y="805" type="line"/>
      <point x="514" y="809"/>
      <point x="513" y="814" type="qcurve"/>
      <point x="507" y="855" type="line"/>
      <point x="497" y="921" type="line"/>
      <point x="488" y="989" type="line"/>
      <point x="483" y="1021" type="line"/>
      <point x="483" y="1026"/>
      <point x="482" y="1036" type="qcurve"/>
      <point x="520" y="1113" type="line"/>
      <point x="522" y="1101"/>
      <point x="522" y="1097" type="qcurve"/>
      <point x="530" y="1057" type="line"/>
      <point x="539" y="998" type="line"/>
      <point x="551" y="936" type="line" smooth="yes"/>
      <point x="557" y="901"/>
      <point x="561" y="871" type="qcurve" smooth="yes"/>
      <point x="567" y="826"/>
      <point x="570" y="812" type="qcurve" smooth="yes"/>
      <point x="575" y="792" type="line"/>
      <point x="576" y="787" type="line"/>
      <point x="591" y="745"/>
      <point x="645" y="745" type="qcurve" smooth="yes"/>
      <point x="689" y="745"/>
      <point x="691" y="770" type="qcurve"/>
      <point x="691" y="772" type="line" smooth="yes"/>
      <point x="691" y="804"/>
      <point x="669" y="876" type="qcurve" smooth="yes"/>
      <point x="652" y="935" type="line"/>
      <point x="636" y="990" type="line"/>
      <point x="623" y="1032" type="line"/>
      <point x="622" y="1037"/>
      <point x="617" y="1053" type="qcurve"/>
      <point x="643" y="1119" type="line"/>
      <point x="651" y="1090"/>
      <point x="673" y="1020" type="qcurve" smooth="yes"/>
      <point x="726" y="849"/>
      <point x="726" y="794" type="qcurve" smooth="yes"/>
      <point x="726" y="748"/>
      <point x="676" y="657"/>
      <point x="651" y="657" type="qcurve" smooth="yes"/>
      <point x="644" y="657"/>
      <point x="634" y="660" type="qcurve"/>
      <point x="621" y="625"/>
      <point x="621" y="582" type="qcurve" smooth="yes"/>
      <point x="621" y="512"/>
      <point x="719" y="431"/>
      <point x="805" y="431" type="qcurve" smooth="yes"/>
      <point x="958" y="431"/>
      <point x="1085" y="522" type="qcurve" smooth="yes"/>
      <point x="1095" y="529" type="line"/>
      <point x="1098" y="531" type="line"/>
      <point x="1099" y="532"/>
      <point x="1099" y="535" type="qcurve" smooth="yes"/>
      <point x="1099" y="549"/>
      <point x="988" y="564" type="qcurve" smooth="yes"/>
      <point x="940" y="570"/>
      <point x="935" y="571" type="qcurve" smooth="yes"/>
      <point x="912" y="575"/>
      <point x="909" y="575" type="qcurve"/>
      <point x="893" y="577"/>
      <point x="893" y="594" type="qcurve" smooth="yes"/>
      <point x="893" y="599"/>
      <point x="894" y="602" type="qcurve" smooth="yes"/>
      <point x="897" y="611" type="line"/>
      <point x="903" y="629" type="line" smooth="yes"/>
      <point x="908" y="643"/>
      <point x="924" y="659" type="qcurve"/>
      <point x="940" y="668"/>
      <point x="962" y="677" type="qcurve" smooth="yes"/>
      <point x="1019" y="700"/>
      <point x="1055" y="747"/>
      <point x="1055" y="798" type="qcurve" smooth="yes"/>
      <point x="1055" y="842"/>
      <point x="1054" y="868" type="qcurve" smooth="yes"/>
      <point x="1049" y="927" type="line"/>
      <point x="1043" y="1013" type="line"/>
      <point x="1034" y="1090" type="line"/>
      <point x="1026" y="1170" type="line" smooth="yes"/>
      <point x="1020" y="1234"/>
      <point x="1014" y="1266" type="qcurve"/>
      <point x="1050" y="1376" type="line"/>
      <point x="1054" y="1351"/>
      <point x="1054" y="1345" type="qcurve"/>
      <point x="1064" y="1252" type="line"/>
      <point x="1079" y="1132" type="line"/>
      <point x="1090" y="1046" type="line" smooth="yes"/>
      <point x="1111" y="870"/>
      <point x="1187" y="738"/>
      <point x="1272" y="727" type="qcurve"/>
      <point x="1268" y="761"/>
      <point x="1268" y="794" type="qcurve" smooth="yes"/>
      <point x="1268" y="818"/>
      <point x="1267" y="840" type="qcurve" smooth="yes"/>
      <point x="1264" y="882" type="line" smooth="yes"/>
      <point x="1263" y="902"/>
      <point x="1263" y="922" type="qcurve"/>
      <point x="1305" y="1011" type="line"/>
      <point x="1311" y="956"/>
      <point x="1311" y="941" type="qcurve" smooth="yes"/>
      <point x="1314" y="873" type="line" smooth="yes"/>
      <point x="1314" y="870"/>
      <point x="1318" y="797" type="qcurve"/>
      <point x="1320" y="779"/>
      <point x="1321" y="749" type="qcurve" smooth="yes"/>
      <point x="1322" y="729" type="line"/>
      <point x="1370" y="743"/>
      <point x="1432" y="791" type="qcurve" smooth="yes"/>
      <point x="1444" y="801" type="line"/>
      <point x="1452" y="795"/>
      <point x="1455" y="792" type="qcurve"/>
      <point x="1529" y="733"/>
      <point x="1584" y="728" type="qcurve"/>
      <point x="1664" y="805"/>
      <point x="1827" y="916"/>
      <point x="1860" y="916" type="qcurve" smooth="yes"/>
      <point x="1899" y="916"/>
      <point x="1995" y="851"/>
      <point x="1995" y="825" type="qcurve" smooth="yes"/>
      <point x="1995" y="793"/>
      <point x="1933" y="697"/>
      <point x="1902" y="680" type="qcurve" smooth="yes"/>
      <point x="1816" y="634"/>
      <point x="1638" y="634" type="qcurve" smooth="yes"/>
      <point x="1603" y="634"/>
      <point x="1567" y="640" type="qcurve"/>
      <point x="1517" y="545"/>
      <point x="1490" y="545" type="qcurve" smooth="yes"/>
      <point x="1482" y="545"/>
      <point x="1482" y="558" type="qcurve" smooth="yes"/>
      <point x="1482" y="578"/>
      <point x="1504" y="615" type="qcurve" smooth="yes"/>
      <point x="1518" y="639" type="line"/>
      <point x="1520" y="643"/>
      <point x="1526" y="652" type="qcurve"/>
      <point x="1514" y="656"/>
      <point x="1512" y="657" type="qcurve" smooth="yes"/>
      <point x="1490" y="667" type="line" smooth="yes"/>
      <point x="1449" y="686"/>
      <point x="1428" y="704" type="qcurve"/>
      <point x="1418" y="697" type="line" smooth="yes"/>
      <point x="1399" y="685"/>
      <point x="1393" y="682" type="qcurve" smooth="yes"/>
      <point x="1366" y="667" type="line" smooth="yes"/>
      <point x="1341" y="653"/>
      <point x="1327" y="653" type="qcurve"/>
      <point x="1327" y="635"/>
      <point x="1327" y="627" type="qcurve"/>
      <point x="1330" y="579" type="line"/>
      <point x="1333" y="520" type="line" smooth="yes"/>
      <point x="1345" y="341"/>
      <point x="1431" y="219"/>
      <point x="1550" y="213" type="qcurve"/>
      <point x="1551" y="218" type="line"/>
      <point x="1511" y="245"/>
      <point x="1511" y="304" type="qcurve" smooth="yes"/>
      <point x="1511" y="385"/>
      <point x="1629" y="524"/>
      <point x="1697" y="524" type="qcurve" smooth="yes"/>
      <point x="1744" y="524"/>
      <point x="1846" y="470"/>
      <point x="1852" y="440" type="qcurve"/>
      <point x="1853" y="433" type="line"/>
      <point x="1853" y="431"/>
      <point x="1854" y="427" type="qcurve"/>
      <point x="1804" y="446"/>
      <point x="1750" y="446" type="qcurve" smooth="yes"/>
      <point x="1682" y="446"/>
      <point x="1565" y="394"/>
      <point x="1565" y="363" type="qcurve" smooth="yes"/>
      <point x="1565" y="332"/>
      <point x="1674" y="223"/>
      <point x="1705" y="223" type="qcurve" smooth="yes"/>
      <point x="1708" y="223"/>
      <point x="1714" y="225" type="qcurve"/>
      <point x="1716" y="225"/>
      <point x="1731" y="229" type="qcurve" smooth="yes"/>
      <point x="1894" y="267"/>
      <point x="1977" y="310" type="qcurve"/>
      <point x="1944" y="236" type="line"/>
      <point x="1732" y="128"/>
      <point x="1560" y="128" type="qcurve" smooth="yes"/>
      <point x="1375" y="128"/>
      <point x="1318" y="265" type="qcurve" smooth="yes"/>
      <point x="1313" y="276" type="line"/>
      <point x="1257" y="144"/>
      <point x="1198" y="144" type="qcurve" smooth="yes"/>
      <point x="1138" y="144"/>
      <point x="1064" y="233" type="qcurve"/>
      <point x="916" y="118"/>
      <point x="679" y="118" type="qcurve" smooth="yes"/>
      <point x="585" y="118"/>
      <point x="520" y="129" type="qcurve"/>
      <point x="522" y="121"/>
      <point x="522" y="116" type="qcurve"/>
      <point x="525" y="92" type="line" smooth="yes"/>
      <point x="541" y="-27"/>
      <point x="580" y="-74" type="qcurve" smooth="yes"/>
      <point x="612" y="-113"/>
      <point x="819" y="-166"/>
      <point x="940" y="-166" type="qcurve" smooth="yes"/>
      <point x="1159" y="-166"/>
      <point x="1277" y="-104" type="qcurve"/>
      <point x="1307" y="-27"/>
      <point x="1333" y="-27" type="qcurve" smooth="yes"/>
      <point x="1342" y="-27"/>
      <point x="1342" y="-43" type="qcurve" smooth="yes"/>
      <point x="1342" y="-72"/>
      <point x="1326" y="-111" type="qcurve" smooth="yes"/>
      <point x="1321" y="-123"/>
      <point x="1319" y="-132" type="qcurve"/>
      <point x="1329" y="-159"/>
      <point x="1373" y="-159" type="qcurve" smooth="yes"/>
      <point x="1436" y="-159"/>
      <point x="1473" y="-133" type="qcurve"/>
      <point x="1478" y="-122"/>
      <point x="1478" y="-121" type="qcurve"/>
      <point x="1492" y="-83" type="line" smooth="yes"/>
      <point x="1519" y="-9"/>
      <point x="1539" y="-2" type="qcurve"/>
      <point x="1541" y="-2" type="line" smooth="yes"/>
      <point x="1548" y="-2"/>
      <point x="1548" y="-15" type="qcurve"/>
      <point x="1549" y="-29" type="line"/>
      <point x="1549" y="-54"/>
      <point x="1536" y="-91" type="qcurve"/>
      <point x="1531" y="-103" type="line"/>
      <point x="1529" y="-109" type="line"/>
      <point x="1577" y="-137"/>
      <point x="1620" y="-137" type="qcurve" smooth="yes"/>
      <point x="1635" y="-137"/>
      <point x="1635" y="-123" type="qcurve" smooth="yes"/>
      <point x="1635" y="-107"/>
      <point x="1625" y="-76" type="qcurve" smooth="yes"/>
      <point x="1621" y="-64"/>
      <point x="1618" y="-51" type="qcurve"/>
      <point x="1652" y="21" type="line"/>
      <point x="1678" y="-46"/>
      <point x="1678" y="-89" type="qcurve" smooth="yes"/>
      <point x="1678" y="-148"/>
      <point x="1627" y="-220"/>
      <point x="1585" y="-220" type="qcurve" smooth="yes"/>
      <point x="1551" y="-220"/>
      <point x="1504" y="-191" type="qcurve"/>
      <point x="1500" y="-188"/>
      <point x="1490" y="-182" type="qcurve"/>
      <point x="1446" y="-236"/>
      <point x="1372" y="-236" type="qcurve" smooth="yes"/>
      <point x="1278" y="-236"/>
      <point x="1272" y="-182" type="qcurve"/>
      <point x="1151" y="-253"/>
      <point x="902" y="-253" type="qcurve" smooth="yes"/>
      <point x="682" y="-253"/>
      <point x="495" y="-120"/>
      <point x="484" y="44" type="qcurve" smooth="yes"/>
      <point x="483" y="61" type="line"/>
      <point x="418" y="-44"/>
      <point x="389" y="-59" type="qcurve"/>
      <point x="412" y="-109"/>
      <point x="412" y="-141" type="qcurve" smooth="yes"/>
      <point x="412" y="-185"/>
      <point x="368" y="-244"/>
      <point x="335" y="-244" type="qcurve" smooth="yes"/>
      <point x="306" y="-244"/>
      <point x="282" y="-232" type="qcurve" smooth="yes"/>
      <point x="240" y="-212" type="line" smooth="yes"/>
      <point x="220" y="-203"/>
      <point x="213" y="-196" type="qcurve"/>
      <point x="157" y="-301"/>
      <point x="78" y="-301" type="qcurve" smooth="yes"/>
      <point x="57" y="-301"/>
      <point x="45" y="-304" type="qcurve"/>
      <point x="36" y="-307" type="line"/>
      <point x="29" y="-309" type="line"/>
      <point x="12" y="-314" type="line"/>
      <point x="11" y="-314"/>
      <point x="9" y="-314" type="qcurve" smooth="yes"/>
      <point x="7" y="-314" type="line"/>
      <point x="2" y="-313"/>
      <point x="1" y="-309" type="qcurve"/>
      <point x="0" y="-306" type="line"/>
      <point x="0" y="-304" type="line"/>
      <point x="3" y="-294"/>
      <point x="27" y="-284" type="qcurve" smooth="yes"/>
      <point x="61" y="-271"/>
      <point x="74" y="-264" type="qcurve"/>
      <point x="98" y="-253" type="line" smooth="yes"/>
      <point x="116" y="-244"/>
      <point x="129" y="-234" type="qcurve" smooth="yes"/>
      <point x="146" y="-222" type="line"/>
      <point x="162" y="-209" type="line"/>
      <point x="164" y="-207"/>
      <point x="180" y="-196" type="qcurve"/>
      <point x="189" y="-189"/>
    </contour>
    <contour>
      <point x="364" y="-146" type="qcurve" smooth="yes"/>
      <point x="364" y="-116"/>
      <point x="281" y="-48"/>
      <point x="244" y="-48" type="qcurve" smooth="yes"/>
      <point x="218" y="-48"/>
      <point x="218" y="-72" type="qcurve" smooth="yes"/>
      <point x="218" y="-96"/>
      <point x="310" y="-157"/>
      <point x="347" y="-157" type="qcurve" smooth="yes"/>
      <point x="349" y="-157"/>
      <point x="353" y="-157" type="qcurve" smooth="yes"/>
      <point x="364" y="-157"/>
    </contour>
    <contour>
      <point x="276" y="390" type="qcurve"/>
      <point x="270" y="465" type="line"/>
      <point x="210" y="443"/>
      <point x="94" y="376"/>
      <point x="94" y="362" type="qcurve" smooth="yes"/>
      <point x="94" y="359"/>
      <point x="96" y="357" type="qcurve"/>
      <point x="101" y="354" type="line"/>
      <point x="107" y="349" type="line" smooth="yes"/>
      <point x="116" y="341"/>
      <point x="148" y="341" type="qcurve" smooth="yes"/>
      <point x="225" y="341"/>
    </contour>
    <contour>
      <point x="314" y="841" type="qcurve"/>
      <point x="312" y="921" type="line"/>
      <point x="302" y="918"/>
      <point x="300" y="917" type="qcurve" smooth="yes"/>
      <point x="270" y="903" type="line"/>
      <point x="228" y="886" type="line" smooth="yes"/>
      <point x="160" y="857"/>
      <point x="160" y="837" type="qcurve" smooth="yes"/>
      <point x="160" y="816"/>
      <point x="216" y="816" type="qcurve" smooth="yes"/>
      <point x="260" y="816"/>
    </contour>
    <contour>
      <point x="418" y="1327" type="line"/>
      <point x="417" y="1311"/>
      <point x="417" y="1303" type="qcurve" smooth="yes"/>
      <point x="417" y="1253"/>
      <point x="449" y="1253" type="qcurve" smooth="yes"/>
      <point x="473" y="1253"/>
      <point x="489" y="1284" type="qcurve"/>
      <point x="488" y="1293"/>
      <point x="487" y="1296" type="qcurve"/>
      <point x="486" y="1314" type="line"/>
      <point x="485" y="1318"/>
      <point x="484" y="1330" type="qcurve"/>
      <point x="503" y="1356" type="line"/>
      <point x="506" y="1334"/>
      <point x="509" y="1312" type="qcurve" smooth="yes"/>
      <point x="511" y="1299" type="line" smooth="yes"/>
      <point x="517" y="1265"/>
      <point x="542" y="1265" type="qcurve" smooth="yes"/>
      <point x="564" y="1265"/>
      <point x="564" y="1287" type="qcurve"/>
      <point x="563" y="1296" type="line"/>
      <point x="561" y="1314" type="line"/>
      <point x="558" y="1332" type="line"/>
      <point x="558" y="1334"/>
      <point x="557" y="1340" type="qcurve"/>
      <point x="571" y="1361" type="line"/>
      <point x="586" y="1319"/>
      <point x="586" y="1284" type="qcurve" smooth="yes"/>
      <point x="586" y="1219"/>
      <point x="541" y="1219" type="qcurve" smooth="yes"/>
      <point x="522" y="1219"/>
      <point x="501" y="1235" type="qcurve"/>
      <point x="462" y="1205"/>
      <point x="447" y="1205" type="qcurve" smooth="yes"/>
      <point x="397" y="1205"/>
      <point x="397" y="1258" type="qcurve" smooth="yes"/>
      <point x="397" y="1286"/>
      <point x="403" y="1314" type="qcurve"/>
    </contour>
    <contour>
      <point x="862" y="1297" type="line"/>
      <point x="869" y="1240"/>
      <point x="873" y="1174" type="qcurve" smooth="yes"/>
      <point x="879" y="1088" type="line"/>
      <point x="886" y="1002" type="line"/>
      <point x="891" y="910" type="line"/>
      <point x="896" y="856" type="line"/>
      <point x="896" y="853"/>
      <point x="897" y="841" type="qcurve"/>
      <point x="895" y="819" type="line" smooth="yes"/>
      <point x="887" y="708"/>
      <point x="869" y="693" type="qcurve"/>
      <point x="868" y="708"/>
      <point x="868" y="711" type="qcurve"/>
      <point x="861" y="770" type="line"/>
      <point x="853" y="849" type="line"/>
      <point x="843" y="938" type="line"/>
      <point x="834" y="1028" type="line"/>
      <point x="824" y="1131" type="line"/>
      <point x="819" y="1186" type="line"/>
    </contour>
    <contour>
      <point x="1177" y="1127" type="line"/>
      <point x="1184" y="1177" type="line"/>
      <point x="1584" y="1365" type="line"/>
      <point x="1574" y="1319" type="line"/>
    </contour>
    <contour>
      <point x="1504" y="904" type="line"/>
      <point x="1437" y="930"/>
      <point x="1437" y="988" type="qcurve" smooth="yes"/>
      <point x="1437" y="1046"/>
      <point x="1491" y="1077" type="qcurve" smooth="yes"/>
      <point x="1544" y="1107" type="line" smooth="yes"/>
      <point x="1703" y="1199"/>
      <point x="1916" y="1283" type="qcurve"/>
      <point x="1899" y="1232" type="line"/>
      <point x="1875" y="1223" type="line" smooth="yes"/>
      <point x="1718" y="1161"/>
      <point x="1469" y="1025"/>
      <point x="1469" y="1002" type="qcurve" smooth="yes"/>
      <point x="1469" y="986"/>
      <point x="1515" y="956" type="qcurve" smooth="yes"/>
      <point x="1521" y="952" type="line"/>
    </contour>
    <contour>
      <point x="1632" y="718" type="qcurve"/>
      <point x="1659" y="716"/>
      <point x="1674" y="716" type="qcurve" smooth="yes"/>
      <point x="1767" y="716"/>
      <point x="1929" y="755"/>
      <point x="1937" y="780" type="qcurve"/>
      <point x="1938" y="785" type="line"/>
      <point x="1937" y="798"/>
      <point x="1867" y="837"/>
      <point x="1844" y="837" type="qcurve" smooth="yes"/>
      <point x="1814" y="837"/>
      <point x="1675" y="759"/>
    </contour>
    <contour>
      <point x="845" y="16" type="line"/>
      <point x="902" y="86" type="line"/>
      <point x="998" y="15" type="line"/>
      <point x="1053" y="82" type="line"/>
      <point x="1152" y="6" type="line"/>
      <point x="1099" y="-57" type="line"/>
      <point x="1001" y="14" type="line"/>
      <point x="945" y="-57" type="line"/>
    </contour>
    <contour>
      <point x="1941" y="-140" type="qcurve"/>
      <point x="1927" y="-96" type="line"/>
      <point x="1889" y="-150"/>
      <point x="1852" y="-150" type="qcurve" smooth="yes"/>
      <point x="1824" y="-150"/>
      <point x="1780" y="-95"/>
      <point x="1780" y="-60" type="qcurve" smooth="yes"/>
      <point x="1780" y="-11"/>
      <point x="1843" y="107"/>
      <point x="1869" y="107" type="qcurve" smooth="yes"/>
      <point x="1901" y="107"/>
      <point x="1976" y="-10"/>
      <point x="1976" y="-60" type="qcurve" smooth="yes"/>
      <point x="1976" y="-178"/>
      <point x="1805" y="-414"/>
      <point x="1719" y="-414" type="qcurve" smooth="yes"/>
      <point x="1680" y="-414"/>
      <point x="1535" y="-355"/>
      <point x="1524" y="-335" type="qcurve"/>
      <point x="1524" y="-332" type="line"/>
      <point x="1524" y="-330" type="line"/>
      <point x="1527" y="-325"/>
      <point x="1534" y="-325" type="qcurve" smooth="yes"/>
      <point x="1537" y="-325" type="line"/>
      <point x="1544" y="-327"/>
      <point x="1556" y="-331" type="qcurve" smooth="yes"/>
      <point x="1576" y="-337" type="line"/>
      <point x="1612" y="-349" type="line"/>
      <point x="1638" y="-356"/>
      <point x="1663" y="-356" type="qcurve" smooth="yes"/>
      <point x="1794" y="-356"/>
    </contour>
    <contour>
      <point x="1825" y="-35" type="qcurve"/>
      <point x="1839" y="-69"/>
      <point x="1888" y="-69" type="qcurve" smooth="yes"/>
      <point x="1909" y="-69"/>
      <point x="1917" y="-48" type="qcurve"/>
      <point x="1903" y="17"/>
      <point x="1864" y="17" type="qcurve" smooth="yes"/>
      <point x="1834" y="17"/>
    </contour>
    <contour>
      <point x="1144" y="-364" type="qcurve"/>
      <point x="1152" y="-372"/>
      <point x="1160" y="-372" type="qcurve" smooth="yes"/>
      <point x="1191" y="-372"/>
      <point x="1191" y="-345" type="qcurve" smooth="yes"/>
      <point x="1191" y="-317"/>
      <point x="1212" y="-314" type="qcurve"/>
      <point x="1211" y="-331" type="line"/>
      <point x="1211" y="-337"/>
      <point x="1212" y="-347" type="qcurve"/>
      <point x="1212" y="-354"/>
      <point x="1212" y="-358" type="qcurve" smooth="yes"/>
      <point x="1212" y="-403"/>
      <point x="1160" y="-403" type="qcurve" smooth="yes"/>
      <point x="1145" y="-403"/>
      <point x="1129" y="-394" type="qcurve"/>
      <point x="1099" y="-427"/>
      <point x="1068" y="-427" type="qcurve" smooth="yes"/>
      <point x="1052" y="-427"/>
      <point x="1038" y="-412" type="qcurve" smooth="yes"/>
      <point x="1026" y="-399" type="line" smooth="yes"/>
      <point x="1019" y="-391"/>
      <point x="1009" y="-391" type="qcurve" smooth="yes"/>
      <point x="994" y="-391"/>
      <point x="950" y="-418" type="qcurve" smooth="yes"/>
      <point x="879" y="-463"/>
      <point x="807" y="-463" type="qcurve" smooth="yes"/>
      <point x="798" y="-463" type="line"/>
      <point x="774" y="-463" type="line" smooth="yes"/>
      <point x="704" y="-463"/>
      <point x="704" y="-446" type="qcurve" smooth="yes"/>
      <point x="704" y="-431"/>
      <point x="772" y="-431" type="qcurve" smooth="yes"/>
      <point x="812" y="-431" type="line" smooth="yes"/>
      <point x="875" y="-431"/>
      <point x="934" y="-395" type="qcurve" smooth="yes"/>
      <point x="996" y="-357"/>
      <point x="1016" y="-357" type="qcurve" smooth="yes"/>
      <point x="1037" y="-357"/>
      <point x="1064" y="-382" type="qcurve"/>
      <point x="1072" y="-388"/>
      <point x="1075" y="-389" type="qcurve"/>
      <point x="1083" y="-389" type="line" smooth="yes"/>
      <point x="1114" y="-388"/>
      <point x="1115" y="-362" type="qcurve"/>
      <point x="1116" y="-354" type="line"/>
      <point x="1117" y="-340"/>
      <point x="1134" y="-329" type="qcurve"/>
      <point x="1139" y="-327" type="line"/>
      <point x="1146" y="-328"/>
      <point x="1146" y="-340" type="qcurve" smooth="yes"/>
      <point x="1146" y="-344"/>
      <point x="1145" y="-350" type="qcurve" smooth="yes"/>
      <point x="1144" y="-355"/>
      <point x="1144" y="-360" type="qcurve" smooth="yes"/>
      <point x="1144" y="-361"/>
    </contour>
  </outline>
</glyph>
<glyph name="cent" format="2">
  <advance width="1024"/>
  <unicode hex="00A2"/>
  <outline>
    <contour>
      <point x="547" y="-88" type="line"/>
      <point x="657" y="-88" type="line"/>
      <point x="657" y="-10" type="line"/>
      <point x="682" y="-4"/>
      <point x="741" y="34"/>
      <point x="797" y="81"/>
      <point x="845" y="129"/>
      <point x="858" y="145" type="qcurve"/>
      <point x="858" y="188" type="line"/>
      <point x="840" y="177"/>
      <point x="791" y="151"/>
      <point x="741" y="129"/>
      <point x="695" y="113"/>
      <point x="680" y="113" type="qcurve" smooth="yes"/>
      <point x="657" y="113" type="line"/>
      <point x="657" y="1053" type="line"/>
      <point x="673" y="1047"/>
      <point x="714" y="1018"/>
      <point x="754" y="979"/>
      <point x="792" y="935"/>
      <point x="805" y="915" type="qcurve"/>
      <point x="858" y="1094" type="line"/>
      <point x="843" y="1107"/>
      <point x="798" y="1134"/>
      <point x="744" y="1156"/>
      <point x="685" y="1171"/>
      <point x="657" y="1171" type="qcurve"/>
      <point x="657" y="1266" type="line"/>
      <point x="547" y="1266" type="line"/>
      <point x="547" y="1167" type="line"/>
      <point x="475" y="1153"/>
      <point x="347" y="1076"/>
      <point x="251" y="922"/>
      <point x="195" y="677"/>
      <point x="195" y="496" type="qcurve" smooth="yes"/>
      <point x="195" y="238"/>
      <point x="380" y="-27"/>
      <point x="547" y="-27" type="qcurve"/>
    </contour>
    <contour>
      <point x="547" y="119" type="line"/>
      <point x="517" y="129"/>
      <point x="459" y="186"/>
      <point x="414" y="283"/>
      <point x="387" y="422"/>
      <point x="387" y="516" type="qcurve" smooth="yes"/>
      <point x="387" y="626"/>
      <point x="417" y="811"/>
      <point x="464" y="949"/>
      <point x="521" y="1035"/>
      <point x="547" y="1047" type="qcurve"/>
    </contour>
  </outline>
</glyph>
<glyph name="closechevron" format="2">
  <advance width="682"/>
  <unicode hex="00AB"/>
  <outline>
    <contour>
      <point x="289" y="980" type="qcurve"/>
      <point x="323" y="961" type="line"/>
      <point x="229" y="790"/>
      <point x="229" y="574" type="qcurve" smooth="yes"/>
      <point x="229" y="475"/>
      <point x="287" y="249"/>
      <point x="332" y="176" type="qcurve"/>
      <point x="304" y="156" type="line"/>
      <point x="131" y="299"/>
      <point x="131" y="572" type="qcurve" smooth="yes"/>
      <point x="131" y="829"/>
    </contour>
    <contour>
      <point x="487" y="980" type="qcurve"/>
      <point x="522" y="961" type="line"/>
      <point x="427" y="790"/>
      <point x="427" y="574" type="qcurve" smooth="yes"/>
      <point x="427" y="475"/>
      <point x="486" y="249"/>
      <point x="530" y="176" type="qcurve"/>
      <point x="502" y="156" type="line"/>
      <point x="329" y="299"/>
      <point x="329" y="572" type="qcurve" smooth="yes"/>
      <point x="329" y="829"/>
    </contour>
  </outline>
</glyph>
<glyph name="degree" format="2">
  <advance width="469"/>
  <unicode hex="00B0"/>
  <outline>
    <contour>
      <point x="357" y="986" type="qcurve" smooth="yes"/>
      <point x="357" y="1038"/>
      <point x="286" y="1109"/>
      <point x="235" y="1109" type="qcurve" smooth="yes"/>
      <point x="185" y="1109"/>
      <point x="113" y="1038"/>
      <point x="113" y="987" type="qcurve" smooth="yes"/>
      <point x="113" y="937"/>
      <point x="185" y="865"/>
      <point x="235" y="865" type="qcurve" smooth="yes"/>
      <point x="285" y="865"/>
      <point x="357" y="937"/>
    </contour>
    <contour>
      <point x="422" y="985" type="qcurve" smooth="yes"/>
      <point x="422" y="909"/>
      <point x="311" y="800"/>
      <point x="235" y="800" type="qcurve" smooth="yes"/>
      <point x="157" y="800"/>
      <point x="47" y="910"/>
      <point x="47" y="988" type="qcurve" smooth="yes"/>
      <point x="47" y="1064"/>
      <point x="157" y="1175"/>
      <point x="234" y="1175" type="qcurve" smooth="yes"/>
      <point x="313" y="1175"/>
      <point x="422" y="1065"/>
    </contour>
  </outline>
</glyph>
<glyph name="openchevron" format="2">
  <advance width="682"/>
  <unicode hex="00BB"/>
  <outline>
    <contour>
      <point x="393" y="980" type="line"/>
      <point x="551" y="829"/>
      <point x="551" y="572" type="qcurve" smooth="yes"/>
      <point x="551" y="299"/>
      <point x="378" y="156" type="qcurve"/>
      <point x="350" y="176" type="line"/>
      <point x="394" y="249"/>
      <point x="453" y="475"/>
      <point x="453" y="574" type="qcurve" smooth="yes"/>
      <point x="453" y="790"/>
      <point x="358" y="961" type="qcurve"/>
    </contour>
    <contour>
      <point x="195" y="980" type="line"/>
      <point x="353" y="829"/>
      <point x="353" y="572" type="qcurve" smooth="yes"/>
      <point x="353" y="299"/>
      <point x="180" y="156" type="qcurve"/>
      <point x="152" y="176" type="line"/>
      <point x="196" y="249"/>
      <point x="255" y="475"/>
      <point x="255" y="574" type="qcurve" smooth="yes"/>
      <point x="255" y="790"/>
      <point x="160" y="961" type="qcurve"/>
    </contour>
  </outline>
</glyph>
<glyph name="multiply" format="2">
  <advance width="1024"/>
  <unicode hex="00D7"/>
  <outline>
    <contour>
      <point x="866" y="898" type="line"/>
      <point x="930" y="833" type="line"/>
      <point x="582" y="484" type="line"/>
      <point x="930" y="137" type="line"/>
      <point x="864" y="69" type="line"/>
      <point x="514" y="415" type="line"/>
      <point x="163" y="69" type="line"/>
      <point x="97" y="134" type="line"/>
      <point x="445" y="483" type="line"/>
      <point x="94" y="831" type="line"/>
      <point x="163" y="898" type="line"/>
      <point x="514" y="551" type="line"/>
    </contour>
  </outline>
</glyph>
<glyph name="divide" format="2">
  <advance width="1024"/>
  <unicode hex="00F7"/>
  <outline>
    <contour>
      <point x="910" y="429" type="line"/>
      <point x="115" y="429" type="line"/>
      <point x="115" y="525" type="line"/>
      <point x="910" y="525" type="line"/>
    </contour>
    <contour>
      <point x="611" y="204" type="qcurve" smooth="yes"/>
      <point x="611" y="164"/>
      <point x="553" y="106"/>
      <point x="512" y="106" type="qcurve" smooth="yes"/>
      <point x="471" y="106"/>
      <point x="413" y="164"/>
      <point x="413" y="205" type="qcurve" smooth="yes"/>
      <point x="413" y="246"/>
      <point x="471" y="304"/>
      <point x="512" y="304" type="qcurve" smooth="yes"/>
      <point x="554" y="304"/>
      <point x="611" y="246"/>
    </contour>
    <contour>
      <point x="611" y="752" type="qcurve" smooth="yes"/>
      <point x="611" y="712"/>
      <point x="553" y="655"/>
      <point x="512" y="655" type="qcurve" smooth="yes"/>
      <point x="471" y="655"/>
      <point x="413" y="713"/>
      <point x="413" y="754" type="qcurve" smooth="yes"/>
      <point x="413" y="794"/>
      <point x="471" y="853"/>
      <point x="512" y="853" type="qcurve" smooth="yes"/>
      <point x="554" y="853"/>
      <point x="611" y="794"/>
    </contour>
  </outline>
</glyph>
<glyph name="comma" format="2">
  <advance width="594"/>
  <unicode hex="060C"/>
  <outline>
    <contour>
      <point x="277" y="206" type="qcurve"/>
      <point x="324" y="243"/>
      <point x="363" y="243" type="qcurve" smooth="yes"/>
      <point x="415" y="243"/>
      <point x="485" y="169"/>
      <point x="485" y="116" type="qcurve" smooth="yes"/>
      <point x="485" y="59"/>
      <point x="410" y="-14"/>
      <point x="352" y="-14" type="qcurve" smooth="yes"/>
      <point x="270" y="-14"/>
      <point x="143" y="152"/>
      <point x="143" y="261" type="qcurve" smooth="yes"/>
      <point x="143" y="400"/>
      <point x="250" y="538" type="qcurve" smooth="yes"/>
      <point x="305" y="609"/>
      <point x="334" y="609" type="qcurve" smooth="yes"/>
      <point x="356" y="609"/>
      <point x="356" y="586" type="qcurve" smooth="yes"/>
      <point x="356" y="579"/>
      <point x="351" y="573" type="qcurve" smooth="yes"/>
      <point x="333" y="553" type="line"/>
      <point x="327" y="548"/>
      <point x="316" y="533" type="qcurve" smooth="yes"/>
      <point x="298" y="507" type="line" smooth="yes"/>
      <point x="236" y="425"/>
      <point x="236" y="341" type="qcurve" smooth="yes"/>
      <point x="236" y="276"/>
    </contour>
  </outline>
</glyph>
<glyph name="semicolon" format="2">
  <advance width="594"/>
  <unicode hex="061B"/>
  <outline>
    <contour>
      <point x="322" y="-14" type="qcurve" smooth="yes"/>
      <point x="281" y="-14"/>
      <point x="222" y="45"/>
      <point x="222" y="86" type="qcurve" smooth="yes"/>
      <point x="222" y="127"/>
      <point x="281" y="187"/>
      <point x="323" y="187" type="qcurve" smooth="yes"/>
      <point x="364" y="187"/>
      <point x="424" y="127"/>
      <point x="424" y="86" type="qcurve" smooth="yes"/>
      <point x="424" y="44"/>
      <point x="364" y="-14"/>
    </contour>
    <contour>
      <point x="263" y="536" type="qcurve"/>
      <point x="310" y="573"/>
      <point x="350" y="573" type="qcurve" smooth="yes"/>
      <point x="401" y="573"/>
      <point x="471" y="499"/>
      <point x="471" y="445" type="qcurve" smooth="yes"/>
      <point x="471" y="389"/>
      <point x="396" y="315"/>
      <point x="338" y="315" type="qcurve" smooth="yes"/>
      <point x="256" y="315"/>
      <point x="129" y="482"/>
      <point x="129" y="590" type="qcurve" smooth="yes"/>
      <point x="129" y="729"/>
      <point x="236" y="867" type="qcurve" smooth="yes"/>
      <point x="291" y="938"/>
      <point x="320" y="938" type="qcurve" smooth="yes"/>
      <point x="342" y="938"/>
      <point x="342" y="916" type="qcurve" smooth="yes"/>
      <point x="342" y="909"/>
      <point x="337" y="903" type="qcurve" smooth="yes"/>
      <point x="319" y="883" type="line" smooth="yes"/>
      <point x="314" y="877"/>
      <point x="303" y="862" type="qcurve" smooth="yes"/>
      <point x="284" y="837" type="line" smooth="yes"/>
      <point x="223" y="754"/>
      <point x="223" y="671" type="qcurve" smooth="yes"/>
      <point x="223" y="606"/>
    </contour>
  </outline>
</glyph>
<glyph name="question" format="2">
  <advance width="888"/>
  <unicode hex="061F"/>
  <outline>
    <contour>
      <point x="452" y="298" type="line"/>
      <point x="469" y="339"/>
      <point x="469" y="380" type="qcurve" smooth="yes"/>
      <point x="469" y="427"/>
      <point x="421" y="507"/>
      <point x="353" y="574" type="qcurve" smooth="yes"/>
      <point x="236" y="687"/>
      <point x="156" y="823"/>
      <point x="156" y="909" type="qcurve" smooth="yes"/>
      <point x="156" y="1055"/>
      <point x="349" y="1266"/>
      <point x="482" y="1266" type="qcurve" smooth="yes"/>
      <point x="588" y="1266"/>
      <point x="759" y="1107"/>
      <point x="759" y="1009" type="qcurve" smooth="yes"/>
      <point x="759" y="935"/>
      <point x="666" y="820"/>
      <point x="607" y="820" type="qcurve" smooth="yes"/>
      <point x="564" y="820"/>
      <point x="509" y="876"/>
      <point x="509" y="921" type="qcurve" smooth="yes"/>
      <point x="509" y="966"/>
      <point x="569" y="1027"/>
      <point x="614" y="1027" type="qcurve" smooth="yes"/>
      <point x="640" y="1027"/>
      <point x="667" y="1017" type="qcurve"/>
      <point x="680" y="1013"/>
      <point x="688" y="1013" type="qcurve" smooth="yes"/>
      <point x="701" y="1013"/>
      <point x="701" y="1031" type="qcurve" smooth="yes"/>
      <point x="701" y="1086"/>
      <point x="573" y="1196"/>
      <point x="509" y="1196" type="qcurve" smooth="yes"/>
      <point x="427" y="1196"/>
      <point x="323" y="1086"/>
      <point x="323" y="998" type="qcurve" smooth="yes"/>
      <point x="323" y="945"/>
      <point x="360" y="854"/>
      <point x="420" y="759" type="qcurve" smooth="yes"/>
      <point x="488" y="650"/>
      <point x="536" y="527"/>
      <point x="536" y="459" type="qcurve" smooth="yes"/>
      <point x="536" y="369"/>
      <point x="507" y="287" type="qcurve"/>
    </contour>
    <contour>
      <point x="569" y="86" type="qcurve" smooth="yes"/>
      <point x="569" y="45"/>
      <point x="511" y="-12"/>
      <point x="470" y="-12" type="qcurve" smooth="yes"/>
      <point x="430" y="-12"/>
      <point x="371" y="46"/>
      <point x="371" y="87" type="qcurve" smooth="yes"/>
      <point x="371" y="127"/>
      <point x="430" y="186"/>
      <point x="470" y="186" type="qcurve" smooth="yes"/>
      <point x="512" y="186"/>
      <point x="569" y="127"/>
    </contour>
  </outline>
</glyph>
<glyph name="zayU" format="2">
  <advance width="784"/>
  <unicode hex="0632"/>
  <outline>
    <contour>
      <point x="529" y="896" type="qcurve"/>
      <point x="463" y="821"/>
      <point x="416" y="734" type="qcurve"/>
      <point x="333" y="810"/>
      <point x="251" y="852" type="qcurve"/>
      <point x="303" y="914"/>
      <point x="367" y="1011" type="qcurve"/>
      <point x="433" y="952"/>
    </contour>
    <contour>
      <point x="622" y="131" type="qcurve"/>
      <point x="573" y="220"/>
      <point x="475" y="302" type="qcurve"/>
      <point x="571" y="491" type="line"/>
      <point x="636" y="436"/>
      <point x="713" y="253"/>
      <point x="713" y="151" type="qcurve" smooth="yes"/>
      <point x="713" y="-77"/>
      <point x="576" y="-239" type="qcurve" smooth="yes"/>
      <point x="517" y="-309"/>
      <point x="350" y="-398"/>
      <point x="280" y="-398" type="qcurve" smooth="yes"/>
      <point x="217" y="-398"/>
      <point x="0" y="-298"/>
      <point x="0" y="-269" type="qcurve" smooth="yes"/>
      <point x="0" y="-252"/>
      <point x="21" y="-252" type="qcurve" smooth="yes"/>
      <point x="29" y="-252"/>
      <point x="43" y="-253" type="qcurve"/>
      <point x="105" y="-261"/>
      <point x="135" y="-261" type="qcurve" smooth="yes"/>
      <point x="265" y="-261"/>
      <point x="570" y="-16"/>
    </contour>
  </outline>
</glyph>
<glyph name="kashidashort" format="2">
  <advance width="342"/>
  <unicode hex="0640"/>
  <outline>
    <contour>
      <point x="-6" y="31" type="qcurve" smooth="yes"/>
      <point x="-6" y="189" type="line" smooth="yes"/>
      <point x="-6" y="221"/>
      <point x="16" y="221" type="qcurve" smooth="yes"/>
      <point x="326" y="221" type="line" smooth="yes"/>
      <point x="349" y="221"/>
      <point x="349" y="191" type="qcurve" smooth="yes"/>
      <point x="349" y="28" type="line" smooth="yes"/>
      <point x="349" y="19"/>
      <point x="329" y="0"/>
      <point x="319" y="0" type="qcurve" smooth="yes"/>
      <point x="24" y="0" type="line" smooth="yes"/>
      <point x="-6" y="0"/>
    </contour>
  </outline>
</glyph>
<glyph name="fathatanA" format="2">
  <unicode hex="064B"/>
  <outline>
    <contour>
      <point x="392" y="1695" type="line"/>
      <point x="390" y="1686"/>
      <point x="389" y="1682" type="qcurve" smooth="yes"/>
      <point x="381" y="1648" type="line" smooth="yes"/>
      <point x="369" y="1598"/>
      <point x="311" y="1544"/>
      <point x="230" y="1508" type="qcurve" smooth="yes"/>
      <point x="173" y="1484" type="line"/>
      <point x="132" y="1465" type="line"/>
      <point x="80" y="1443" type="line" smooth="yes"/>
      <point x="-25" y="1398"/>
      <point x="-52" y="1370" type="qcurve"/>
      <point x="-57" y="1364" type="line"/>
      <point x="-59" y="1362"/>
      <point x="-61" y="1362" type="qcurve"/>
      <point x="-64" y="1364" type="line"/>
      <point x="-65" y="1365"/>
      <point x="-65" y="1367" type="qcurve" smooth="yes"/>
      <point x="-65" y="1370"/>
      <point x="-64" y="1374" type="qcurve" smooth="yes"/>
      <point x="-59" y="1392" type="line"/>
      <point x="-52" y="1415" type="line"/>
      <point x="-46" y="1436" type="line"/>
      <point x="-34" y="1470"/>
      <point x="21" y="1512"/>
      <point x="93" y="1541" type="qcurve" smooth="yes"/>
      <point x="141" y="1560"/>
      <point x="177" y="1577" type="qcurve" smooth="yes"/>
      <point x="246" y="1609" type="line" smooth="yes"/>
      <point x="306" y="1638"/>
      <point x="380" y="1687" type="qcurve" smooth="yes"/>
    </contour>
    <contour>
      <point x="389" y="1533" type="qcurve"/>
      <point x="386" y="1521" type="line"/>
      <point x="378" y="1486" type="line" smooth="yes"/>
      <point x="365" y="1435"/>
      <point x="309" y="1383"/>
      <point x="227" y="1347" type="qcurve" smooth="yes"/>
      <point x="171" y="1322" type="line"/>
      <point x="129" y="1303" type="line"/>
      <point x="78" y="1282" type="line" smooth="yes"/>
      <point x="-30" y="1235"/>
      <point x="-55" y="1208" type="qcurve" smooth="yes"/>
      <point x="-60" y="1203" type="line" smooth="yes"/>
      <point x="-62" y="1201"/>
      <point x="-64" y="1201" type="qcurve"/>
      <point x="-66" y="1202" type="line"/>
      <point x="-68" y="1204"/>
      <point x="-68" y="1206" type="qcurve" smooth="yes"/>
      <point x="-68" y="1209"/>
      <point x="-67" y="1213" type="qcurve" smooth="yes"/>
      <point x="-62" y="1231" type="line"/>
      <point x="-55" y="1254" type="line"/>
      <point x="-48" y="1274" type="line" smooth="yes"/>
      <point x="-37" y="1309"/>
      <point x="17" y="1350"/>
      <point x="91" y="1379" type="qcurve" smooth="yes"/>
      <point x="138" y="1398"/>
      <point x="174" y="1416" type="qcurve" smooth="yes"/>
      <point x="243" y="1448" type="line" smooth="yes"/>
      <point x="311" y="1480"/>
    </contour>
  </outline>
</glyph>
<glyph name="kasratanB" format="2">
  <unicode hex="064D"/>
  <outline>
    <contour>
      <point x="494" y="-1048" type="line"/>
      <point x="492" y="-1056"/>
      <point x="491" y="-1061" type="qcurve" smooth="yes"/>
      <point x="483" y="-1095" type="line" smooth="yes"/>
      <point x="472" y="-1145"/>
      <point x="414" y="-1198"/>
      <point x="332" y="-1235" type="qcurve" smooth="yes"/>
      <point x="276" y="-1259" type="line"/>
      <point x="234" y="-1278" type="line"/>
      <point x="183" y="-1300" type="line" smooth="yes"/>
      <point x="77" y="-1345"/>
      <point x="50" y="-1373" type="qcurve" smooth="yes"/>
      <point x="45" y="-1378" type="line"/>
      <point x="43" y="-1381"/>
      <point x="41" y="-1381" type="qcurve"/>
      <point x="39" y="-1379" type="line" smooth="yes"/>
      <point x="37" y="-1377"/>
      <point x="37" y="-1375" type="qcurve" smooth="yes"/>
      <point x="37" y="-1373"/>
      <point x="39" y="-1368" type="qcurve"/>
      <point x="43" y="-1350" type="line"/>
      <point x="50" y="-1327" type="line"/>
      <point x="57" y="-1307" type="line" smooth="yes"/>
      <point x="68" y="-1272"/>
      <point x="124" y="-1231"/>
      <point x="196" y="-1202" type="qcurve" smooth="yes"/>
      <point x="243" y="-1183"/>
      <point x="279" y="-1166" type="qcurve" smooth="yes"/>
      <point x="348" y="-1133" type="line" smooth="yes"/>
      <point x="408" y="-1105"/>
      <point x="482" y="-1056" type="qcurve" smooth="yes"/>
    </contour>
    <contour>
      <point x="492" y="-1209" type="qcurve"/>
      <point x="489" y="-1222" type="line"/>
      <point x="481" y="-1256" type="line" smooth="yes"/>
      <point x="468" y="-1307"/>
      <point x="411" y="-1359"/>
      <point x="329" y="-1396" type="qcurve" smooth="yes"/>
      <point x="273" y="-1420" type="line"/>
      <point x="232" y="-1439" type="line"/>
      <point x="180" y="-1461" type="line" smooth="yes"/>
      <point x="73" y="-1507"/>
      <point x="48" y="-1534" type="qcurve"/>
      <point x="43" y="-1540" type="line"/>
      <point x="41" y="-1542"/>
      <point x="39" y="-1542" type="qcurve"/>
      <point x="36" y="-1540" type="line"/>
      <point x="35" y="-1538"/>
      <point x="35" y="-1536" type="qcurve" smooth="yes"/>
      <point x="35" y="-1534"/>
      <point x="36" y="-1530" type="qcurve" smooth="yes"/>
      <point x="40" y="-1512" type="line"/>
      <point x="48" y="-1489" type="line"/>
      <point x="54" y="-1468" type="line" smooth="yes"/>
      <point x="65" y="-1434"/>
      <point x="120" y="-1393"/>
      <point x="193" y="-1363" type="qcurve" smooth="yes"/>
      <point x="240" y="-1344"/>
      <point x="277" y="-1327" type="qcurve" smooth="yes"/>
      <point x="346" y="-1294" type="line" smooth="yes"/>
      <point x="413" y="-1262"/>
    </contour>
  </outline>
</glyph>
<glyph name="sukunA" format="2">
  <unicode hex="0652"/>
  <outline>
    <contour>
      <point x="180" y="1664" type="qcurve" smooth="yes"/>
      <point x="231" y="1664"/>
      <point x="312" y="1558"/>
      <point x="312" y="1490" type="qcurve" smooth="yes"/>
      <point x="312" y="1411"/>
      <point x="205" y="1292"/>
      <point x="135" y="1292" type="qcurve" smooth="yes"/>
      <point x="82" y="1292"/>
      <point x="16" y="1368"/>
      <point x="16" y="1429" type="qcurve" smooth="yes"/>
      <point x="16" y="1519"/>
      <point x="118" y="1664"/>
    </contour>
    <contour>
      <point x="147" y="1542" type="qcurve" smooth="yes"/>
      <point x="120" y="1542"/>
      <point x="75" y="1499"/>
      <point x="75" y="1475" type="qcurve" smooth="yes"/>
      <point x="75" y="1450"/>
      <point x="119" y="1414"/>
      <point x="150" y="1414" type="qcurve" smooth="yes"/>
      <point x="182" y="1414"/>
      <point x="242" y="1446"/>
      <point x="242" y="1463" type="qcurve" smooth="yes"/>
      <point x="242" y="1489"/>
      <point x="179" y="1542"/>
    </contour>
  </outline>
</glyph>
<glyph name="maddaA" format="2">
  <unicode hex="0653"/>
  <outline>
    <contour>
      <point x="495" y="1516" type="qcurve"/>
      <point x="487" y="1419"/>
      <point x="435" y="1370" type="qcurve" smooth="yes"/>
      <point x="384" y="1324"/>
      <point x="204" y="1255"/>
      <point x="133" y="1255" type="qcurve" smooth="yes"/>
      <point x="83" y="1255"/>
      <point x="33" y="1269" type="qcurve" smooth="yes"/>
      <point x="13" y="1274"/>
      <point x="4" y="1274" type="qcurve" smooth="yes"/>
      <point x="-29" y="1274"/>
      <point x="-69" y="1236" type="qcurve" smooth="yes"/>
      <point x="-75" y="1230" type="line" smooth="yes"/>
      <point x="-89" y="1216"/>
      <point x="-96" y="1216" type="qcurve" smooth="yes"/>
      <point x="-106" y="1216"/>
      <point x="-106" y="1238" type="qcurve" smooth="yes"/>
      <point x="-106" y="1297"/>
      <point x="-15" y="1418"/>
      <point x="31" y="1418" type="qcurve" smooth="yes"/>
      <point x="45" y="1418"/>
      <point x="68" y="1411" type="qcurve" smooth="yes"/>
      <point x="95" y="1404" type="line" smooth="yes"/>
      <point x="144" y="1390"/>
      <point x="187" y="1390" type="qcurve" smooth="yes"/>
      <point x="377" y="1390"/>
    </contour>
  </outline>
</glyph>
<glyph name="hamzaA" format="2">
  <unicode hex="0654"/>
  <outline>
    <contour>
      <point x="207" y="1416" type="qcurve"/>
      <point x="184" y="1454"/>
      <point x="150" y="1454" type="qcurve" smooth="yes"/>
      <point x="124" y="1454"/>
      <point x="72" y="1425"/>
      <point x="72" y="1410" type="qcurve" smooth="yes"/>
      <point x="72" y="1391"/>
      <point x="140" y="1348"/>
      <point x="172" y="1348" type="qcurve" smooth="yes"/>
      <point x="248" y="1348"/>
      <point x="382" y="1407" type="qcurve"/>
      <point x="379" y="1393" type="line" smooth="yes"/>
      <point x="354" y="1289"/>
      <point x="280" y="1266" type="qcurve" smooth="yes"/>
      <point x="82" y="1205"/>
      <point x="53" y="1115" type="qcurve"/>
      <point x="21" y="1139"/>
      <point x="21" y="1160" type="qcurve" smooth="yes"/>
      <point x="21" y="1193"/>
      <point x="59" y="1255" type="qcurve"/>
      <point x="-14" y="1293"/>
      <point x="-14" y="1346" type="qcurve" smooth="yes"/>
      <point x="-14" y="1413"/>
      <point x="130" y="1560"/>
      <point x="195" y="1560" type="qcurve" smooth="yes"/>
      <point x="225" y="1560"/>
      <point x="266" y="1522"/>
      <point x="266" y="1495" type="qcurve" smooth="yes"/>
      <point x="266" y="1451"/>
    </contour>
  </outline>
</glyph>
<glyph name="hamzaB" format="2">
  <unicode hex="0655"/>
  <outline>
    <contour>
      <point x="263" y="-208" type="qcurve"/>
      <point x="239" y="-170"/>
      <point x="205" y="-170" type="qcurve" smooth="yes"/>
      <point x="179" y="-170"/>
      <point x="127" y="-200"/>
      <point x="127" y="-214" type="qcurve" smooth="yes"/>
      <point x="127" y="-234"/>
      <point x="196" y="-276"/>
      <point x="227" y="-276" type="qcurve" smooth="yes"/>
      <point x="303" y="-276"/>
      <point x="438" y="-217" type="qcurve"/>
      <point x="435" y="-231" type="line" smooth="yes"/>
      <point x="409" y="-336"/>
      <point x="335" y="-358" type="qcurve" smooth="yes"/>
      <point x="138" y="-419"/>
      <point x="108" y="-509" type="qcurve"/>
      <point x="76" y="-485"/>
      <point x="76" y="-464" type="qcurve" smooth="yes"/>
      <point x="76" y="-432"/>
      <point x="114" y="-370" type="qcurve"/>
      <point x="41" y="-331"/>
      <point x="41" y="-278" type="qcurve" smooth="yes"/>
      <point x="41" y="-211"/>
      <point x="185" y="-64"/>
      <point x="250" y="-64" type="qcurve" smooth="yes"/>
      <point x="280" y="-64"/>
      <point x="322" y="-102"/>
      <point x="322" y="-129" type="qcurve" smooth="yes"/>
      <point x="322" y="-173"/>
    </contour>
  </outline>
</glyph>
<glyph name="zeroA" format="2">
  <advance width="1024"/>
  <unicode hex="0660"/>
  <outline>
    <contour>
      <point x="614" y="298" type="qcurve"/>
      <point x="532" y="364"/>
      <point x="412" y="447" type="qcurve" smooth="yes"/>
      <point x="383" y="467" type="line"/>
      <point x="395" y="505" type="line" smooth="yes"/>
      <point x="436" y="641"/>
      <point x="463" y="788" type="qcurve"/>
      <point x="580" y="692"/>
      <point x="700" y="622" type="qcurve"/>
      <point x="691" y="591" type="line" smooth="yes"/>
      <point x="659" y="489"/>
      <point x="639" y="402" type="qcurve" smooth="yes"/>
      <point x="621" y="326" type="line" smooth="yes"/>
      <point x="620" y="322"/>
    </contour>
  </outline>
</glyph>
<glyph name="oneA" format="2">
  <advance width="1024"/>
  <unicode hex="0661"/>
  <outline>
    <contour>
      <point x="350" y="904" type="qcurve"/>
      <point x="373" y="1050"/>
      <point x="449" y="1173" type="qcurve"/>
      <point x="585" y="990"/>
      <point x="735" y="488"/>
      <point x="735" y="220" type="qcurve" smooth="yes"/>
      <point x="735" y="-15"/>
      <point x="673" y="-15" type="qcurve" smooth="yes"/>
      <point x="630" y="-15"/>
      <point x="630" y="56" type="qcurve" smooth="yes"/>
      <point x="630" y="73" type="line" smooth="yes"/>
      <point x="630" y="118"/>
      <point x="591" y="341"/>
      <point x="572" y="409" type="qcurve" smooth="yes"/>
      <point x="490" y="697"/>
    </contour>
  </outline>
</glyph>
<glyph name="twoA" format="2">
  <advance width="1024"/>
  <unicode hex="0662"/>
  <outline>
    <contour>
      <point x="180" y="959" type="line"/>
      <point x="214" y="1076"/>
      <point x="282" y="1145" type="qcurve"/>
      <point x="371" y="1081"/>
      <point x="441" y="976" type="qcurve"/>
      <point x="489" y="962"/>
      <point x="538" y="962" type="qcurve" smooth="yes"/>
      <point x="621" y="962"/>
      <point x="711" y="1020"/>
      <point x="747" y="1097" type="qcurve" smooth="yes"/>
      <point x="769" y="1144"/>
      <point x="790" y="1144" type="qcurve" smooth="yes"/>
      <point x="819" y="1144"/>
      <point x="819" y="1045" type="qcurve" smooth="yes"/>
      <point x="819" y="911"/>
      <point x="716" y="718"/>
      <point x="629" y="689" type="qcurve" smooth="yes"/>
      <point x="596" y="677" type="line" smooth="yes"/>
      <point x="562" y="666"/>
      <point x="562" y="633" type="qcurve" smooth="yes"/>
      <point x="562" y="619"/>
      <point x="570" y="590" type="qcurve" smooth="yes"/>
      <point x="626" y="384"/>
      <point x="626" y="200" type="qcurve" smooth="yes"/>
      <point x="626" y="-14"/>
      <point x="568" y="-14" type="qcurve" smooth="yes"/>
      <point x="535" y="-14"/>
      <point x="526" y="70" type="qcurve" smooth="yes"/>
      <point x="502" y="303"/>
      <point x="326" y="767"/>
      <point x="196" y="939" type="qcurve" smooth="yes"/>
    </contour>
  </outline>
</glyph>
<glyph name="threeA" format="2">
  <advance width="1024"/>
  <unicode hex="0663"/>
  <outline>
    <contour>
      <point x="49" y="939" type="qcurve"/>
      <point x="53" y="957"/>
      <point x="67" y="987" type="qcurve" smooth="yes"/>
      <point x="86" y="1028" type="line" smooth="yes"/>
      <point x="105" y="1069"/>
      <point x="149" y="1123" type="qcurve"/>
      <point x="159" y="1111" type="line"/>
      <point x="189" y="1074" type="line" smooth="yes"/>
      <point x="306" y="926"/>
      <point x="398" y="926" type="qcurve" smooth="yes"/>
      <point x="450" y="926"/>
      <point x="529" y="999"/>
      <point x="582" y="1095" type="qcurve" smooth="yes"/>
      <point x="594" y="1116" type="line" smooth="yes"/>
      <point x="625" y="1172"/>
      <point x="647" y="1172" type="qcurve" smooth="yes"/>
      <point x="672" y="1172"/>
      <point x="672" y="1128" type="qcurve" smooth="yes"/>
      <point x="672" y="1120"/>
      <point x="671" y="1107" type="qcurve" smooth="yes"/>
      <point x="669" y="1089"/>
      <point x="669" y="1080" type="qcurve" smooth="yes"/>
      <point x="669" y="1036"/>
      <point x="738" y="983"/>
      <point x="794" y="983" type="qcurve" smooth="yes"/>
      <point x="857" y="983"/>
      <point x="882" y="1072" type="qcurve" smooth="yes"/>
      <point x="896" y="1124"/>
      <point x="922" y="1124" type="qcurve" smooth="yes"/>
      <point x="956" y="1124"/>
      <point x="956" y="1069" type="qcurve" smooth="yes"/>
      <point x="956" y="920"/>
      <point x="834" y="715"/>
      <point x="745" y="715" type="qcurve" smooth="yes"/>
      <point x="691" y="715"/>
      <point x="641" y="743" type="qcurve" smooth="yes"/>
      <point x="600" y="766" type="line" smooth="yes"/>
      <point x="585" y="774"/>
      <point x="575" y="774" type="qcurve" smooth="yes"/>
      <point x="560" y="774"/>
      <point x="528" y="747" type="qcurve" smooth="yes"/>
      <point x="475" y="702"/>
      <point x="431" y="686" type="qcurve" smooth="yes"/>
      <point x="397" y="673"/>
      <point x="397" y="650" type="qcurve" smooth="yes"/>
      <point x="397" y="644"/>
      <point x="401" y="629" type="qcurve" smooth="yes"/>
      <point x="420" y="567"/>
      <point x="457" y="260"/>
      <point x="457" y="168" type="qcurve" smooth="yes"/>
      <point x="457" y="86"/>
      <point x="420" y="-14"/>
      <point x="390" y="-14" type="qcurve" smooth="yes"/>
      <point x="351" y="-14"/>
      <point x="342" y="90" type="qcurve" smooth="yes"/>
      <point x="308" y="492"/>
      <point x="87" y="871" type="qcurve" smooth="yes"/>
      <point x="58" y="921"/>
    </contour>
  </outline>
</glyph>
<glyph name="fourA" format="2">
  <advance width="1023"/>
  <unicode hex="0664"/>
  <outline>
    <contour>
      <point x="751" y="-28" type="qcurve"/>
      <point x="312" y="59"/>
      <point x="312" y="194" type="qcurve" smooth="yes"/>
      <point x="312" y="273"/>
      <point x="443" y="439" type="qcurve" smooth="yes"/>
      <point x="478" y="483" type="line"/>
      <point x="506" y="518" type="line" smooth="yes"/>
      <point x="514" y="528"/>
      <point x="514" y="535" type="qcurve" smooth="yes"/>
      <point x="514" y="547"/>
      <point x="479" y="566" type="qcurve" smooth="yes"/>
      <point x="304" y="656"/>
      <point x="304" y="749" type="qcurve" smooth="yes"/>
      <point x="304" y="867"/>
      <point x="563" y="1152"/>
      <point x="706" y="1191" type="qcurve"/>
      <point x="663" y="1020" type="line"/>
      <point x="601" y="990"/>
      <point x="504" y="902"/>
      <point x="504" y="875" type="qcurve" smooth="yes"/>
      <point x="504" y="847"/>
      <point x="603" y="800" type="qcurve" smooth="yes"/>
      <point x="683" y="761" type="line" smooth="yes"/>
      <point x="743" y="732"/>
      <point x="743" y="709" type="qcurve" smooth="yes"/>
      <point x="743" y="679"/>
      <point x="661" y="554"/>
      <point x="607" y="501" type="qcurve" smooth="yes"/>
      <point x="569" y="465" type="line" smooth="yes"/>
      <point x="491" y="389"/>
      <point x="491" y="361" type="qcurve" smooth="yes"/>
      <point x="491" y="298"/>
      <point x="815" y="215" type="qcurve" smooth="yes"/>
      <point x="831" y="211" type="line"/>
      <point x="806" y="87"/>
    </contour>
  </outline>
</glyph>
<glyph name="fiveA" format="2">
  <advance width="1024"/>
  <unicode hex="0665"/>
  <outline>
    <contour>
      <point x="205" y="392" type="qcurve" smooth="yes"/>
      <point x="205" y="466"/>
      <point x="293" y="695"/>
      <point x="359" y="793" type="qcurve" smooth="yes"/>
      <point x="470" y="955"/>
      <point x="575" y="955" type="qcurve" smooth="yes"/>
      <point x="684" y="955"/>
      <point x="866" y="734"/>
      <point x="866" y="601" type="qcurve" smooth="yes"/>
      <point x="866" y="485"/>
      <point x="807" y="339" type="qcurve" smooth="yes"/>
      <point x="779" y="269"/>
      <point x="562" y="164"/>
      <point x="446" y="164" type="qcurve" smooth="yes"/>
      <point x="338" y="164"/>
      <point x="205" y="290"/>
    </contour>
    <contour>
      <point x="350" y="477" type="qcurve"/>
      <point x="356" y="473" type="line" smooth="yes"/>
      <point x="436" y="419"/>
      <point x="598" y="419" type="qcurve" smooth="yes"/>
      <point x="680" y="419"/>
      <point x="736" y="447"/>
      <point x="736" y="488" type="qcurve" smooth="yes"/>
      <point x="736" y="551"/>
      <point x="564" y="702"/>
      <point x="492" y="702" type="qcurve" smooth="yes"/>
      <point x="430" y="702"/>
      <point x="349" y="585"/>
      <point x="349" y="495" type="qcurve" smooth="yes"/>
      <point x="349" y="490"/>
    </contour>
  </outline>
</glyph>
<glyph name="sixA" format="2">
  <advance width="1024"/>
  <unicode hex="0666"/>
  <outline>
    <contour>
      <point x="255" y="1119" type="qcurve"/>
      <point x="284" y="1067"/>
      <point x="445" y="1000"/>
      <point x="539" y="1000" type="qcurve" smooth="yes"/>
      <point x="638" y="1000"/>
      <point x="771" y="1048" type="qcurve"/>
      <point x="722" y="882"/>
      <point x="722" y="730" type="qcurve" smooth="yes"/>
      <point x="722" y="600"/>
      <point x="822" y="329"/>
      <point x="901" y="242" type="qcurve"/>
      <point x="901" y="232" type="line" smooth="yes"/>
      <point x="901" y="189"/>
      <point x="860" y="37"/>
      <point x="834" y="-15" type="qcurve"/>
      <point x="633" y="203"/>
      <point x="633" y="522" type="qcurve" smooth="yes"/>
      <point x="633" y="634"/>
      <point x="654" y="767" type="qcurve"/>
      <point x="546" y="747"/>
      <point x="445" y="747" type="qcurve" smooth="yes"/>
      <point x="195" y="747"/>
      <point x="195" y="928" type="qcurve" smooth="yes"/>
      <point x="195" y="968"/>
      <point x="233" y="1090"/>
    </contour>
  </outline>
</glyph>
<glyph name="sevenA" format="2">
  <advance width="1024"/>
  <unicode hex="0667"/>
  <outline>
    <contour>
      <point x="76" y="841" type="qcurve"/>
      <point x="106" y="1014"/>
      <point x="169" y="1099" type="qcurve"/>
      <point x="244" y="1020"/>
      <point x="435" y="637"/>
      <point x="483" y="471" type="qcurve" smooth="yes"/>
      <point x="494" y="433"/>
      <point x="495" y="428" type="qcurve"/>
      <point x="509" y="387" type="line" smooth="yes"/>
      <point x="519" y="358"/>
      <point x="532" y="358" type="qcurve" smooth="yes"/>
      <point x="546" y="358"/>
      <point x="558" y="391" type="qcurve" smooth="yes"/>
      <point x="573" y="427" type="line"/>
      <point x="578" y="442"/>
      <point x="599" y="506" type="qcurve" smooth="yes"/>
      <point x="742" y="955"/>
      <point x="912" y="1130" type="qcurve"/>
      <point x="936" y="1055"/>
      <point x="936" y="933" type="qcurve"/>
      <point x="935" y="890" type="line"/>
      <point x="844" y="783"/>
      <point x="663" y="418"/>
      <point x="608" y="228" type="qcurve" smooth="yes"/>
      <point x="569" y="96" type="line" smooth="yes"/>
      <point x="536" y="-15"/>
      <point x="506" y="-15" type="qcurve" smooth="yes"/>
      <point x="479" y="-15"/>
      <point x="464" y="44" type="qcurve" smooth="yes"/>
      <point x="443" y="131" type="line" smooth="yes"/>
      <point x="399" y="309"/>
      <point x="184" y="724"/>
    </contour>
  </outline>
</glyph>
<glyph name="eightA" format="2">
  <advance width="1024"/>
  <unicode hex="0668"/>
  <outline>
    <contour>
      <point x="977" y="274" type="qcurve"/>
      <point x="946" y="102"/>
      <point x="883" y="17" type="qcurve"/>
      <point x="808" y="96"/>
      <point x="617" y="479"/>
      <point x="570" y="645" type="qcurve" smooth="yes"/>
      <point x="559" y="683"/>
      <point x="557" y="687" type="qcurve"/>
      <point x="543" y="729" type="line" smooth="yes"/>
      <point x="533" y="758"/>
      <point x="520" y="758" type="qcurve" smooth="yes"/>
      <point x="507" y="758"/>
      <point x="494" y="725" type="qcurve" smooth="yes"/>
      <point x="480" y="688" type="line" smooth="yes"/>
      <point x="474" y="674"/>
      <point x="454" y="610" type="qcurve" smooth="yes"/>
      <point x="311" y="160"/>
      <point x="140" y="-15" type="qcurve"/>
      <point x="117" y="61"/>
      <point x="117" y="183" type="qcurve" smooth="yes"/>
      <point x="117" y="225" type="line"/>
      <point x="208" y="333"/>
      <point x="389" y="698"/>
      <point x="444" y="887" type="qcurve" smooth="yes"/>
      <point x="483" y="1019" type="line" smooth="yes"/>
      <point x="516" y="1130"/>
      <point x="546" y="1130" type="qcurve" smooth="yes"/>
      <point x="574" y="1130"/>
      <point x="588" y="1071" type="qcurve" smooth="yes"/>
      <point x="609" y="985" type="line" smooth="yes"/>
      <point x="653" y="807"/>
      <point x="868" y="391"/>
    </contour>
  </outline>
</glyph>
<glyph name="nineA" format="2">
  <advance width="1024"/>
  <unicode hex="0669"/>
  <outline>
    <contour>
      <point x="387" y="813" type="qcurve"/>
      <point x="433" y="747"/>
      <point x="587" y="729" type="qcurve"/>
      <point x="587" y="810"/>
      <point x="520" y="938"/>
      <point x="477" y="938" type="qcurve" smooth="yes"/>
      <point x="438" y="938"/>
      <point x="387" y="866"/>
    </contour>
    <contour>
      <point x="905" y="181" type="qcurve"/>
      <point x="825" y="-59" type="line"/>
      <point x="742" y="25"/>
      <point x="632" y="315"/>
      <point x="617" y="489" type="qcurve"/>
      <point x="556" y="487" type="line" smooth="yes"/>
      <point x="404" y="487"/>
      <point x="211" y="605"/>
      <point x="211" y="698" type="qcurve" smooth="yes"/>
      <point x="211" y="802"/>
      <point x="304" y="966" type="qcurve" smooth="yes"/>
      <point x="432" y="1192"/>
      <point x="536" y="1192" type="qcurve" smooth="yes"/>
      <point x="622" y="1192"/>
      <point x="731" y="945"/>
      <point x="745" y="720" type="qcurve" smooth="yes"/>
      <point x="750" y="624" type="line" smooth="yes"/>
      <point x="758" y="487"/>
      <point x="834" y="271"/>
    </contour>
  </outline>
</glyph>
<glyph name="percent" format="2">
  <advance width="1023"/>
  <unicode hex="066A"/>
  <outline>
    <contour>
      <point x="223" y="-132" type="line"/>
      <point x="785" y="1335" type="line"/>
      <point x="870" y="1301" type="line"/>
      <point x="311" y="-166" type="line"/>
    </contour>
    <contour>
      <point x="947" y="51" type="qcurve" smooth="yes"/>
      <point x="947" y="11"/>
      <point x="888" y="-47"/>
      <point x="848" y="-47" type="qcurve" smooth="yes"/>
      <point x="807" y="-47"/>
      <point x="749" y="12"/>
      <point x="749" y="52" type="qcurve" smooth="yes"/>
      <point x="749" y="93"/>
      <point x="807" y="151"/>
      <point x="848" y="151" type="qcurve" smooth="yes"/>
      <point x="889" y="151"/>
      <point x="947" y="93"/>
    </contour>
    <contour>
      <point x="319" y="1135" type="qcurve" smooth="yes"/>
      <point x="319" y="1095"/>
      <point x="260" y="1037"/>
      <point x="220" y="1037" type="qcurve" smooth="yes"/>
      <point x="179" y="1037"/>
      <point x="121" y="1095"/>
      <point x="121" y="1136" type="qcurve" smooth="yes"/>
      <point x="121" y="1177"/>
      <point x="179" y="1235"/>
      <point x="219" y="1235" type="qcurve" smooth="yes"/>
      <point x="261" y="1235"/>
      <point x="319" y="1177"/>
    </contour>
  </outline>
</glyph>
<glyph name="decimal" format="2">
  <advance width="1024"/>
  <unicode hex="066B"/>
  <outline>
    <contour>
      <point x="556" y="2" type="qcurve"/>
      <point x="536" y="-4"/>
      <point x="521" y="-4" type="qcurve" smooth="yes"/>
      <point x="463" y="-4"/>
      <point x="393" y="61"/>
      <point x="393" y="116" type="qcurve" smooth="yes"/>
      <point x="393" y="174"/>
      <point x="467" y="249"/>
      <point x="524" y="249" type="qcurve" smooth="yes"/>
      <point x="596" y="249"/>
      <point x="682" y="133"/>
      <point x="682" y="35" type="qcurve" smooth="yes"/>
      <point x="682" y="-155"/>
      <point x="508" y="-274" type="qcurve" smooth="yes"/>
      <point x="413" y="-338"/>
      <point x="345" y="-338" type="qcurve" smooth="yes"/>
      <point x="319" y="-338"/>
      <point x="319" y="-315" type="qcurve" smooth="yes"/>
      <point x="319" y="-302"/>
      <point x="340" y="-293" type="qcurve" smooth="yes"/>
      <point x="356" y="-286" type="line"/>
      <point x="362" y="-283"/>
      <point x="373" y="-278" type="qcurve" smooth="yes"/>
      <point x="461" y="-240"/>
      <point x="558" y="-108"/>
      <point x="558" y="-28" type="qcurve" smooth="yes"/>
      <point x="558" y="-19"/>
    </contour>
  </outline>
</glyph>
<glyph name="thousandsep" format="2">
  <advance width="1024"/>
  <unicode hex="066C"/>
  <outline>
    <contour>
      <point x="541" y="0" type="qcurve"/>
      <point x="529" y="-4"/>
      <point x="517" y="-4" type="qcurve" smooth="yes"/>
      <point x="474" y="-4"/>
      <point x="421" y="45"/>
      <point x="421" y="84" type="qcurve" smooth="yes"/>
      <point x="421" y="129"/>
      <point x="474" y="185"/>
      <point x="517" y="185" type="qcurve" smooth="yes"/>
      <point x="572" y="185"/>
      <point x="639" y="96"/>
      <point x="639" y="22" type="qcurve" smooth="yes"/>
      <point x="639" y="-119"/>
      <point x="503" y="-206" type="qcurve" smooth="yes"/>
      <point x="428" y="-254"/>
      <point x="383" y="-254" type="qcurve" smooth="yes"/>
      <point x="367" y="-254"/>
      <point x="367" y="-237" type="qcurve" smooth="yes"/>
      <point x="367" y="-226"/>
      <point x="392" y="-215" type="qcurve" smooth="yes"/>
      <point x="543" y="-147"/>
      <point x="543" y="-30" type="qcurve" smooth="yes"/>
      <point x="543" y="-20"/>
    </contour>
  </outline>
</glyph>
<glyph name="longaA" format="2">
  <unicode hex="0670"/>
  <outline>
    <contour>
      <point x="133" y="1835" type="qcurve"/>
      <point x="168" y="1788"/>
      <point x="234" y="1557"/>
      <point x="234" y="1479" type="qcurve" smooth="yes"/>
      <point x="234" y="1426"/>
      <point x="175" y="1269"/>
      <point x="155" y="1269" type="qcurve" smooth="yes"/>
      <point x="146" y="1269"/>
      <point x="146" y="1291" type="qcurve" smooth="yes"/>
      <point x="146" y="1296" type="line" smooth="yes"/>
      <point x="146" y="1302"/>
      <point x="146" y="1307" type="qcurve" smooth="yes"/>
      <point x="147" y="1330" type="line" smooth="yes"/>
      <point x="148" y="1346"/>
      <point x="148" y="1356" type="qcurve" smooth="yes"/>
      <point x="148" y="1517"/>
      <point x="49" y="1678" type="qcurve"/>
      <point x="81" y="1761"/>
    </contour>
  </outline>
</glyph>
<glyph name="hamzahighU" format="2">
  <advance width="754"/>
  <unicode hex="0674"/>
  <outline>
    <contour>
      <point x="106" y="764" type="qcurve" smooth="yes"/>
      <point x="106" y="729"/>
      <point x="155" y="666"/>
      <point x="211" y="643" type="qcurve"/>
      <point x="192" y="619"/>
      <point x="171" y="575"/>
      <point x="160" y="540"/>
      <point x="158" y="515"/>
      <point x="158" y="508" type="qcurve" smooth="yes"/>
      <point x="158" y="499"/>
      <point x="180" y="459"/>
      <point x="203" y="436" type="qcurve"/>
      <point x="226" y="492"/>
      <point x="395" y="600"/>
      <point x="541" y="637" type="qcurve" smooth="yes"/>
      <point x="574" y="645"/>
      <point x="623" y="674"/>
      <point x="659" y="723"/>
      <point x="685" y="796"/>
      <point x="696" y="848" type="qcurve"/>
      <point x="616" y="816"/>
      <point x="459" y="768"/>
      <point x="393" y="768" type="qcurve" smooth="yes"/>
      <point x="359" y="768"/>
      <point x="301" y="787"/>
      <point x="258" y="813"/>
      <point x="233" y="842"/>
      <point x="233" y="852" type="qcurve" smooth="yes"/>
      <point x="233" y="861"/>
      <point x="254" y="883"/>
      <point x="288" y="901"/>
      <point x="331" y="913"/>
      <point x="354" y="913" type="qcurve" smooth="yes"/>
      <point x="377" y="913"/>
      <point x="419" y="883"/>
      <point x="436" y="858" type="qcurve"/>
      <point x="480" y="884"/>
      <point x="522" y="941"/>
      <point x="522" y="963" type="qcurve" smooth="yes"/>
      <point x="522" y="1006"/>
      <point x="460" y="1057"/>
      <point x="414" y="1057" type="qcurve" smooth="yes"/>
      <point x="380" y="1057"/>
      <point x="308" y="1029"/>
      <point x="240" y="983"/>
      <point x="179" y="923"/>
      <point x="133" y="858"/>
      <point x="106" y="792"/>
    </contour>
  </outline>
</glyph>
<glyph name="ngaU" format="2">
  <advance width="967"/>
  <unicode hex="06A0"/>
  <outline>
    <contour>
      <point x="199" y="-283" type="qcurve" smooth="yes"/>
      <point x="199" y="-213"/>
      <point x="246" y="-85"/>
      <point x="323" y="28"/>
      <point x="423" y="126"/>
      <point x="530" y="205"/>
      <point x="637" y="265"/>
      <point x="682" y="283" type="qcurve"/>
      <point x="688" y="293"/>
      <point x="714" y="333"/>
      <point x="745" y="381"/>
      <point x="777" y="432"/>
      <point x="804" y="477"/>
      <point x="821" y="509"/>
      <point x="821" y="514" type="qcurve" smooth="yes"/>
      <point x="821" y="528"/>
      <point x="801" y="545"/>
      <point x="784" y="545" type="qcurve" smooth="yes"/>
      <point x="773" y="545"/>
      <point x="732" y="529"/>
      <point x="685" y="507"/>
      <point x="641" y="483"/>
      <point x="629" y="475" type="qcurve" smooth="yes"/>
      <point x="547" y="421"/>
      <point x="465" y="371"/>
      <point x="446" y="371" type="qcurve" smooth="yes"/>
      <point x="408" y="371"/>
      <point x="335" y="392"/>
      <point x="278" y="422"/>
      <point x="244" y="455"/>
      <point x="244" y="467" type="qcurve" smooth="yes"/>
      <point x="244" y="483"/>
      <point x="297" y="535"/>
      <point x="381" y="585"/>
      <point x="485" y="621"/>
      <point x="537" y="621" type="qcurve" smooth="yes"/>
      <point x="548" y="621"/>
      <point x="576" y="617"/>
      <point x="590" y="612" type="qcurve" smooth="yes"/>
      <point x="605" y="607"/>
      <point x="627" y="616"/>
      <point x="627" y="627" type="qcurve" smooth="yes"/>
      <point x="627" y="640"/>
      <point x="585" y="690"/>
      <point x="519" y="739"/>
      <point x="437" y="776"/>
      <point x="397" y="776" type="qcurve" smooth="yes"/>
      <point x="364" y="776"/>
      <point x="301" y="739"/>
      <point x="246" y="677"/>
      <point x="201" y="596"/>
      <point x="168" y="510"/>
      <point x="150" y="422"/>
      <point x="150" y="385" type="qcurve" smooth="yes"/>
      <point x="150" y="346"/>
      <point x="168" y="289"/>
      <point x="205" y="247"/>
      <point x="259" y="217"/>
      <point x="295" y="205" type="qcurve"/>
      <point x="264" y="159"/>
      <point x="188" y="22"/>
      <point x="121" y="-138"/>
      <point x="76" y="-309"/>
      <point x="76" y="-389" type="qcurve" smooth="yes"/>
      <point x="76" y="-492"/>
      <point x="133" y="-653"/>
      <point x="231" y="-775"/>
      <point x="364" y="-860"/>
      <point x="516" y="-914"/>
      <point x="679" y="-938"/>
      <point x="758" y="-938" type="qcurve" smooth="yes"/>
      <point x="816" y="-938"/>
      <point x="939" y="-912"/>
      <point x="1056" y="-872"/>
      <point x="1159" y="-823"/>
      <point x="1237" y="-776"/>
      <point x="1282" y="-738"/>
      <point x="1282" y="-729" type="qcurve" smooth="yes"/>
      <point x="1282" y="-687"/>
      <point x="1235" y="-698" type="qcurve" smooth="yes"/>
      <point x="1221" y="-701"/>
      <point x="1172" y="-708"/>
      <point x="1108" y="-712"/>
      <point x="1034" y="-715"/>
      <point x="995" y="-715" type="qcurve" smooth="yes"/>
      <point x="826" y="-715"/>
      <point x="535" y="-671"/>
      <point x="321" y="-569"/>
      <point x="199" y="-404"/>
    </contour>
    <contour>
      <point x="371" y="1118" type="qcurve"/>
      <point x="388" y="1160"/>
      <point x="432" y="1237"/>
      <point x="457" y="1274" type="qcurve"/>
      <point x="419" y="1296"/>
      <point x="348" y="1353"/>
      <point x="317" y="1384" type="qcurve"/>
      <point x="300" y="1341"/>
      <point x="256" y="1260"/>
      <point x="227" y="1223" type="qcurve"/>
      <point x="268" y="1203"/>
      <point x="339" y="1147"/>
    </contour>
    <contour>
      <point x="324" y="872" type="qcurve"/>
      <point x="339" y="900"/>
      <point x="369" y="954"/>
      <point x="391" y="977" type="qcurve"/>
      <point x="422" y="960"/>
      <point x="477" y="914"/>
      <point x="502" y="889" type="qcurve"/>
      <point x="522" y="929"/>
      <point x="563" y="1010"/>
      <point x="594" y="1044" type="qcurve"/>
      <point x="554" y="1064"/>
      <point x="485" y="1121"/>
      <point x="453" y="1153" type="qcurve"/>
      <point x="421" y="1093"/>
      <point x="379" y="1047" type="qcurve"/>
      <point x="353" y="1065"/>
      <point x="296" y="1105"/>
      <point x="279" y="1133" type="qcurve"/>
      <point x="254" y="1094"/>
      <point x="205" y="1017"/>
      <point x="174" y="983" type="qcurve"/>
      <point x="216" y="961"/>
      <point x="290" y="903"/>
    </contour>
  </outline>
</glyph>
<glyph name="paU" format="2">
  <advance width="1593"/>
  <unicode hex="06A4"/>
  <outline>
    <contour>
      <point x="70" y="254" type="qcurve" smooth="yes"/>
      <point x="70" y="199"/>
      <point x="113" y="112"/>
      <point x="187" y="47"/>
      <point x="287" y="1"/>
      <point x="402" y="-28"/>
      <point x="527" y="-41"/>
      <point x="588" y="-41" type="qcurve" smooth="yes"/>
      <point x="665" y="-41"/>
      <point x="842" y="-36"/>
      <point x="1021" y="-21"/>
      <point x="1193" y="7"/>
      <point x="1339" y="53"/>
      <point x="1449" y="119"/>
      <point x="1477" y="164" type="qcurve" smooth="yes"/>
      <point x="1485" y="178"/>
      <point x="1501" y="229"/>
      <point x="1513" y="292"/>
      <point x="1520" y="359"/>
      <point x="1520" y="389" type="qcurve" smooth="yes"/>
      <point x="1520" y="433"/>
      <point x="1498" y="527"/>
      <point x="1462" y="617"/>
      <point x="1415" y="697"/>
      <point x="1366" y="758"/>
      <point x="1318" y="793"/>
      <point x="1298" y="793" type="qcurve" smooth="yes"/>
      <point x="1282" y="793"/>
      <point x="1245" y="759"/>
      <point x="1209" y="702"/>
      <point x="1176" y="630"/>
      <point x="1150" y="553"/>
      <point x="1135" y="479"/>
      <point x="1135" y="449" type="qcurve" smooth="yes"/>
      <point x="1135" y="426"/>
      <point x="1142" y="386"/>
      <point x="1166" y="357"/>
      <point x="1212" y="340"/>
      <point x="1251" y="340" type="qcurve" smooth="yes"/>
      <point x="1300" y="340"/>
      <point x="1350" y="366"/>
      <point x="1376" y="396"/>
      <point x="1392" y="422"/>
      <point x="1407" y="422" type="qcurve" smooth="yes"/>
      <point x="1413" y="422"/>
      <point x="1426" y="405"/>
      <point x="1437" y="377"/>
      <point x="1444" y="343"/>
      <point x="1444" y="326" type="qcurve"/>
      <point x="1402" y="291"/>
      <point x="1268" y="237"/>
      <point x="1076" y="201"/>
      <point x="820" y="182"/>
      <point x="655" y="182" type="qcurve" smooth="yes"/>
      <point x="513" y="182"/>
      <point x="326" y="229"/>
      <point x="215" y="299"/>
      <point x="170" y="379"/>
      <point x="170" y="412" type="qcurve" smooth="yes"/>
      <point x="170" y="443"/>
      <point x="195" y="506"/>
      <point x="209" y="530" type="qcurve"/>
      <point x="214" y="540"/>
      <point x="205" y="555"/>
      <point x="197" y="555" type="qcurve" smooth="yes"/>
      <point x="185" y="555"/>
      <point x="143" y="501"/>
      <point x="101" y="414"/>
      <point x="70" y="307"/>
    </contour>
    <contour>
      <point x="1268" y="502" type="qcurve" smooth="yes"/>
      <point x="1254" y="502"/>
      <point x="1232" y="507"/>
      <point x="1223" y="510" type="qcurve"/>
      <point x="1226" y="526"/>
      <point x="1236" y="557"/>
      <point x="1249" y="581"/>
      <point x="1263" y="596"/>
      <point x="1270" y="596" type="qcurve" smooth="yes"/>
      <point x="1274" y="596"/>
      <point x="1291" y="586"/>
      <point x="1307" y="571"/>
      <point x="1319" y="553"/>
      <point x="1319" y="545" type="qcurve" smooth="yes"/>
      <point x="1319" y="536"/>
      <point x="1308" y="521"/>
      <point x="1291" y="509"/>
      <point x="1274" y="502"/>
    </contour>
    <contour>
      <point x="1382" y="868" type="qcurve"/>
      <point x="1402" y="909"/>
      <point x="1444" y="990"/>
      <point x="1475" y="1024" type="qcurve"/>
      <point x="1434" y="1044"/>
      <point x="1365" y="1101"/>
      <point x="1333" y="1133" type="qcurve"/>
      <point x="1318" y="1104"/>
      <point x="1281" y="1051"/>
      <point x="1260" y="1026" type="qcurve"/>
      <point x="1234" y="1045"/>
      <point x="1176" y="1084"/>
      <point x="1159" y="1112" type="qcurve"/>
      <point x="1134" y="1074"/>
      <point x="1086" y="997"/>
      <point x="1055" y="963" type="qcurve"/>
      <point x="1097" y="941"/>
      <point x="1170" y="883"/>
      <point x="1204" y="852" type="qcurve"/>
      <point x="1220" y="880"/>
      <point x="1250" y="933"/>
      <point x="1272" y="956" type="qcurve"/>
      <point x="1303" y="939"/>
      <point x="1358" y="893"/>
    </contour>
    <contour>
      <point x="1251" y="1096" type="qcurve"/>
      <point x="1268" y="1138"/>
      <point x="1313" y="1214"/>
      <point x="1337" y="1251" type="qcurve"/>
      <point x="1299" y="1273"/>
      <point x="1229" y="1331"/>
      <point x="1198" y="1362" type="qcurve"/>
      <point x="1181" y="1319"/>
      <point x="1137" y="1237"/>
      <point x="1108" y="1200" type="qcurve"/>
      <point x="1148" y="1180"/>
      <point x="1219" y="1125"/>
    </contour>
  </outline>
</glyph>
<glyph name="gaU" format="2">
  <advance width="1610"/>
  <unicode hex="06AC"/>
  <outline>
    <contour>
      <point x="924" y="1229" type="qcurve"/>
      <point x="944" y="1274"/>
      <point x="1002" y="1353"/>
      <point x="1036" y="1389" type="qcurve"/>
      <point x="942" y="1438"/>
      <point x="872" y="1507" type="qcurve"/>
      <point x="846" y="1465"/>
      <point x="790" y="1381"/>
      <point x="756" y="1346" type="qcurve"/>
      <point x="802" y="1326"/>
      <point x="885" y="1264"/>
    </contour>
    <contour>
      <point x="1581" y="1190" type="line"/>
      <point x="1518" y="1170"/>
      <point x="1382" y="1122"/>
      <point x="1245" y="1066"/>
      <point x="1114" y="1005"/>
      <point x="997" y="943"/>
      <point x="900" y="881"/>
      <point x="866" y="852" type="qcurve" smooth="yes"/>
      <point x="843" y="832"/>
      <point x="813" y="802"/>
      <point x="795" y="774"/>
      <point x="788" y="744"/>
      <point x="788" y="723" type="qcurve" smooth="yes"/>
      <point x="788" y="681"/>
      <point x="795" y="621"/>
      <point x="814" y="579"/>
      <point x="847" y="550"/>
      <point x="872" y="539" type="qcurve" smooth="yes"/>
      <point x="969" y="494"/>
      <point x="1104" y="404"/>
      <point x="1190" y="326"/>
      <point x="1228" y="266"/>
      <point x="1227" y="252" type="qcurve" smooth="yes"/>
      <point x="1226" y="232"/>
      <point x="1160" y="197"/>
      <point x="1025" y="171"/>
      <point x="820" y="156"/>
      <point x="680" y="156" type="qcurve" smooth="yes"/>
      <point x="533" y="156"/>
      <point x="334" y="196"/>
      <point x="214" y="265"/>
      <point x="166" y="359"/>
      <point x="170" y="412" type="qcurve"/>
      <point x="170" y="443"/>
      <point x="195" y="506"/>
      <point x="209" y="530" type="qcurve"/>
      <point x="214" y="540"/>
      <point x="205" y="555"/>
      <point x="197" y="555" type="qcurve" smooth="yes"/>
      <point x="185" y="555"/>
      <point x="143" y="501"/>
      <point x="101" y="414"/>
      <point x="70" y="307"/>
      <point x="70" y="254" type="qcurve" smooth="yes"/>
      <point x="72" y="187"/>
      <point x="129" y="89"/>
      <point x="217" y="20"/>
      <point x="330" y="-24"/>
      <point x="447" y="-50"/>
      <point x="561" y="-59"/>
      <point x="606" y="-59" type="qcurve" smooth="yes"/>
      <point x="687" y="-59"/>
      <point x="851" y="-52"/>
      <point x="998" y="-38"/>
      <point x="1118" y="-15"/>
      <point x="1155" y="0" type="qcurve" smooth="yes"/>
      <point x="1232" y="32"/>
      <point x="1303" y="166"/>
      <point x="1303" y="262" type="qcurve" smooth="yes"/>
      <point x="1303" y="346"/>
      <point x="1237" y="483"/>
      <point x="1126" y="596"/>
      <point x="983" y="690"/>
      <point x="905" y="731" type="qcurve"/>
      <point x="925" y="746"/>
      <point x="1001" y="785"/>
      <point x="1100" y="830"/>
      <point x="1214" y="876"/>
      <point x="1328" y="920"/>
      <point x="1435" y="958"/>
      <point x="1479" y="973" type="qcurve"/>
    </contour>
  </outline>
</glyph>
<glyph name="nyaU" format="2">
  <advance width="950"/>
  <unicode hex="06BD"/>
  <outline>
    <contour>
      <point x="344" y="649" type="qcurve"/>
      <point x="360" y="677"/>
      <point x="390" y="731"/>
      <point x="412" y="754" type="qcurve"/>
      <point x="443" y="737"/>
      <point x="497" y="690"/>
      <point x="522" y="666" type="qcurve"/>
      <point x="542" y="706"/>
      <point x="583" y="787"/>
      <point x="614" y="821" type="qcurve"/>
      <point x="574" y="841"/>
      <point x="505" y="898"/>
      <point x="473" y="930" type="qcurve"/>
      <point x="458" y="901"/>
      <point x="421" y="848"/>
      <point x="399" y="823" type="qcurve"/>
      <point x="373" y="842"/>
      <point x="316" y="881"/>
      <point x="299" y="909" type="qcurve"/>
      <point x="274" y="871"/>
      <point x="226" y="794"/>
      <point x="195" y="760" type="qcurve"/>
      <point x="237" y="738"/>
      <point x="310" y="680"/>
    </contour>
    <contour>
      <point x="391" y="893" type="qcurve"/>
      <point x="408" y="935"/>
      <point x="452" y="1011"/>
      <point x="477" y="1049" type="qcurve"/>
      <point x="439" y="1070"/>
      <point x="369" y="1128"/>
      <point x="338" y="1159" type="qcurve"/>
      <point x="321" y="1116"/>
      <point x="277" y="1035"/>
      <point x="248" y="997" type="qcurve"/>
      <point x="288" y="977"/>
      <point x="359" y="922"/>
    </contour>
    <contour>
      <point x="815" y="59" type="qcurve"/>
      <point x="778" y="24"/>
      <point x="680" y="-31"/>
      <point x="575" y="-69"/>
      <point x="472" y="-88"/>
      <point x="430" y="-88" type="qcurve" smooth="yes"/>
      <point x="371" y="-88"/>
      <point x="271" y="-71"/>
      <point x="198" y="-31"/>
      <point x="156" y="35"/>
      <point x="156" y="84" type="qcurve" smooth="yes"/>
      <point x="156" y="126"/>
      <point x="186" y="220"/>
      <point x="211" y="274" type="qcurve" smooth="yes"/>
      <point x="225" y="302"/>
      <point x="214" y="328"/>
      <point x="203" y="328" type="qcurve" smooth="yes"/>
      <point x="188" y="328"/>
      <point x="143" y="263"/>
      <point x="99" y="163"/>
      <point x="68" y="43"/>
      <point x="68" y="-12" type="qcurve" smooth="yes"/>
      <point x="68" y="-86"/>
      <point x="123" y="-202"/>
      <point x="216" y="-283"/>
      <point x="339" y="-326"/>
      <point x="406" y="-326" type="qcurve" smooth="yes"/>
      <point x="516" y="-326"/>
      <point x="693" y="-257"/>
      <point x="817" y="-136"/>
      <point x="883" y="27"/>
      <point x="883" y="121" type="qcurve" smooth="yes"/>
      <point x="883" y="174"/>
      <point x="862" y="319"/>
      <point x="820" y="467"/>
      <point x="758" y="600"/>
      <point x="717" y="641" type="qcurve"/>
      <point x="641" y="438" type="line"/>
      <point x="704" y="352"/>
      <point x="795" y="163"/>
    </contour>
  </outline>
</glyph>
<glyph name="viU" format="2">
  <advance width="831"/>
  <unicode hex="06CF"/>
  <outline>
    <contour>
      <point x="547" y="98" type="qcurve" smooth="yes"/>
      <point x="568" y="98"/>
      <point x="600" y="124"/>
      <point x="626" y="154"/>
      <point x="647" y="180"/>
      <point x="657" y="180" type="qcurve" smooth="yes"/>
      <point x="667" y="180"/>
      <point x="674" y="164"/>
      <point x="674" y="152" type="qcurve" smooth="yes"/>
      <point x="674" y="132"/>
      <point x="639" y="66"/>
      <point x="576" y="-9"/>
      <point x="488" y="-85"/>
      <point x="382" y="-147"/>
      <point x="263" y="-186"/>
      <point x="199" y="-186" type="qcurve" smooth="yes"/>
      <point x="130" y="-186"/>
      <point x="50" y="-172"/>
      <point x="10" y="-161"/>
      <point x="5" y="-161" type="qcurve" smooth="yes"/>
      <point x="0" y="-161"/>
      <point x="0" y="-176" type="qcurve" smooth="yes"/>
      <point x="0" y="-189"/>
      <point x="24" y="-232"/>
      <point x="65" y="-282"/>
      <point x="121" y="-333"/>
      <point x="186" y="-375"/>
      <point x="257" y="-401"/>
      <point x="293" y="-401" type="qcurve" smooth="yes"/>
      <point x="350" y="-401"/>
      <point x="463" y="-347"/>
      <point x="566" y="-253"/>
      <point x="655" y="-126"/>
      <point x="721" y="20"/>
      <point x="758" y="178"/>
      <point x="758" y="256" type="qcurve" smooth="yes"/>
      <point x="758" y="308"/>
      <point x="744" y="432"/>
      <point x="709" y="540"/>
      <point x="648" y="612"/>
      <point x="600" y="612" type="qcurve" smooth="yes"/>
      <point x="573" y="612"/>
      <point x="521" y="579"/>
      <point x="473" y="525"/>
      <point x="432" y="455"/>
      <point x="402" y="380"/>
      <point x="385" y="307"/>
      <point x="385" y="276" type="qcurve" smooth="yes"/>
      <point x="385" y="229"/>
      <point x="415" y="162"/>
      <point x="462" y="119"/>
      <point x="519" y="98"/>
    </contour>
    <contour>
      <point x="645" y="305" type="qcurve"/>
      <point x="636" y="299"/>
      <point x="597" y="295"/>
      <point x="580" y="295" type="qcurve" smooth="yes"/>
      <point x="535" y="295"/>
      <point x="508" y="323"/>
      <point x="508" y="354" type="qcurve" smooth="yes"/>
      <point x="508" y="366"/>
      <point x="514" y="393"/>
      <point x="525" y="414"/>
      <point x="541" y="428"/>
      <point x="551" y="428" type="qcurve" smooth="yes"/>
      <point x="572" y="428"/>
      <point x="605" y="403"/>
      <point x="629" y="365"/>
      <point x="643" y="323"/>
    </contour>
    <contour>
      <point x="498" y="893" type="qcurve"/>
      <point x="518" y="938"/>
      <point x="576" y="1018"/>
      <point x="610" y="1053" type="qcurve"/>
      <point x="516" y="1102"/>
      <point x="446" y="1171" type="qcurve"/>
      <point x="420" y="1129"/>
      <point x="364" y="1045"/>
      <point x="330" y="1010" type="qcurve"/>
      <point x="376" y="990"/>
      <point x="459" y="928"/>
    </contour>
  </outline>
</glyph>
<glyph name="fourF" format="2">
  <advance width="1024"/>
  <unicode hex="06F4"/>
  <outline>
    <contour>
      <point x="162" y="911" type="qcurve"/>
      <point x="189" y="867"/>
      <point x="238" y="783"/>
      <point x="287" y="683"/>
      <point x="338" y="558"/>
      <point x="367" y="473" type="qcurve" smooth="yes"/>
      <point x="385" y="420"/>
      <point x="408" y="316"/>
      <point x="422" y="227"/>
      <point x="430" y="157"/>
      <point x="432" y="139" type="qcurve"/>
      <point x="434" y="95"/>
      <point x="440" y="37"/>
      <point x="452" y="1"/>
      <point x="472" y="-14"/>
      <point x="487" y="-14" type="qcurve" smooth="yes"/>
      <point x="504" y="-14"/>
      <point x="528" y="19"/>
      <point x="544" y="73"/>
      <point x="551" y="141"/>
      <point x="551" y="176" type="qcurve" smooth="yes"/>
      <point x="551" y="251"/>
      <point x="538" y="408"/>
      <point x="517" y="552"/>
      <point x="491" y="674"/>
      <point x="479" y="715" type="qcurve"/>
      <point x="514" y="701"/>
      <point x="585" y="684"/>
      <point x="608" y="684" type="qcurve" smooth="yes"/>
      <point x="674" y="684"/>
      <point x="778" y="736"/>
      <point x="849" y="809"/>
      <point x="887" y="886"/>
      <point x="887" y="911" type="qcurve" smooth="yes"/>
      <point x="887" y="927"/>
      <point x="863" y="950"/>
      <point x="854" y="950" type="qcurve" smooth="yes"/>
      <point x="845" y="950"/>
      <point x="826" y="932"/>
      <point x="821" y="920" type="qcurve" smooth="yes"/>
      <point x="814" y="902"/>
      <point x="786" y="876"/>
      <point x="750" y="858"/>
      <point x="710" y="850"/>
      <point x="692" y="850" type="qcurve" smooth="yes"/>
      <point x="649" y="850"/>
      <point x="594" y="910"/>
      <point x="594" y="967" type="qcurve" smooth="yes"/>
      <point x="594" y="990"/>
      <point x="612" y="1036"/>
      <point x="655" y="1073"/>
      <point x="726" y="1096"/>
      <point x="778" y="1096" type="qcurve" smooth="yes"/>
      <point x="801" y="1096"/>
      <point x="821" y="1117"/>
      <point x="821" y="1126" type="qcurve" smooth="yes"/>
      <point x="821" y="1138"/>
      <point x="795" y="1164"/>
      <point x="750" y="1186"/>
      <point x="690" y="1200"/>
      <point x="655" y="1200" type="qcurve" smooth="yes"/>
      <point x="614" y="1200"/>
      <point x="536" y="1164"/>
      <point x="469" y="1100"/>
      <point x="419" y="1012"/>
      <point x="408" y="961" type="qcurve"/>
      <point x="389" y="963" type="line"/>
      <point x="372" y="997"/>
      <point x="336" y="1061"/>
      <point x="302" y="1118"/>
      <point x="270" y="1165"/>
      <point x="258" y="1180" type="qcurve"/>
      <point x="244" y="1156"/>
      <point x="214" y="1086"/>
      <point x="187" y="1011"/>
      <point x="166" y="938"/>
    </contour>
  </outline>
</glyph>
<glyph name="fiveF" format="2">
  <advance width="1024"/>
  <unicode hex="06F5"/>
  <outline>
    <contour>
      <point x="403" y="973" type="line"/>
      <point x="332" y="886"/>
      <point x="229" y="721"/>
      <point x="160" y="558"/>
      <point x="127" y="394"/>
      <point x="127" y="309" type="qcurve" smooth="yes"/>
      <point x="127" y="230"/>
      <point x="169" y="109"/>
      <point x="235" y="28"/>
      <point x="317" y="-14"/>
      <point x="358" y="-14" type="qcurve" smooth="yes"/>
      <point x="377" y="-14"/>
      <point x="427" y="4"/>
      <point x="474" y="30"/>
      <point x="511" y="61"/>
      <point x="518" y="74" type="qcurve"/>
      <point x="526" y="63"/>
      <point x="552" y="39"/>
      <point x="585" y="18"/>
      <point x="624" y="4"/>
      <point x="645" y="4" type="qcurve" smooth="yes"/>
      <point x="696" y="4"/>
      <point x="794" y="83"/>
      <point x="869" y="208"/>
      <point x="915" y="362"/>
      <point x="915" y="438" type="qcurve" smooth="yes"/>
      <point x="915" y="552"/>
      <point x="830" y="771"/>
      <point x="697" y="969"/>
      <point x="535" y="1138"/>
      <point x="457" y="1200" type="qcurve"/>
      <point x="449" y="1192"/>
      <point x="419" y="1143"/>
      <point x="388" y="1085"/>
      <point x="363" y="1030"/>
      <point x="360" y="1016" type="qcurve"/>
    </contour>
    <contour>
      <point x="387" y="209" type="qcurve" smooth="yes"/>
      <point x="360" y="209"/>
      <point x="305" y="235"/>
      <point x="261" y="287"/>
      <point x="233" y="365"/>
      <point x="233" y="416" type="qcurve" smooth="yes"/>
      <point x="233" y="459"/>
      <point x="253" y="556"/>
      <point x="288" y="655"/>
      <point x="334" y="752"/>
      <point x="386" y="838"/>
      <point x="441" y="909"/>
      <point x="467" y="932" type="qcurve"/>
      <point x="557" y="852"/>
      <point x="679" y="719"/>
      <point x="754" y="604"/>
      <point x="786" y="502"/>
      <point x="786" y="453" type="qcurve" smooth="yes"/>
      <point x="786" y="416"/>
      <point x="765" y="346"/>
      <point x="731" y="292"/>
      <point x="684" y="260"/>
      <point x="659" y="260" type="qcurve" smooth="yes"/>
      <point x="619" y="260"/>
      <point x="573" y="281"/>
      <point x="567" y="295" type="qcurve" smooth="yes"/>
      <point x="558" y="318"/>
      <point x="539" y="334"/>
      <point x="532" y="334" type="qcurve" smooth="yes"/>
      <point x="524" y="334"/>
      <point x="507" y="316"/>
      <point x="498" y="291" type="qcurve"/>
      <point x="492" y="277"/>
      <point x="472" y="248"/>
      <point x="444" y="224"/>
      <point x="408" y="209"/>
    </contour>
  </outline>
</glyph>
<glyph name="sixF" format="2">
  <advance width="1024"/>
  <unicode hex="06F6"/>
  <outline>
    <contour>
      <point x="311" y="877" type="qcurve"/>
      <point x="329" y="912"/>
      <point x="375" y="974"/>
      <point x="430" y="1020"/>
      <point x="494" y="1047"/>
      <point x="530" y="1047" type="qcurve" smooth="yes"/>
      <point x="550" y="1047"/>
      <point x="607" y="1024"/>
      <point x="665" y="996"/>
      <point x="716" y="973"/>
      <point x="731" y="973" type="qcurve" smooth="yes"/>
      <point x="744" y="973"/>
      <point x="756" y="988"/>
      <point x="756" y="999" type="qcurve" smooth="yes"/>
      <point x="756" y="1021"/>
      <point x="720" y="1090"/>
      <point x="663" y="1154"/>
      <point x="594" y="1200"/>
      <point x="561" y="1200" type="qcurve" smooth="yes"/>
      <point x="520" y="1200"/>
      <point x="435" y="1156"/>
      <point x="354" y="1085"/>
      <point x="282" y="994"/>
      <point x="228" y="900"/>
      <point x="197" y="810"/>
      <point x="197" y="776" type="qcurve" smooth="yes"/>
      <point x="197" y="741"/>
      <point x="211" y="680"/>
      <point x="252" y="627"/>
      <point x="326" y="582"/>
      <point x="385" y="563" type="qcurve"/>
      <point x="356" y="528"/>
      <point x="299" y="434"/>
      <point x="248" y="329"/>
      <point x="205" y="222"/>
      <point x="174" y="125"/>
      <point x="156" y="45"/>
      <point x="156" y="20" type="qcurve" smooth="yes"/>
      <point x="156" y="-14"/>
      <point x="176" y="-14" type="qcurve" smooth="yes"/>
      <point x="179" y="-14"/>
      <point x="186" y="-12"/>
      <point x="197" y="-2"/>
      <point x="210" y="19"/>
      <point x="219" y="37" type="qcurve" smooth="yes"/>
      <point x="283" y="159"/>
      <point x="426" y="365"/>
      <point x="576" y="520"/>
      <point x="729" y="620"/>
      <point x="801" y="635" type="qcurve"/>
      <point x="809" y="647"/>
      <point x="835" y="705"/>
      <point x="859" y="771"/>
      <point x="877" y="830"/>
      <point x="877" y="844" type="qcurve" smooth="yes"/>
      <point x="877" y="855"/>
      <point x="864" y="877"/>
      <point x="856" y="877" type="qcurve" smooth="yes"/>
      <point x="847" y="877"/>
      <point x="810" y="862"/>
      <point x="793" y="848" type="qcurve" smooth="yes"/>
      <point x="763" y="822"/>
      <point x="694" y="783"/>
      <point x="625" y="755"/>
      <point x="561" y="741"/>
      <point x="537" y="741" type="qcurve" smooth="yes"/>
      <point x="484" y="741"/>
      <point x="408" y="760"/>
      <point x="354" y="795"/>
      <point x="320" y="845"/>
    </contour>
  </outline>
</glyph>
<glyph name="joiner" format="2">
  <advance width="548"/>
  <unicode hex="200D"/>
  <outline>
    <contour>
      <point x="0" y="0" type="line"/>
      <point x="0" y="1627" type="line"/>
      <point x="48" y="1627" type="line"/>
      <point x="48" y="0" type="line"/>
    </contour>
  </outline>
</glyph>
<glyph name="l-r" format="2">
  <advance width="550"/>
  <unicode hex="200E"/>
  <outline>
    <contour>
      <point x="0" y="0" type="line"/>
      <point x="0" y="1627" type="line"/>
      <point x="218" y="1627" type="line"/>
      <point x="131" y="1715" type="line"/>
      <point x="164" y="1746" type="line"/>
      <point x="305" y="1604" type="line"/>
      <point x="166" y="1467" type="line"/>
      <point x="132" y="1497" type="line"/>
      <point x="218" y="1582" type="line"/>
      <point x="44" y="1582" type="line"/>
      <point x="44" y="0" type="line"/>
    </contour>
  </outline>
</glyph>
<glyph name="r-l" format="2">
  <unicode hex="200F"/>
  <outline>
    <contour>
      <point x="44" y="0" type="line"/>
      <point x="0" y="0" type="line"/>
      <point x="-1" y="1582" type="line"/>
      <point x="-174" y="1582" type="line"/>
      <point x="-88" y="1497" type="line"/>
      <point x="-122" y="1467" type="line"/>
      <point x="-262" y="1604" type="line"/>
      <point x="-121" y="1746" type="line"/>
      <point x="-88" y="1715" type="line"/>
      <point x="-174" y="1627" type="line"/>
      <point x="44" y="1627" type="line"/>
    </contour>
  </outline>
</glyph>
<glyph name="emdash" format="2">
  <advance width="1819"/>
  <unicode hex="2014"/>
  <outline>
    <contour>
      <point x="61" y="553" type="line"/>
      <point x="1757" y="553" type="line"/>
      <point x="1757" y="397" type="line"/>
      <point x="61" y="397" type="line"/>
    </contour>
  </outline>
</glyph>
<glyph name="closeschevron" format="2">
  <advance width="485"/>
  <unicode hex="2039"/>
  <outline>
    <contour>
      <point x="290" y="980" type="qcurve"/>
      <point x="324" y="961" type="line"/>
      <point x="230" y="790"/>
      <point x="230" y="574" type="qcurve" smooth="yes"/>
      <point x="230" y="475"/>
      <point x="288" y="249"/>
      <point x="333" y="176" type="qcurve"/>
      <point x="305" y="156" type="line"/>
      <point x="132" y="299"/>
      <point x="132" y="572" type="qcurve" smooth="yes"/>
      <point x="132" y="829"/>
    </contour>
  </outline>
</glyph>
<glyph name="openschevron" format="2">
  <advance width="485"/>
  <unicode hex="203A"/>
  <outline>
    <contour>
      <point x="196" y="980" type="line"/>
      <point x="353" y="829"/>
      <point x="353" y="572" type="qcurve" smooth="yes"/>
      <point x="353" y="299"/>
      <point x="181" y="156" type="qcurve"/>
      <point x="152" y="176" type="line"/>
      <point x="197" y="249"/>
      <point x="255" y="475"/>
      <point x="255" y="574" type="qcurve" smooth="yes"/>
      <point x="255" y="790"/>
      <point x="161" y="961" type="qcurve"/>
    </contour>
  </outline>
</glyph>
<glyph name="peU" format="2">
  <advance width="1593"/>
  <unicode hex="FB56"/>
  <outline>
    <contour>
      <point x="1354" y="496" type="line"/>
      <point x="1364" y="482"/>
      <point x="1394" y="442"/>
      <point x="1421" y="399"/>
      <point x="1440" y="357"/>
      <point x="1440" y="342" type="qcurve" smooth="yes"/>
      <point x="1440" y="334"/>
      <point x="1376" y="304"/>
      <point x="1264" y="268"/>
      <point x="1113" y="231"/>
      <point x="939" y="201"/>
      <point x="749" y="182"/>
      <point x="655" y="182" type="qcurve" smooth="yes"/>
      <point x="513" y="182"/>
      <point x="326" y="229"/>
      <point x="215" y="299"/>
      <point x="170" y="379"/>
      <point x="170" y="412" type="qcurve" smooth="yes"/>
      <point x="170" y="443"/>
      <point x="195" y="506"/>
      <point x="209" y="530" type="qcurve"/>
      <point x="214" y="540"/>
      <point x="205" y="555"/>
      <point x="197" y="555" type="qcurve" smooth="yes"/>
      <point x="185" y="555"/>
      <point x="143" y="501"/>
      <point x="101" y="414"/>
      <point x="70" y="307"/>
      <point x="70" y="254" type="qcurve" smooth="yes"/>
      <point x="70" y="199"/>
      <point x="113" y="112"/>
      <point x="187" y="47"/>
      <point x="287" y="1"/>
      <point x="402" y="-28"/>
      <point x="527" y="-41"/>
      <point x="588" y="-41" type="qcurve" smooth="yes"/>
      <point x="709" y="-41"/>
      <point x="961" y="-4"/>
      <point x="1184" y="54"/>
      <point x="1361" y="122"/>
      <point x="1407" y="154" type="qcurve"/>
      <point x="1428" y="177"/>
      <point x="1470" y="251"/>
      <point x="1503" y="330"/>
      <point x="1524" y="404"/>
      <point x="1524" y="426" type="qcurve" smooth="yes"/>
      <point x="1524" y="457"/>
      <point x="1508" y="533"/>
      <point x="1484" y="605"/>
      <point x="1456" y="665"/>
      <point x="1444" y="680" type="qcurve"/>
    </contour>
    <contour>
      <point x="801" y="-434" type="qcurve"/>
      <point x="784" y="-476"/>
      <point x="740" y="-553"/>
      <point x="715" y="-590" type="qcurve"/>
      <point x="753" y="-611"/>
      <point x="823" y="-669"/>
      <point x="854" y="-700" type="qcurve"/>
      <point x="871" y="-657"/>
      <point x="915" y="-576"/>
      <point x="944" y="-539" type="qcurve"/>
      <point x="904" y="-519"/>
      <point x="833" y="-463"/>
    </contour>
    <contour>
      <point x="848" y="-190" type="qcurve"/>
      <point x="832" y="-218"/>
      <point x="802" y="-272"/>
      <point x="780" y="-295" type="qcurve"/>
      <point x="749" y="-278"/>
      <point x="694" y="-232"/>
      <point x="670" y="-207" type="qcurve"/>
      <point x="650" y="-247"/>
      <point x="608" y="-328"/>
      <point x="578" y="-362" type="qcurve"/>
      <point x="618" y="-382"/>
      <point x="687" y="-439"/>
      <point x="719" y="-471" type="qcurve"/>
      <point x="748" y="-415"/>
      <point x="793" y="-365" type="qcurve"/>
      <point x="819" y="-383"/>
      <point x="876" y="-423"/>
      <point x="893" y="-451" type="qcurve"/>
      <point x="918" y="-412"/>
      <point x="966" y="-335"/>
      <point x="997" y="-301" type="qcurve"/>
      <point x="955" y="-279"/>
      <point x="882" y="-221"/>
    </contour>
  </outline>
</glyph>
<glyph name="peF" format="2">
  <advance width="1618"/>
  <unicode hex="FB57"/>
  <outline>
    <contour>
      <point x="1677" y="193" type="line" smooth="yes"/>
      <point x="1677" y="208"/>
      <point x="1650" y="223"/>
      <point x="1634" y="223" type="qcurve" smooth="yes"/>
      <point x="1579" y="223"/>
      <point x="1506" y="229"/>
      <point x="1459" y="245"/>
      <point x="1433" y="274"/>
      <point x="1425" y="297" type="qcurve" smooth="yes"/>
      <point x="1416" y="326"/>
      <point x="1402" y="346"/>
      <point x="1391" y="346" type="qcurve" smooth="yes"/>
      <point x="1385" y="346"/>
      <point x="1376" y="340"/>
      <point x="1367" y="324"/>
      <point x="1357" y="295"/>
      <point x="1350" y="272" type="qcurve" smooth="yes"/>
      <point x="1344" y="255"/>
      <point x="1273" y="215"/>
      <point x="1137" y="180"/>
      <point x="935" y="156"/>
      <point x="799" y="156" type="qcurve" smooth="yes"/>
      <point x="613" y="156"/>
      <point x="367" y="196"/>
      <point x="222" y="265"/>
      <point x="166" y="359"/>
      <point x="170" y="412" type="qcurve"/>
      <point x="170" y="443"/>
      <point x="195" y="506"/>
      <point x="209" y="530" type="qcurve"/>
      <point x="214" y="540"/>
      <point x="205" y="555"/>
      <point x="197" y="555" type="qcurve" smooth="yes"/>
      <point x="185" y="555"/>
      <point x="143" y="501"/>
      <point x="101" y="414"/>
      <point x="70" y="307"/>
      <point x="70" y="254" type="qcurve" smooth="yes"/>
      <point x="72" y="187"/>
      <point x="129" y="89"/>
      <point x="221" y="20"/>
      <point x="341" y="-24"/>
      <point x="472" y="-50"/>
      <point x="607" y="-59"/>
      <point x="668" y="-59" type="qcurve" smooth="yes"/>
      <point x="769" y="-59"/>
      <point x="965" y="-42"/>
      <point x="1149" y="-1"/>
      <point x="1318" y="69"/>
      <point x="1393" y="123" type="qcurve"/>
      <point x="1397" y="94"/>
      <point x="1425" y="48"/>
      <point x="1478" y="16"/>
      <point x="1559" y="0"/>
      <point x="1618" y="0" type="qcurve" smooth="yes"/>
      <point x="1627" y="0"/>
      <point x="1648" y="5"/>
      <point x="1665" y="14"/>
      <point x="1677" y="25"/>
      <point x="1677" y="31" type="qcurve" smooth="yes"/>
    </contour>
    <contour>
      <point x="768" y="-434" type="qcurve"/>
      <point x="751" y="-476"/>
      <point x="707" y="-553"/>
      <point x="682" y="-590" type="qcurve"/>
      <point x="720" y="-611"/>
      <point x="790" y="-669"/>
      <point x="821" y="-700" type="qcurve"/>
      <point x="838" y="-657"/>
      <point x="882" y="-576"/>
      <point x="911" y="-539" type="qcurve"/>
      <point x="871" y="-519"/>
      <point x="800" y="-463"/>
    </contour>
    <contour>
      <point x="815" y="-190" type="qcurve"/>
      <point x="800" y="-218"/>
      <point x="769" y="-272"/>
      <point x="748" y="-295" type="qcurve"/>
      <point x="717" y="-278"/>
      <point x="662" y="-232"/>
      <point x="637" y="-207" type="qcurve"/>
      <point x="617" y="-247"/>
      <point x="576" y="-328"/>
      <point x="545" y="-362" type="qcurve"/>
      <point x="585" y="-382"/>
      <point x="654" y="-439"/>
      <point x="686" y="-471" type="qcurve"/>
      <point x="718" y="-411"/>
      <point x="760" y="-365" type="qcurve"/>
      <point x="786" y="-383"/>
      <point x="843" y="-423"/>
      <point x="860" y="-451" type="qcurve"/>
      <point x="885" y="-412"/>
      <point x="934" y="-335"/>
      <point x="965" y="-301" type="qcurve"/>
      <point x="923" y="-279"/>
      <point x="849" y="-221"/>
    </contour>
  </outline>
</glyph>
<glyph name="nyaI" format="2">
  <advance width="455"/>
  <unicode hex="FB58"/>
  <outline>
    <contour>
      <point x="-59" y="31" type="line" smooth="yes"/>
      <point x="-59" y="25"/>
      <point x="-48" y="14"/>
      <point x="-30" y="5"/>
      <point x="-9" y="0"/>
      <point x="0" y="0" type="qcurve" smooth="yes"/>
      <point x="62" y="0"/>
      <point x="153" y="6"/>
      <point x="215" y="15"/>
      <point x="252" y="28"/>
      <point x="260" y="35" type="qcurve" smooth="yes"/>
      <point x="281" y="53"/>
      <point x="320" y="110"/>
      <point x="348" y="175"/>
      <point x="365" y="238"/>
      <point x="365" y="262" type="qcurve" smooth="yes"/>
      <point x="365" y="346"/>
      <point x="310" y="502"/>
      <point x="266" y="567" type="qcurve"/>
      <point x="237" y="527"/>
      <point x="183" y="437"/>
      <point x="162" y="387" type="qcurve"/>
      <point x="194" y="356"/>
      <point x="245" y="297"/>
      <point x="266" y="254" type="qcurve"/>
      <point x="258" y="245"/>
      <point x="228" y="234"/>
      <point x="193" y="226"/>
      <point x="159" y="223"/>
      <point x="147" y="223" type="qcurve" smooth="yes"/>
      <point x="-16" y="223" type="line" smooth="yes"/>
      <point x="-32" y="223"/>
      <point x="-59" y="208"/>
      <point x="-59" y="193" type="qcurve" smooth="yes"/>
    </contour>
    <contour>
      <point x="236" y="-397" type="qcurve"/>
      <point x="219" y="-439"/>
      <point x="174" y="-516"/>
      <point x="150" y="-553" type="qcurve"/>
      <point x="188" y="-575"/>
      <point x="258" y="-633"/>
      <point x="289" y="-664" type="qcurve"/>
      <point x="306" y="-620"/>
      <point x="350" y="-539"/>
      <point x="379" y="-502" type="qcurve"/>
      <point x="339" y="-482"/>
      <point x="268" y="-426"/>
    </contour>
    <contour>
      <point x="283" y="-154" type="qcurve"/>
      <point x="267" y="-181"/>
      <point x="237" y="-235"/>
      <point x="215" y="-258" type="qcurve"/>
      <point x="184" y="-241"/>
      <point x="129" y="-195"/>
      <point x="104" y="-170" type="qcurve"/>
      <point x="84" y="-210"/>
      <point x="43" y="-292"/>
      <point x="12" y="-326" type="qcurve"/>
      <point x="53" y="-346"/>
      <point x="122" y="-402"/>
      <point x="154" y="-434" type="qcurve"/>
      <point x="169" y="-405"/>
      <point x="206" y="-352"/>
      <point x="227" y="-328" type="qcurve"/>
      <point x="253" y="-346"/>
      <point x="311" y="-386"/>
      <point x="328" y="-414" type="qcurve"/>
      <point x="352" y="-375"/>
      <point x="401" y="-298"/>
      <point x="432" y="-264" type="qcurve"/>
      <point x="390" y="-243"/>
      <point x="317" y="-185"/>
    </contour>
  </outline>
</glyph>
<glyph name="nyaM" format="2">
  <advance width="455"/>
  <unicode hex="FB59"/>
  <outline>
    <contour>
      <point x="-59" y="31" type="line" smooth="yes"/>
      <point x="-59" y="25"/>
      <point x="-48" y="14"/>
      <point x="-30" y="5"/>
      <point x="-9" y="0"/>
      <point x="0" y="0" type="qcurve" smooth="yes"/>
      <point x="82" y="0"/>
      <point x="173" y="40"/>
      <point x="188" y="63" type="qcurve"/>
      <point x="210" y="92"/>
      <point x="241" y="125"/>
      <point x="252" y="125" type="qcurve" smooth="yes"/>
      <point x="256" y="125"/>
      <point x="264" y="114"/>
      <point x="273" y="97"/>
      <point x="286" y="75"/>
      <point x="304" y="51"/>
      <point x="331" y="28"/>
      <point x="370" y="11"/>
      <point x="421" y="0"/>
      <point x="455" y="0" type="qcurve" smooth="yes"/>
      <point x="464" y="0"/>
      <point x="485" y="5"/>
      <point x="502" y="14"/>
      <point x="514" y="25"/>
      <point x="514" y="31" type="qcurve" smooth="yes"/>
      <point x="514" y="193" type="line" smooth="yes"/>
      <point x="514" y="208"/>
      <point x="487" y="223"/>
      <point x="471" y="223" type="qcurve" smooth="yes"/>
      <point x="383" y="223" type="line" smooth="yes"/>
      <point x="350" y="223"/>
      <point x="322" y="265"/>
      <point x="310" y="316"/>
      <point x="302" y="358"/>
      <point x="289" y="358" type="qcurve" smooth="yes"/>
      <point x="276" y="358"/>
      <point x="245" y="316"/>
      <point x="199" y="265"/>
      <point x="132" y="223"/>
      <point x="84" y="223" type="qcurve" smooth="yes"/>
      <point x="-16" y="223" type="line" smooth="yes"/>
      <point x="-32" y="223"/>
      <point x="-59" y="208"/>
      <point x="-59" y="193" type="qcurve" smooth="yes"/>
    </contour>
    <contour>
      <point x="236" y="-397" type="qcurve"/>
      <point x="219" y="-439"/>
      <point x="174" y="-516"/>
      <point x="150" y="-553" type="qcurve"/>
      <point x="188" y="-575"/>
      <point x="258" y="-633"/>
      <point x="289" y="-664" type="qcurve"/>
      <point x="306" y="-620"/>
      <point x="350" y="-539"/>
      <point x="379" y="-502" type="qcurve"/>
      <point x="339" y="-482"/>
      <point x="268" y="-426"/>
    </contour>
    <contour>
      <point x="283" y="-154" type="qcurve"/>
      <point x="267" y="-181"/>
      <point x="237" y="-235"/>
      <point x="215" y="-258" type="qcurve"/>
      <point x="184" y="-241"/>
      <point x="129" y="-195"/>
      <point x="104" y="-170" type="qcurve"/>
      <point x="84" y="-210"/>
      <point x="43" y="-292"/>
      <point x="12" y="-326" type="qcurve"/>
      <point x="53" y="-346"/>
      <point x="122" y="-402"/>
      <point x="154" y="-434" type="qcurve"/>
      <point x="169" y="-405"/>
      <point x="206" y="-352"/>
      <point x="227" y="-328" type="qcurve"/>
      <point x="253" y="-346"/>
      <point x="311" y="-386"/>
      <point x="328" y="-414" type="qcurve"/>
      <point x="352" y="-375"/>
      <point x="401" y="-298"/>
      <point x="432" y="-264" type="qcurve"/>
      <point x="390" y="-243"/>
      <point x="317" y="-185"/>
    </contour>
  </outline>
</glyph>
<glyph name="paF" format="2">
  <advance width="1710"/>
  <unicode hex="FB6B"/>
  <outline>
    <contour>
      <point x="1409" y="287" type="qcurve"/>
      <point x="1391" y="292"/>
      <point x="1348" y="315"/>
      <point x="1312" y="344"/>
      <point x="1288" y="377"/>
      <point x="1288" y="393" type="qcurve" smooth="yes"/>
      <point x="1288" y="413"/>
      <point x="1320" y="455"/>
      <point x="1368" y="490"/>
      <point x="1422" y="512"/>
      <point x="1444" y="512" type="qcurve" smooth="yes"/>
      <point x="1473" y="512"/>
      <point x="1516" y="486"/>
      <point x="1545" y="448"/>
      <point x="1559" y="408"/>
      <point x="1559" y="393" type="qcurve" smooth="yes"/>
      <point x="1559" y="367"/>
      <point x="1528" y="329"/>
      <point x="1483" y="304"/>
      <point x="1430" y="289"/>
    </contour>
    <contour>
      <point x="1769" y="193" type="line" smooth="yes"/>
      <point x="1769" y="208"/>
      <point x="1742" y="223"/>
      <point x="1726" y="223" type="qcurve" smooth="yes"/>
      <point x="1612" y="223" type="line" smooth="yes"/>
      <point x="1580" y="223"/>
      <point x="1554" y="232"/>
      <point x="1554" y="242" type="qcurve" smooth="yes"/>
      <point x="1554" y="248"/>
      <point x="1583" y="292"/>
      <point x="1618" y="362"/>
      <point x="1647" y="453"/>
      <point x="1647" y="506" type="qcurve" smooth="yes"/>
      <point x="1647" y="545"/>
      <point x="1627" y="618"/>
      <point x="1594" y="675"/>
      <point x="1554" y="709"/>
      <point x="1534" y="709" type="qcurve" smooth="yes"/>
      <point x="1506" y="709"/>
      <point x="1434" y="669"/>
      <point x="1360" y="604"/>
      <point x="1289" y="520"/>
      <point x="1234" y="430"/>
      <point x="1200" y="341"/>
      <point x="1200" y="305" type="qcurve" smooth="yes"/>
      <point x="1200" y="294"/>
      <point x="1212" y="260"/>
      <point x="1212" y="248" type="qcurve" smooth="yes"/>
      <point x="1212" y="237"/>
      <point x="1175" y="215"/>
      <point x="1113" y="195"/>
      <point x="1030" y="177"/>
      <point x="938" y="164"/>
      <point x="843" y="156"/>
      <point x="799" y="156" type="qcurve" smooth="yes"/>
      <point x="613" y="156"/>
      <point x="367" y="196"/>
      <point x="222" y="265"/>
      <point x="166" y="359"/>
      <point x="170" y="412" type="qcurve"/>
      <point x="170" y="443"/>
      <point x="195" y="506"/>
      <point x="209" y="530" type="qcurve"/>
      <point x="214" y="540"/>
      <point x="205" y="555"/>
      <point x="197" y="555" type="qcurve" smooth="yes"/>
      <point x="185" y="555"/>
      <point x="143" y="501"/>
      <point x="101" y="414"/>
      <point x="70" y="307"/>
      <point x="70" y="254" type="qcurve" smooth="yes"/>
      <point x="72" y="187"/>
      <point x="129" y="89"/>
      <point x="221" y="20"/>
      <point x="341" y="-24"/>
      <point x="472" y="-50"/>
      <point x="607" y="-59"/>
      <point x="668" y="-59" type="qcurve" smooth="yes"/>
      <point x="803" y="-59"/>
      <point x="1003" y="-37"/>
      <point x="1147" y="-3"/>
      <point x="1242" y="36"/>
      <point x="1303" y="70"/>
      <point x="1337" y="92"/>
      <point x="1348" y="92" type="qcurve" smooth="yes"/>
      <point x="1368" y="92"/>
      <point x="1419" y="66"/>
      <point x="1454" y="47" type="qcurve" smooth="yes"/>
      <point x="1489" y="29"/>
      <point x="1580" y="0"/>
      <point x="1638" y="0" type="qcurve" smooth="yes"/>
      <point x="1710" y="0" type="line" smooth="yes"/>
      <point x="1719" y="0"/>
      <point x="1740" y="5"/>
      <point x="1758" y="14"/>
      <point x="1769" y="25"/>
      <point x="1769" y="31" type="qcurve" smooth="yes"/>
    </contour>
    <contour>
      <point x="1331" y="791" type="qcurve"/>
      <point x="1347" y="818"/>
      <point x="1377" y="872"/>
      <point x="1399" y="895" type="qcurve"/>
      <point x="1430" y="878"/>
      <point x="1485" y="832"/>
      <point x="1509" y="807" type="qcurve"/>
      <point x="1529" y="847"/>
      <point x="1571" y="929"/>
      <point x="1602" y="963" type="qcurve"/>
      <point x="1561" y="983"/>
      <point x="1492" y="1039"/>
      <point x="1460" y="1071" type="qcurve"/>
      <point x="1431" y="1015"/>
      <point x="1386" y="965" type="qcurve"/>
      <point x="1360" y="983"/>
      <point x="1303" y="1023"/>
      <point x="1286" y="1051" type="qcurve"/>
      <point x="1261" y="1012"/>
      <point x="1213" y="935"/>
      <point x="1182" y="901" type="qcurve"/>
      <point x="1224" y="879"/>
      <point x="1297" y="821"/>
    </contour>
    <contour>
      <point x="1378" y="1034" type="qcurve"/>
      <point x="1395" y="1076"/>
      <point x="1440" y="1153"/>
      <point x="1464" y="1190" type="qcurve"/>
      <point x="1426" y="1212"/>
      <point x="1356" y="1270"/>
      <point x="1325" y="1300" type="qcurve"/>
      <point x="1308" y="1257"/>
      <point x="1264" y="1176"/>
      <point x="1235" y="1139" type="qcurve"/>
      <point x="1275" y="1119"/>
      <point x="1346" y="1063"/>
    </contour>
  </outline>
</glyph>
<glyph name="paI" format="2">
  <advance width="565"/>
  <unicode hex="FB6C"/>
  <outline>
    <contour>
      <point x="-59" y="31" type="line" smooth="yes"/>
      <point x="-59" y="25"/>
      <point x="-48" y="14"/>
      <point x="-30" y="5"/>
      <point x="-9" y="0"/>
      <point x="0" y="0" type="qcurve" smooth="yes"/>
      <point x="71" y="0"/>
      <point x="209" y="18"/>
      <point x="328" y="57"/>
      <point x="422" y="119"/>
      <point x="449" y="164" type="qcurve" smooth="yes"/>
      <point x="457" y="178"/>
      <point x="473" y="229"/>
      <point x="485" y="292"/>
      <point x="492" y="359"/>
      <point x="492" y="389" type="qcurve" smooth="yes"/>
      <point x="492" y="433"/>
      <point x="470" y="527"/>
      <point x="434" y="617"/>
      <point x="387" y="697"/>
      <point x="338" y="758"/>
      <point x="289" y="793"/>
      <point x="270" y="793" type="qcurve" smooth="yes"/>
      <point x="254" y="793"/>
      <point x="217" y="759"/>
      <point x="180" y="702"/>
      <point x="147" y="630"/>
      <point x="121" y="553"/>
      <point x="106" y="479"/>
      <point x="106" y="449" type="qcurve" smooth="yes"/>
      <point x="106" y="426"/>
      <point x="113" y="386"/>
      <point x="138" y="357"/>
      <point x="184" y="340"/>
      <point x="223" y="340" type="qcurve" smooth="yes"/>
      <point x="272" y="340"/>
      <point x="322" y="366"/>
      <point x="348" y="396"/>
      <point x="364" y="422"/>
      <point x="379" y="422" type="qcurve" smooth="yes"/>
      <point x="385" y="422"/>
      <point x="398" y="405"/>
      <point x="409" y="377"/>
      <point x="416" y="343"/>
      <point x="416" y="326" type="qcurve"/>
      <point x="397" y="310"/>
      <point x="345" y="274"/>
      <point x="274" y="243"/>
      <point x="181" y="223"/>
      <point x="121" y="223" type="qcurve" smooth="yes"/>
      <point x="-16" y="223" type="line" smooth="yes"/>
      <point x="-32" y="223"/>
      <point x="-59" y="208"/>
      <point x="-59" y="193" type="qcurve" smooth="yes"/>
    </contour>
    <contour>
      <point x="240" y="502" type="qcurve" smooth="yes"/>
      <point x="226" y="502"/>
      <point x="204" y="507"/>
      <point x="195" y="510" type="qcurve"/>
      <point x="198" y="526"/>
      <point x="208" y="557"/>
      <point x="221" y="581"/>
      <point x="235" y="596"/>
      <point x="242" y="596" type="qcurve" smooth="yes"/>
      <point x="246" y="596"/>
      <point x="263" y="586"/>
      <point x="279" y="571"/>
      <point x="291" y="553"/>
      <point x="291" y="545" type="qcurve" smooth="yes"/>
      <point x="291" y="536"/>
      <point x="280" y="521"/>
      <point x="263" y="509"/>
      <point x="246" y="502"/>
    </contour>
    <contour>
      <point x="354" y="868" type="qcurve"/>
      <point x="374" y="909"/>
      <point x="416" y="990"/>
      <point x="446" y="1024" type="qcurve"/>
      <point x="406" y="1044"/>
      <point x="337" y="1101"/>
      <point x="305" y="1133" type="qcurve"/>
      <point x="290" y="1104"/>
      <point x="253" y="1051"/>
      <point x="231" y="1026" type="qcurve"/>
      <point x="205" y="1045"/>
      <point x="148" y="1084"/>
      <point x="131" y="1112" type="qcurve"/>
      <point x="106" y="1074"/>
      <point x="58" y="997"/>
      <point x="27" y="963" type="qcurve"/>
      <point x="69" y="941"/>
      <point x="142" y="883"/>
      <point x="176" y="852" type="qcurve"/>
      <point x="192" y="880"/>
      <point x="222" y="933"/>
      <point x="244" y="956" type="qcurve"/>
      <point x="275" y="939"/>
      <point x="330" y="893"/>
    </contour>
    <contour>
      <point x="223" y="1096" type="qcurve"/>
      <point x="240" y="1138"/>
      <point x="284" y="1214"/>
      <point x="309" y="1251" type="qcurve"/>
      <point x="271" y="1273"/>
      <point x="201" y="1331"/>
      <point x="170" y="1362" type="qcurve"/>
      <point x="153" y="1319"/>
      <point x="109" y="1237"/>
      <point x="80" y="1200" type="qcurve"/>
      <point x="120" y="1180"/>
      <point x="191" y="1125"/>
    </contour>
  </outline>
</glyph>
<glyph name="paM" format="2">
  <advance width="682"/>
  <unicode hex="FB6D"/>
  <outline>
    <contour>
      <point x="-59" y="31" type="line" smooth="yes"/>
      <point x="-59" y="25"/>
      <point x="-48" y="14"/>
      <point x="-30" y="5"/>
      <point x="-9" y="0"/>
      <point x="0" y="0" type="qcurve" smooth="yes"/>
      <point x="70" y="0"/>
      <point x="171" y="29"/>
      <point x="244" y="63"/>
      <point x="296" y="92"/>
      <point x="319" y="92" type="qcurve" smooth="yes"/>
      <point x="339" y="92"/>
      <point x="391" y="66"/>
      <point x="426" y="47" type="qcurve" smooth="yes"/>
      <point x="461" y="29"/>
      <point x="551" y="0"/>
      <point x="610" y="0" type="qcurve" smooth="yes"/>
      <point x="682" y="0" type="line" smooth="yes"/>
      <point x="691" y="0"/>
      <point x="712" y="5"/>
      <point x="730" y="14"/>
      <point x="741" y="25"/>
      <point x="741" y="31" type="qcurve" smooth="yes"/>
      <point x="741" y="193" type="line" smooth="yes"/>
      <point x="741" y="208"/>
      <point x="714" y="223"/>
      <point x="698" y="223" type="qcurve" smooth="yes"/>
      <point x="584" y="223" type="line" smooth="yes"/>
      <point x="552" y="223"/>
      <point x="526" y="232"/>
      <point x="526" y="242" type="qcurve" smooth="yes"/>
      <point x="526" y="248"/>
      <point x="555" y="292"/>
      <point x="589" y="362"/>
      <point x="618" y="453"/>
      <point x="618" y="506" type="qcurve" smooth="yes"/>
      <point x="618" y="545"/>
      <point x="598" y="618"/>
      <point x="566" y="675"/>
      <point x="526" y="709"/>
      <point x="506" y="709" type="qcurve" smooth="yes"/>
      <point x="478" y="709"/>
      <point x="406" y="669"/>
      <point x="332" y="604"/>
      <point x="261" y="520"/>
      <point x="206" y="430"/>
      <point x="172" y="341"/>
      <point x="172" y="305" type="qcurve" smooth="yes"/>
      <point x="172" y="294"/>
      <point x="184" y="260"/>
      <point x="184" y="248" type="qcurve" smooth="yes"/>
      <point x="184" y="237"/>
      <point x="135" y="223"/>
      <point x="78" y="223" type="qcurve" smooth="yes"/>
      <point x="-16" y="223" type="line" smooth="yes"/>
      <point x="-32" y="223"/>
      <point x="-59" y="208"/>
      <point x="-59" y="193" type="qcurve" smooth="yes"/>
    </contour>
    <contour>
      <point x="381" y="287" type="qcurve" smooth="yes"/>
      <point x="363" y="287"/>
      <point x="320" y="308"/>
      <point x="284" y="340"/>
      <point x="260" y="377"/>
      <point x="260" y="393" type="qcurve" smooth="yes"/>
      <point x="260" y="413"/>
      <point x="292" y="455"/>
      <point x="340" y="490"/>
      <point x="394" y="512"/>
      <point x="416" y="512" type="qcurve" smooth="yes"/>
      <point x="445" y="512"/>
      <point x="488" y="486"/>
      <point x="516" y="448"/>
      <point x="530" y="408"/>
      <point x="530" y="393" type="qcurve" smooth="yes"/>
      <point x="530" y="367"/>
      <point x="499" y="328"/>
      <point x="454" y="301"/>
      <point x="402" y="287"/>
    </contour>
    <contour>
      <point x="303" y="791" type="qcurve"/>
      <point x="319" y="818"/>
      <point x="349" y="872"/>
      <point x="371" y="895" type="qcurve"/>
      <point x="402" y="878"/>
      <point x="457" y="832"/>
      <point x="481" y="807" type="qcurve"/>
      <point x="501" y="847"/>
      <point x="542" y="929"/>
      <point x="573" y="963" type="qcurve"/>
      <point x="533" y="983"/>
      <point x="464" y="1039"/>
      <point x="432" y="1071" type="qcurve"/>
      <point x="403" y="1015"/>
      <point x="358" y="965" type="qcurve"/>
      <point x="332" y="983"/>
      <point x="275" y="1023"/>
      <point x="258" y="1051" type="qcurve"/>
      <point x="233" y="1012"/>
      <point x="185" y="935"/>
      <point x="154" y="901" type="qcurve"/>
      <point x="196" y="879"/>
      <point x="269" y="821"/>
    </contour>
    <contour>
      <point x="350" y="1034" type="qcurve"/>
      <point x="367" y="1076"/>
      <point x="411" y="1153"/>
      <point x="436" y="1190" type="qcurve"/>
      <point x="398" y="1212"/>
      <point x="328" y="1270"/>
      <point x="297" y="1300" type="qcurve"/>
      <point x="280" y="1257"/>
      <point x="236" y="1176"/>
      <point x="207" y="1139" type="qcurve"/>
      <point x="247" y="1119"/>
      <point x="318" y="1063"/>
    </contour>
  </outline>
</glyph>
<glyph name="tjimU" format="2">
  <advance width="1139"/>
  <unicode hex="FB7A"/>
  <outline>
    <contour>
      <point x="1104" y="530" type="line"/>
      <point x="1101" y="527"/>
      <point x="1059" y="524"/>
      <point x="1001" y="523"/>
      <point x="968" y="523" type="qcurve" smooth="yes"/>
      <point x="935" y="523"/>
      <point x="907" y="522" type="qcurve" smooth="yes"/>
      <point x="812" y="520"/>
      <point x="669" y="537"/>
      <point x="557" y="560"/>
      <point x="467" y="580"/>
      <point x="424" y="580" type="qcurve" smooth="yes"/>
      <point x="352" y="580"/>
      <point x="253" y="529"/>
      <point x="186" y="450"/>
      <point x="143" y="353"/>
      <point x="127" y="307" type="qcurve" smooth="yes"/>
      <point x="122" y="291"/>
      <point x="126" y="271"/>
      <point x="138" y="266"/>
      <point x="157" y="275"/>
      <point x="166" y="287" type="qcurve" smooth="yes"/>
      <point x="182" y="308"/>
      <point x="218" y="335"/>
      <point x="255" y="350"/>
      <point x="292" y="356"/>
      <point x="309" y="356" type="qcurve" smooth="yes"/>
      <point x="375" y="356"/>
      <point x="479" y="337"/>
      <point x="522" y="326" type="qcurve"/>
      <point x="522" y="322" type="line"/>
      <point x="477" y="299"/>
      <point x="376" y="229"/>
      <point x="277" y="135"/>
      <point x="186" y="19"/>
      <point x="117" y="-122"/>
      <point x="76" y="-287"/>
      <point x="76" y="-381" type="qcurve" smooth="yes"/>
      <point x="76" y="-431"/>
      <point x="93" y="-549"/>
      <point x="146" y="-667"/>
      <point x="243" y="-776"/>
      <point x="401" y="-860"/>
      <point x="630" y="-911"/>
      <point x="788" y="-911" type="qcurve" smooth="yes"/>
      <point x="866" y="-911"/>
      <point x="1023" y="-876"/>
      <point x="1167" y="-823"/>
      <point x="1291" y="-759"/>
      <point x="1383" y="-702"/>
      <point x="1436" y="-660"/>
      <point x="1436" y="-655" type="qcurve" smooth="yes"/>
      <point x="1436" y="-643"/>
      <point x="1353" y="-646"/>
      <point x="1200" y="-659"/>
      <point x="983" y="-674"/>
      <point x="850" y="-674" type="qcurve" smooth="yes"/>
      <point x="711" y="-674"/>
      <point x="506" y="-632"/>
      <point x="361" y="-562"/>
      <point x="270" y="-473"/>
      <point x="218" y="-381"/>
      <point x="199" y="-291"/>
      <point x="199" y="-256" type="qcurve" smooth="yes"/>
      <point x="199" y="-205"/>
      <point x="229" y="-108"/>
      <point x="282" y="-18"/>
      <point x="354" y="64"/>
      <point x="397" y="100" type="qcurve" smooth="yes"/>
      <point x="462" y="155"/>
      <point x="602" y="235"/>
      <point x="755" y="290"/>
      <point x="922" y="322"/>
      <point x="1014" y="328" type="qcurve"/>
    </contour>
    <contour>
      <point x="707" y="-244" type="qcurve"/>
      <point x="690" y="-286"/>
      <point x="645" y="-362"/>
      <point x="621" y="-399" type="qcurve"/>
      <point x="659" y="-421"/>
      <point x="729" y="-479"/>
      <point x="760" y="-510" type="qcurve"/>
      <point x="777" y="-467"/>
      <point x="821" y="-385"/>
      <point x="850" y="-348" type="qcurve"/>
      <point x="810" y="-328"/>
      <point x="739" y="-273"/>
    </contour>
    <contour>
      <point x="754" y="0" type="qcurve"/>
      <point x="738" y="-28"/>
      <point x="708" y="-81"/>
      <point x="686" y="-104" type="qcurve"/>
      <point x="655" y="-87"/>
      <point x="600" y="-41"/>
      <point x="575" y="-16" type="qcurve"/>
      <point x="555" y="-57"/>
      <point x="514" y="-138"/>
      <point x="483" y="-172" type="qcurve"/>
      <point x="524" y="-192"/>
      <point x="593" y="-249"/>
      <point x="625" y="-281" type="qcurve"/>
      <point x="640" y="-252"/>
      <point x="677" y="-199"/>
      <point x="698" y="-174" type="qcurve"/>
      <point x="724" y="-193"/>
      <point x="782" y="-232"/>
      <point x="799" y="-260" type="qcurve"/>
      <point x="823" y="-222"/>
      <point x="872" y="-145"/>
      <point x="903" y="-111" type="qcurve"/>
      <point x="861" y="-89"/>
      <point x="788" y="-31"/>
    </contour>
  </outline>
</glyph>
<glyph name="tjimF" format="2">
  <advance width="1251"/>
  <unicode hex="FB7B"/>
  <outline>
    <contour>
      <point x="1311" y="193" type="line" smooth="yes"/>
      <point x="1311" y="208"/>
      <point x="1283" y="223"/>
      <point x="1268" y="223" type="qcurve" smooth="yes"/>
      <point x="926" y="223" type="line" smooth="yes"/>
      <point x="884" y="223"/>
      <point x="855" y="263"/>
      <point x="852" y="303" type="qcurve"/>
      <point x="897" y="311"/>
      <point x="986" y="325"/>
      <point x="1034" y="328" type="qcurve"/>
      <point x="1124" y="530" type="line"/>
      <point x="1113" y="527"/>
      <point x="1064" y="524"/>
      <point x="1002" y="523"/>
      <point x="968" y="523" type="qcurve" smooth="yes"/>
      <point x="935" y="523"/>
      <point x="907" y="522" type="qcurve" smooth="yes"/>
      <point x="812" y="520"/>
      <point x="669" y="537"/>
      <point x="557" y="560"/>
      <point x="467" y="580"/>
      <point x="424" y="580" type="qcurve" smooth="yes"/>
      <point x="352" y="580"/>
      <point x="253" y="529"/>
      <point x="186" y="450"/>
      <point x="143" y="353"/>
      <point x="127" y="307" type="qcurve" smooth="yes"/>
      <point x="122" y="291"/>
      <point x="126" y="271"/>
      <point x="138" y="266"/>
      <point x="157" y="275"/>
      <point x="166" y="287" type="qcurve" smooth="yes"/>
      <point x="182" y="308"/>
      <point x="218" y="335"/>
      <point x="255" y="350"/>
      <point x="292" y="356"/>
      <point x="309" y="356" type="qcurve" smooth="yes"/>
      <point x="375" y="356"/>
      <point x="479" y="337"/>
      <point x="522" y="326" type="qcurve"/>
      <point x="522" y="322" type="line"/>
      <point x="477" y="299"/>
      <point x="376" y="229"/>
      <point x="277" y="135"/>
      <point x="186" y="19"/>
      <point x="117" y="-122"/>
      <point x="76" y="-287"/>
      <point x="76" y="-381" type="qcurve" smooth="yes"/>
      <point x="76" y="-431"/>
      <point x="93" y="-549"/>
      <point x="146" y="-667"/>
      <point x="243" y="-776"/>
      <point x="401" y="-860"/>
      <point x="630" y="-911"/>
      <point x="788" y="-911" type="qcurve" smooth="yes"/>
      <point x="866" y="-911"/>
      <point x="1023" y="-876"/>
      <point x="1167" y="-823"/>
      <point x="1291" y="-759"/>
      <point x="1383" y="-702"/>
      <point x="1436" y="-660"/>
      <point x="1436" y="-655" type="qcurve" smooth="yes"/>
      <point x="1436" y="-643"/>
      <point x="1353" y="-646"/>
      <point x="1200" y="-659"/>
      <point x="983" y="-674"/>
      <point x="850" y="-674" type="qcurve" smooth="yes"/>
      <point x="711" y="-674"/>
      <point x="506" y="-632"/>
      <point x="361" y="-562"/>
      <point x="270" y="-473"/>
      <point x="218" y="-381"/>
      <point x="199" y="-291"/>
      <point x="199" y="-256" type="qcurve" smooth="yes"/>
      <point x="199" y="-205"/>
      <point x="229" y="-108"/>
      <point x="282" y="-18"/>
      <point x="354" y="64"/>
      <point x="440" y="136"/>
      <point x="539" y="200"/>
      <point x="640" y="251"/>
      <point x="740" y="285"/>
      <point x="784" y="291" type="qcurve"/>
      <point x="769" y="260"/>
      <point x="743" y="185"/>
      <point x="743" y="135" type="qcurve" smooth="yes"/>
      <point x="743" y="115"/>
      <point x="764" y="68"/>
      <point x="812" y="27"/>
      <point x="889" y="0"/>
      <point x="944" y="0" type="qcurve" smooth="yes"/>
      <point x="1251" y="0" type="line" smooth="yes"/>
      <point x="1260" y="0"/>
      <point x="1281" y="5"/>
      <point x="1299" y="14"/>
      <point x="1311" y="25"/>
      <point x="1311" y="31" type="qcurve" smooth="yes"/>
    </contour>
    <contour>
      <point x="680" y="-305" type="qcurve"/>
      <point x="663" y="-347"/>
      <point x="619" y="-424"/>
      <point x="594" y="-461" type="qcurve"/>
      <point x="632" y="-482"/>
      <point x="702" y="-540"/>
      <point x="733" y="-571" type="qcurve"/>
      <point x="750" y="-528"/>
      <point x="794" y="-447"/>
      <point x="823" y="-410" type="qcurve"/>
      <point x="783" y="-390"/>
      <point x="712" y="-334"/>
    </contour>
    <contour>
      <point x="727" y="-61" type="qcurve"/>
      <point x="712" y="-89"/>
      <point x="681" y="-143"/>
      <point x="659" y="-166" type="qcurve"/>
      <point x="628" y="-149"/>
      <point x="574" y="-103"/>
      <point x="549" y="-78" type="qcurve"/>
      <point x="529" y="-118"/>
      <point x="488" y="-199"/>
      <point x="457" y="-233" type="qcurve"/>
      <point x="497" y="-253"/>
      <point x="566" y="-310"/>
      <point x="598" y="-342" type="qcurve"/>
      <point x="627" y="-286"/>
      <point x="672" y="-236" type="qcurve"/>
      <point x="698" y="-254"/>
      <point x="755" y="-294"/>
      <point x="772" y="-322" type="qcurve"/>
      <point x="797" y="-283"/>
      <point x="846" y="-206"/>
      <point x="877" y="-172" type="qcurve"/>
      <point x="835" y="-150"/>
      <point x="761" y="-92"/>
    </contour>
  </outline>
</glyph>
<glyph name="tjimI" format="2">
  <advance width="1171"/>
  <unicode hex="FB7C"/>
  <outline>
    <contour>
      <point x="-59" y="31" type="line" smooth="yes"/>
      <point x="-59" y="25"/>
      <point x="-48" y="14"/>
      <point x="-30" y="5"/>
      <point x="-9" y="0"/>
      <point x="0" y="0" type="qcurve" smooth="yes"/>
      <point x="48" y="0"/>
      <point x="127" y="10"/>
      <point x="209" y="37"/>
      <point x="306" y="86"/>
      <point x="371" y="125" type="qcurve" smooth="yes"/>
      <point x="414" y="152"/>
      <point x="557" y="207"/>
      <point x="735" y="248"/>
      <point x="941" y="267"/>
      <point x="1049" y="258" type="qcurve"/>
      <point x="1120" y="453" type="line"/>
      <point x="1008" y="453" type="line" smooth="yes"/>
      <point x="915" y="452"/>
      <point x="757" y="480"/>
      <point x="624" y="522"/>
      <point x="512" y="571"/>
      <point x="417" y="613"/>
      <point x="338" y="641"/>
      <point x="303" y="641" type="qcurve" smooth="yes"/>
      <point x="258" y="641"/>
      <point x="188" y="603"/>
      <point x="132" y="543"/>
      <point x="90" y="469"/>
      <point x="74" y="434" type="qcurve" smooth="yes"/>
      <point x="66" y="416"/>
      <point x="85" y="401"/>
      <point x="102" y="408" type="qcurve" smooth="yes"/>
      <point x="183" y="438"/>
      <point x="270" y="438" type="qcurve" smooth="yes"/>
      <point x="306" y="438"/>
      <point x="380" y="424"/>
      <point x="452" y="401"/>
      <point x="521" y="373"/>
      <point x="553" y="358" type="qcurve"/>
      <point x="553" y="354" type="line"/>
      <point x="506" y="345"/>
      <point x="388" y="302"/>
      <point x="263" y="257"/>
      <point x="141" y="223"/>
      <point x="90" y="223" type="qcurve" smooth="yes"/>
      <point x="-16" y="223" type="line" smooth="yes"/>
      <point x="-32" y="223"/>
      <point x="-59" y="208"/>
      <point x="-59" y="193" type="qcurve" smooth="yes"/>
    </contour>
    <contour>
      <point x="625" y="-336" type="qcurve"/>
      <point x="608" y="-378"/>
      <point x="563" y="-454"/>
      <point x="539" y="-492" type="qcurve"/>
      <point x="577" y="-513"/>
      <point x="647" y="-571"/>
      <point x="678" y="-602" type="qcurve"/>
      <point x="695" y="-559"/>
      <point x="739" y="-477"/>
      <point x="768" y="-440" type="qcurve"/>
      <point x="728" y="-420"/>
      <point x="657" y="-365"/>
    </contour>
    <contour>
      <point x="672" y="-92" type="qcurve"/>
      <point x="656" y="-120"/>
      <point x="626" y="-174"/>
      <point x="604" y="-197" type="qcurve"/>
      <point x="573" y="-180"/>
      <point x="518" y="-133"/>
      <point x="494" y="-109" type="qcurve"/>
      <point x="474" y="-149"/>
      <point x="432" y="-230"/>
      <point x="401" y="-264" type="qcurve"/>
      <point x="442" y="-284"/>
      <point x="511" y="-341"/>
      <point x="543" y="-373" type="qcurve"/>
      <point x="558" y="-344"/>
      <point x="595" y="-291"/>
      <point x="616" y="-266" type="qcurve"/>
      <point x="642" y="-285"/>
      <point x="700" y="-324"/>
      <point x="717" y="-352" type="qcurve"/>
      <point x="742" y="-314"/>
      <point x="790" y="-237"/>
      <point x="821" y="-203" type="qcurve"/>
      <point x="779" y="-181"/>
      <point x="706" y="-123"/>
    </contour>
  </outline>
</glyph>
<glyph name="tjimM" format="2">
  <advance width="1251"/>
  <unicode hex="FB7D"/>
  <outline>
    <contour>
      <point x="-59" y="31" type="line" smooth="yes"/>
      <point x="-59" y="25"/>
      <point x="-48" y="14"/>
      <point x="-30" y="5"/>
      <point x="-9" y="0"/>
      <point x="0" y="0" type="qcurve" smooth="yes"/>
      <point x="48" y="0"/>
      <point x="127" y="10"/>
      <point x="209" y="37"/>
      <point x="306" y="86"/>
      <point x="371" y="125" type="qcurve" smooth="yes"/>
      <point x="393" y="138"/>
      <point x="485" y="182"/>
      <point x="609" y="228"/>
      <point x="758" y="266"/>
      <point x="836" y="274" type="qcurve"/>
      <point x="820" y="257"/>
      <point x="788" y="192"/>
      <point x="788" y="145" type="qcurve" smooth="yes"/>
      <point x="788" y="107"/>
      <point x="821" y="52"/>
      <point x="873" y="17"/>
      <point x="939" y="0"/>
      <point x="971" y="0" type="qcurve" smooth="yes"/>
      <point x="1251" y="0" type="line" smooth="yes"/>
      <point x="1260" y="0"/>
      <point x="1281" y="5"/>
      <point x="1299" y="14"/>
      <point x="1311" y="25"/>
      <point x="1311" y="31" type="qcurve" smooth="yes"/>
      <point x="1311" y="193" type="line" smooth="yes"/>
      <point x="1311" y="208"/>
      <point x="1283" y="223"/>
      <point x="1268" y="223" type="qcurve" smooth="yes"/>
      <point x="979" y="223" type="line" smooth="yes"/>
      <point x="953" y="223"/>
      <point x="936" y="238" type="qcurve"/>
      <point x="920" y="254"/>
      <point x="920" y="281" type="qcurve"/>
      <point x="1098" y="281" type="line"/>
      <point x="1167" y="483" type="line"/>
      <point x="1146" y="481"/>
      <point x="1097" y="479"/>
      <point x="1050" y="476"/>
      <point x="1008" y="475"/>
      <point x="993" y="475" type="qcurve" smooth="yes"/>
      <point x="895" y="475"/>
      <point x="739" y="500"/>
      <point x="611" y="536"/>
      <point x="508" y="580"/>
      <point x="420" y="616"/>
      <point x="342" y="641"/>
      <point x="303" y="641" type="qcurve" smooth="yes"/>
      <point x="258" y="641"/>
      <point x="188" y="603"/>
      <point x="132" y="543"/>
      <point x="90" y="469"/>
      <point x="74" y="434" type="qcurve" smooth="yes"/>
      <point x="66" y="416"/>
      <point x="85" y="401"/>
      <point x="102" y="408" type="qcurve" smooth="yes"/>
      <point x="183" y="438"/>
      <point x="270" y="438" type="qcurve" smooth="yes"/>
      <point x="306" y="438"/>
      <point x="380" y="424"/>
      <point x="452" y="401"/>
      <point x="521" y="373"/>
      <point x="553" y="358" type="qcurve"/>
      <point x="553" y="354" type="line"/>
      <point x="506" y="345"/>
      <point x="388" y="302"/>
      <point x="263" y="257"/>
      <point x="141" y="223"/>
      <point x="90" y="223" type="qcurve" smooth="yes"/>
      <point x="-16" y="223" type="line" smooth="yes"/>
      <point x="-32" y="223"/>
      <point x="-59" y="208"/>
      <point x="-59" y="193" type="qcurve" smooth="yes"/>
    </contour>
    <contour>
      <point x="625" y="-397" type="qcurve"/>
      <point x="608" y="-439"/>
      <point x="563" y="-516"/>
      <point x="539" y="-553" type="qcurve"/>
      <point x="577" y="-575"/>
      <point x="647" y="-633"/>
      <point x="678" y="-664" type="qcurve"/>
      <point x="695" y="-620"/>
      <point x="739" y="-539"/>
      <point x="768" y="-502" type="qcurve"/>
      <point x="728" y="-482"/>
      <point x="657" y="-426"/>
    </contour>
    <contour>
      <point x="672" y="-154" type="qcurve"/>
      <point x="656" y="-181"/>
      <point x="626" y="-235"/>
      <point x="604" y="-258" type="qcurve"/>
      <point x="573" y="-241"/>
      <point x="518" y="-195"/>
      <point x="494" y="-170" type="qcurve"/>
      <point x="474" y="-210"/>
      <point x="432" y="-292"/>
      <point x="401" y="-326" type="qcurve"/>
      <point x="442" y="-346"/>
      <point x="511" y="-402"/>
      <point x="543" y="-434" type="qcurve"/>
      <point x="558" y="-405"/>
      <point x="595" y="-352"/>
      <point x="616" y="-328" type="qcurve"/>
      <point x="642" y="-346"/>
      <point x="700" y="-386"/>
      <point x="717" y="-414" type="qcurve"/>
      <point x="742" y="-375"/>
      <point x="790" y="-298"/>
      <point x="821" y="-264" type="qcurve"/>
      <point x="779" y="-243"/>
      <point x="706" y="-185"/>
    </contour>
  </outline>
</glyph>
<glyph name="sheU" format="2">
  <advance width="784"/>
  <unicode hex="FB8A"/>
  <outline>
    <contour>
      <point x="475" y="305" type="line"/>
      <point x="520" y="270"/>
      <point x="594" y="179"/>
      <point x="623" y="131" type="qcurve"/>
      <point x="606" y="83"/>
      <point x="545" y="-12"/>
      <point x="466" y="-99"/>
      <point x="372" y="-174"/>
      <point x="273" y="-230"/>
      <point x="174" y="-262"/>
      <point x="129" y="-262" type="qcurve" smooth="yes"/>
      <point x="107" y="-262"/>
      <point x="46" y="-254"/>
      <point x="25" y="-254" type="qcurve" smooth="yes"/>
      <point x="17" y="-254"/>
      <point x="0" y="-260"/>
      <point x="0" y="-274" type="qcurve" smooth="yes"/>
      <point x="0" y="-281"/>
      <point x="29" y="-306"/>
      <point x="76" y="-334"/>
      <point x="135" y="-363"/>
      <point x="194" y="-386"/>
      <point x="248" y="-401"/>
      <point x="266" y="-401" type="qcurve" smooth="yes"/>
      <point x="314" y="-401"/>
      <point x="418" y="-368"/>
      <point x="517" y="-303"/>
      <point x="606" y="-207"/>
      <point x="674" y="-82"/>
      <point x="713" y="72"/>
      <point x="713" y="162" type="qcurve" smooth="yes"/>
      <point x="713" y="201"/>
      <point x="695" y="294"/>
      <point x="659" y="385"/>
      <point x="606" y="467"/>
      <point x="571" y="496" type="qcurve"/>
    </contour>
    <contour>
      <point x="383" y="958" type="qcurve"/>
      <point x="400" y="1000"/>
      <point x="444" y="1077"/>
      <point x="469" y="1114" type="qcurve"/>
      <point x="431" y="1136"/>
      <point x="361" y="1194"/>
      <point x="330" y="1225" type="qcurve"/>
      <point x="313" y="1181"/>
      <point x="269" y="1100"/>
      <point x="240" y="1063" type="qcurve"/>
      <point x="280" y="1043"/>
      <point x="351" y="987"/>
    </contour>
    <contour>
      <point x="336" y="713" type="qcurve"/>
      <point x="351" y="741"/>
      <point x="382" y="794"/>
      <point x="403" y="817" type="qcurve"/>
      <point x="434" y="800"/>
      <point x="489" y="754"/>
      <point x="514" y="729" type="qcurve"/>
      <point x="534" y="769"/>
      <point x="575" y="851"/>
      <point x="606" y="885" type="qcurve"/>
      <point x="566" y="905"/>
      <point x="497" y="961"/>
      <point x="465" y="993" type="qcurve"/>
      <point x="449" y="964"/>
      <point x="413" y="912"/>
      <point x="391" y="887" type="qcurve"/>
      <point x="365" y="905"/>
      <point x="308" y="945"/>
      <point x="291" y="973" type="qcurve"/>
      <point x="266" y="935"/>
      <point x="217" y="857"/>
      <point x="186" y="823" type="qcurve"/>
      <point x="228" y="802"/>
      <point x="302" y="744"/>
    </contour>
  </outline>
</glyph>
<glyph name="sheF" format="2">
  <advance width="768"/>
  <unicode hex="FB8B"/>
  <outline>
    <contour>
      <point x="827" y="193" type="line" smooth="yes"/>
      <point x="827" y="208"/>
      <point x="800" y="223"/>
      <point x="784" y="223" type="qcurve"/>
      <point x="750" y="221"/>
      <point x="687" y="229"/>
      <point x="632" y="253"/>
      <point x="587" y="294"/>
      <point x="571" y="326" type="qcurve"/>
      <point x="469" y="147" type="line"/>
      <point x="487" y="133"/>
      <point x="524" y="99"/>
      <point x="557" y="64"/>
      <point x="583" y="28"/>
      <point x="590" y="12" type="qcurve"/>
      <point x="566" y="-75"/>
      <point x="480" y="-206"/>
      <point x="377" y="-302"/>
      <point x="265" y="-365"/>
      <point x="166" y="-403"/>
      <point x="89" y="-418"/>
      <point x="72" y="-418" type="qcurve" smooth="yes"/>
      <point x="56" y="-418"/>
      <point x="21" y="-414"/>
      <point x="16" y="-414" type="qcurve" smooth="yes"/>
      <point x="10" y="-414"/>
      <point x="0" y="-418"/>
      <point x="0" y="-426" type="qcurve" smooth="yes"/>
      <point x="0" y="-433"/>
      <point x="26" y="-456"/>
      <point x="68" y="-482"/>
      <point x="121" y="-509"/>
      <point x="174" y="-531"/>
      <point x="223" y="-545"/>
      <point x="240" y="-545" type="qcurve" smooth="yes"/>
      <point x="307" y="-545"/>
      <point x="434" y="-487"/>
      <point x="542" y="-382"/>
      <point x="625" y="-233"/>
      <point x="647" y="-141" type="qcurve" smooth="yes"/>
      <point x="659" y="-91"/>
      <point x="674" y="-35"/>
      <point x="688" y="-7"/>
      <point x="703" y="0"/>
      <point x="715" y="0" type="qcurve" smooth="yes"/>
      <point x="768" y="0" type="line" smooth="yes"/>
      <point x="777" y="0"/>
      <point x="798" y="5"/>
      <point x="816" y="14"/>
      <point x="827" y="25"/>
      <point x="827" y="31" type="qcurve" smooth="yes"/>
    </contour>
    <contour>
      <point x="371" y="545" type="qcurve"/>
      <point x="386" y="573"/>
      <point x="417" y="626"/>
      <point x="438" y="649" type="qcurve"/>
      <point x="469" y="632"/>
      <point x="524" y="586"/>
      <point x="549" y="561" type="qcurve"/>
      <point x="569" y="601"/>
      <point x="610" y="683"/>
      <point x="641" y="717" type="qcurve"/>
      <point x="601" y="737"/>
      <point x="532" y="793"/>
      <point x="500" y="825" type="qcurve"/>
      <point x="484" y="796"/>
      <point x="448" y="744"/>
      <point x="426" y="719" type="qcurve"/>
      <point x="400" y="737"/>
      <point x="343" y="777"/>
      <point x="326" y="805" type="qcurve"/>
      <point x="301" y="767"/>
      <point x="252" y="689"/>
      <point x="221" y="655" type="qcurve"/>
      <point x="263" y="634"/>
      <point x="337" y="576"/>
    </contour>
    <contour>
      <point x="418" y="788" type="qcurve"/>
      <point x="435" y="830"/>
      <point x="479" y="907"/>
      <point x="504" y="944" type="qcurve"/>
      <point x="466" y="966"/>
      <point x="396" y="1024"/>
      <point x="365" y="1055" type="qcurve"/>
      <point x="348" y="1011"/>
      <point x="303" y="930"/>
      <point x="274" y="893" type="qcurve"/>
      <point x="315" y="873"/>
      <point x="386" y="817"/>
    </contour>
  </outline>
</glyph>
<glyph name="gafI" format="2">
  <advance width="961"/>
  <unicode hex="FB94"/>
  <outline>
    <contour>
      <point x="-59" y="31" type="line" smooth="yes"/>
      <point x="-59" y="25"/>
      <point x="-48" y="14"/>
      <point x="-30" y="5"/>
      <point x="-9" y="0"/>
      <point x="0" y="0" type="qcurve" smooth="yes"/>
      <point x="229" y="0" type="line" smooth="yes"/>
      <point x="309" y="0"/>
      <point x="442" y="31"/>
      <point x="538" y="103"/>
      <point x="592" y="219"/>
      <point x="592" y="303" type="qcurve" smooth="yes"/>
      <point x="592" y="387"/>
      <point x="526" y="524"/>
      <point x="416" y="637"/>
      <point x="272" y="731"/>
      <point x="195" y="772" type="qcurve"/>
      <point x="215" y="787"/>
      <point x="291" y="826"/>
      <point x="389" y="870"/>
      <point x="503" y="917"/>
      <point x="617" y="961"/>
      <point x="724" y="1000"/>
      <point x="768" y="1014" type="qcurve"/>
      <point x="870" y="1231" type="line"/>
      <point x="807" y="1211"/>
      <point x="671" y="1163"/>
      <point x="535" y="1107"/>
      <point x="403" y="1046"/>
      <point x="287" y="984"/>
      <point x="190" y="922"/>
      <point x="156" y="893" type="qcurve" smooth="yes"/>
      <point x="133" y="873"/>
      <point x="103" y="843"/>
      <point x="85" y="815"/>
      <point x="78" y="785"/>
      <point x="78" y="764" type="qcurve" smooth="yes"/>
      <point x="78" y="722"/>
      <point x="85" y="662"/>
      <point x="104" y="620"/>
      <point x="136" y="591"/>
      <point x="162" y="580" type="qcurve" smooth="yes"/>
      <point x="259" y="536"/>
      <point x="394" y="446"/>
      <point x="479" y="367"/>
      <point x="517" y="307"/>
      <point x="516" y="293" type="qcurve"/>
      <point x="516" y="283"/>
      <point x="492" y="258"/>
      <point x="442" y="237"/>
      <point x="364" y="223"/>
      <point x="311" y="223" type="qcurve" smooth="yes"/>
      <point x="-16" y="223" type="line" smooth="yes"/>
      <point x="-32" y="223"/>
      <point x="-59" y="208"/>
      <point x="-59" y="193" type="qcurve" smooth="yes"/>
    </contour>
    <contour>
      <point x="170" y="1008" type="line"/>
      <point x="251" y="1062"/>
      <point x="436" y="1167"/>
      <point x="619" y="1256"/>
      <point x="786" y="1319"/>
      <point x="848" y="1331" type="qcurve"/>
      <point x="893" y="1477" type="line"/>
      <point x="842" y="1466"/>
      <point x="720" y="1424"/>
      <point x="589" y="1367"/>
      <point x="455" y="1300"/>
      <point x="330" y="1230"/>
      <point x="219" y="1161"/>
      <point x="178" y="1130" type="qcurve"/>
    </contour>
  </outline>
</glyph>
<glyph name="gafM" format="2">
  <advance width="1024"/>
  <unicode hex="FB95"/>
  <outline>
    <contour>
      <point x="172" y="1016" type="line"/>
      <point x="228" y="1050"/>
      <point x="369" y="1129"/>
      <point x="523" y="1209"/>
      <point x="678" y="1285"/>
      <point x="817" y="1350"/>
      <point x="931" y="1398"/>
      <point x="965" y="1409" type="qcurve"/>
      <point x="1024" y="1567" type="line"/>
      <point x="967" y="1548"/>
      <point x="823" y="1488"/>
      <point x="665" y="1413"/>
      <point x="503" y="1329"/>
      <point x="354" y="1246"/>
      <point x="228" y="1169"/>
      <point x="184" y="1139" type="qcurve"/>
    </contour>
    <contour>
      <point x="1008" y="1325" type="line"/>
      <point x="952" y="1304"/>
      <point x="821" y="1253"/>
      <point x="676" y="1192"/>
      <point x="522" y="1119"/>
      <point x="444" y="1077" type="qcurve" smooth="yes"/>
      <point x="345" y="1023"/>
      <point x="211" y="933"/>
      <point x="130" y="856"/>
      <point x="96" y="788"/>
      <point x="96" y="754" type="qcurve" smooth="yes"/>
      <point x="96" y="732"/>
      <point x="109" y="681"/>
      <point x="129" y="631"/>
      <point x="155" y="585"/>
      <point x="168" y="569" type="qcurve" smooth="yes"/>
      <point x="179" y="555"/>
      <point x="234" y="524"/>
      <point x="302" y="491"/>
      <point x="376" y="455"/>
      <point x="437" y="416"/>
      <point x="477" y="376"/>
      <point x="477" y="356" type="qcurve" smooth="yes"/>
      <point x="477" y="335"/>
      <point x="440" y="289"/>
      <point x="359" y="249"/>
      <point x="227" y="223"/>
      <point x="133" y="223" type="qcurve" smooth="yes"/>
      <point x="-16" y="223" type="line" smooth="yes"/>
      <point x="-32" y="223"/>
      <point x="-59" y="208"/>
      <point x="-59" y="193" type="qcurve" smooth="yes"/>
      <point x="-59" y="31" type="line" smooth="yes"/>
      <point x="-59" y="25"/>
      <point x="-48" y="14"/>
      <point x="-30" y="5"/>
      <point x="-9" y="0"/>
      <point x="0" y="0" type="qcurve" smooth="yes"/>
      <point x="139" y="0" type="line" smooth="yes"/>
      <point x="234" y="0"/>
      <point x="368" y="32"/>
      <point x="460" y="83"/>
      <point x="513" y="149"/>
      <point x="542" y="218"/>
      <point x="551" y="284"/>
      <point x="552" y="335"/>
      <point x="552" y="351" type="qcurve" smooth="yes"/>
      <point x="552" y="367"/>
      <point x="557" y="367" type="qcurve" smooth="yes"/>
      <point x="562" y="367"/>
      <point x="595" y="338"/>
      <point x="641" y="293"/>
      <point x="695" y="237"/>
      <point x="721" y="211" type="qcurve" smooth="yes"/>
      <point x="761" y="170"/>
      <point x="839" y="94"/>
      <point x="915" y="35"/>
      <point x="988" y="0"/>
      <point x="1024" y="0" type="qcurve" smooth="yes"/>
      <point x="1033" y="0"/>
      <point x="1054" y="5"/>
      <point x="1072" y="14"/>
      <point x="1083" y="25"/>
      <point x="1083" y="31" type="qcurve" smooth="yes"/>
      <point x="1083" y="193" type="line" smooth="yes"/>
      <point x="1083" y="208"/>
      <point x="1056" y="223"/>
      <point x="1040" y="223" type="qcurve" smooth="yes"/>
      <point x="1008" y="223"/>
      <point x="956" y="239"/>
      <point x="897" y="279"/>
      <point x="823" y="346"/>
      <point x="770" y="397" type="qcurve" smooth="yes"/>
      <point x="704" y="459"/>
      <point x="568" y="558"/>
      <point x="440" y="633"/>
      <point x="327" y="687"/>
      <point x="242" y="725"/>
      <point x="193" y="748"/>
      <point x="193" y="754" type="qcurve" smooth="yes"/>
      <point x="193" y="775"/>
      <point x="367" y="879"/>
      <point x="551" y="961" type="qcurve" smooth="yes"/>
      <point x="632" y="998"/>
      <point x="805" y="1065"/>
      <point x="889" y="1090" type="qcurve"/>
    </contour>
  </outline>
</glyph>
<glyph name="bayaU" format="2">
  <advance width="1198"/>
  <unicode hex="FC0A"/>
  <outline>
    <contour>
      <point x="892" y="374" type="qcurve"/>
      <point x="939" y="457"/>
      <point x="992" y="529" type="qcurve"/>
      <point x="1094" y="414"/>
      <point x="1094" y="295" type="qcurve" smooth="yes"/>
      <point x="1094" y="215"/>
      <point x="1044" y="120" type="qcurve"/>
      <point x="1130" y="105"/>
      <point x="1130" y="44" type="qcurve" smooth="yes"/>
      <point x="1130" y="-35"/>
      <point x="994" y="-221"/>
      <point x="886" y="-289" type="qcurve" smooth="yes"/>
      <point x="663" y="-432"/>
      <point x="434" y="-432" type="qcurve" smooth="yes"/>
      <point x="274" y="-432"/>
      <point x="61" y="-212"/>
      <point x="61" y="-48" type="qcurve" smooth="yes"/>
      <point x="61" y="94"/>
      <point x="135" y="243" type="qcurve" smooth="yes"/>
      <point x="175" y="322"/>
      <point x="198" y="322" type="qcurve" smooth="yes"/>
      <point x="200" y="322" type="line"/>
      <point x="214" y="321"/>
      <point x="214" y="308" type="qcurve" smooth="yes"/>
      <point x="214" y="297"/>
      <point x="203" y="274" type="qcurve" smooth="yes"/>
      <point x="192" y="249" type="line" smooth="yes"/>
      <point x="143" y="144"/>
      <point x="143" y="39" type="qcurve" smooth="yes"/>
      <point x="143" y="-83"/>
      <point x="325" y="-222"/>
      <point x="484" y="-222" type="qcurve" smooth="yes"/>
      <point x="686" y="-222"/>
      <point x="918" y="-106" type="qcurve" smooth="yes"/>
      <point x="1019" y="-56"/>
      <point x="1019" y="-41" type="qcurve" smooth="yes"/>
      <point x="1019" y="-26"/>
      <point x="877" y="-2"/>
      <point x="791" y="-2" type="qcurve" smooth="yes"/>
      <point x="769" y="-2" type="line"/>
      <point x="799" y="143" type="line"/>
      <point x="930" y="162"/>
      <point x="972" y="192" type="qcurve"/>
      <point x="957" y="285"/>
    </contour>
    <contour>
      <point x="1026" y="-597" type="qcurve"/>
      <point x="948" y="-539"/>
      <point x="878" y="-498" type="qcurve"/>
      <point x="921" y="-445"/>
      <point x="979" y="-349" type="qcurve"/>
      <point x="1047" y="-401"/>
      <point x="1124" y="-449" type="qcurve"/>
      <point x="1077" y="-510"/>
    </contour>
    <contour>
      <point x="334" y="-761" type="qcurve"/>
      <point x="283" y="-708"/>
      <point x="195" y="-652" type="qcurve"/>
      <point x="250" y="-584"/>
      <point x="289" y="-516" type="qcurve"/>
      <point x="315" y="-537"/>
      <point x="328" y="-548" type="qcurve" smooth="yes"/>
      <point x="369" y="-581"/>
      <point x="404" y="-606" type="qcurve"/>
      <point x="439" y="-569"/>
      <point x="483" y="-504" type="qcurve"/>
      <point x="526" y="-541" type="line" smooth="yes"/>
      <point x="570" y="-578"/>
      <point x="617" y="-612" type="qcurve"/>
      <point x="585" y="-652" type="line" smooth="yes"/>
      <point x="553" y="-693"/>
      <point x="523" y="-740" type="qcurve"/>
      <point x="461" y="-684"/>
      <point x="406" y="-654" type="qcurve"/>
      <point x="365" y="-709"/>
    </contour>
  </outline>
</glyph>
